%TF.GenerationSoftware,KiCad,Pcbnew,(6.0.7)*%
%TF.CreationDate,2022-09-26T20:50:42-04:00*%
%TF.ProjectId,STM32G4_USB_PD,53544d33-3247-4345-9f55-53425f50442e,rev?*%
%TF.SameCoordinates,Original*%
%TF.FileFunction,Legend,Top*%
%TF.FilePolarity,Positive*%
%FSLAX46Y46*%
G04 Gerber Fmt 4.6, Leading zero omitted, Abs format (unit mm)*
G04 Created by KiCad (PCBNEW (6.0.7)) date 2022-09-26 20:50:42*
%MOMM*%
%LPD*%
G01*
G04 APERTURE LIST*
%ADD10C,0.150000*%
%ADD11C,0.254000*%
%ADD12C,0.127000*%
%ADD13C,0.200000*%
%ADD14C,0.120000*%
%ADD15C,0.100000*%
G04 APERTURE END LIST*
D10*
%TO.C,J2*%
X117166666Y-88452380D02*
X117166666Y-89166666D01*
X117119047Y-89309523D01*
X117023809Y-89404761D01*
X116880952Y-89452380D01*
X116785714Y-89452380D01*
X117595238Y-88547619D02*
X117642857Y-88500000D01*
X117738095Y-88452380D01*
X117976190Y-88452380D01*
X118071428Y-88500000D01*
X118119047Y-88547619D01*
X118166666Y-88642857D01*
X118166666Y-88738095D01*
X118119047Y-88880952D01*
X117547619Y-89452380D01*
X118166666Y-89452380D01*
%TO.C,R3*%
X104452380Y-71666666D02*
X103976190Y-72000000D01*
X104452380Y-72238095D02*
X103452380Y-72238095D01*
X103452380Y-71857142D01*
X103500000Y-71761904D01*
X103547619Y-71714285D01*
X103642857Y-71666666D01*
X103785714Y-71666666D01*
X103880952Y-71714285D01*
X103928571Y-71761904D01*
X103976190Y-71857142D01*
X103976190Y-72238095D01*
X103452380Y-71333333D02*
X103452380Y-70714285D01*
X103833333Y-71047619D01*
X103833333Y-70904761D01*
X103880952Y-70809523D01*
X103928571Y-70761904D01*
X104023809Y-70714285D01*
X104261904Y-70714285D01*
X104357142Y-70761904D01*
X104404761Y-70809523D01*
X104452380Y-70904761D01*
X104452380Y-71190476D01*
X104404761Y-71285714D01*
X104357142Y-71333333D01*
%TO.C,R1*%
X107833333Y-68522380D02*
X107500000Y-68046190D01*
X107261904Y-68522380D02*
X107261904Y-67522380D01*
X107642857Y-67522380D01*
X107738095Y-67570000D01*
X107785714Y-67617619D01*
X107833333Y-67712857D01*
X107833333Y-67855714D01*
X107785714Y-67950952D01*
X107738095Y-67998571D01*
X107642857Y-68046190D01*
X107261904Y-68046190D01*
X108785714Y-68522380D02*
X108214285Y-68522380D01*
X108500000Y-68522380D02*
X108500000Y-67522380D01*
X108404761Y-67665238D01*
X108309523Y-67760476D01*
X108214285Y-67808095D01*
%TO.C,XTAL1*%
X119500000Y-78452380D02*
X119500000Y-78690476D01*
X119261904Y-78595238D02*
X119500000Y-78690476D01*
X119738095Y-78595238D01*
X119357142Y-78880952D02*
X119500000Y-78690476D01*
X119642857Y-78880952D01*
%TO.C,J1*%
X89661780Y-74333333D02*
X90376066Y-74333333D01*
X90518923Y-74380952D01*
X90614161Y-74476190D01*
X90661780Y-74619047D01*
X90661780Y-74714285D01*
X90661780Y-73333333D02*
X90661780Y-73904761D01*
X90661780Y-73619047D02*
X89661780Y-73619047D01*
X89804638Y-73714285D01*
X89899876Y-73809523D01*
X89947495Y-73904761D01*
%TO.C,D1*%
X95636904Y-83022380D02*
X95636904Y-82022380D01*
X95875000Y-82022380D01*
X96017857Y-82070000D01*
X96113095Y-82165238D01*
X96160714Y-82260476D01*
X96208333Y-82450952D01*
X96208333Y-82593809D01*
X96160714Y-82784285D01*
X96113095Y-82879523D01*
X96017857Y-82974761D01*
X95875000Y-83022380D01*
X95636904Y-83022380D01*
X97160714Y-83022380D02*
X96589285Y-83022380D01*
X96875000Y-83022380D02*
X96875000Y-82022380D01*
X96779761Y-82165238D01*
X96684523Y-82260476D01*
X96589285Y-82308095D01*
D11*
%TO.C,U2*%
X96032380Y-68804523D02*
X96032380Y-69832619D01*
X96092857Y-69953571D01*
X96153333Y-70014047D01*
X96274285Y-70074523D01*
X96516190Y-70074523D01*
X96637142Y-70014047D01*
X96697619Y-69953571D01*
X96758095Y-69832619D01*
X96758095Y-68804523D01*
X97302380Y-68925476D02*
X97362857Y-68865000D01*
X97483809Y-68804523D01*
X97786190Y-68804523D01*
X97907142Y-68865000D01*
X97967619Y-68925476D01*
X98028095Y-69046428D01*
X98028095Y-69167380D01*
X97967619Y-69348809D01*
X97241904Y-70074523D01*
X98028095Y-70074523D01*
D10*
%TO.C,C4*%
X95857142Y-73666666D02*
X95904761Y-73714285D01*
X95952380Y-73857142D01*
X95952380Y-73952380D01*
X95904761Y-74095238D01*
X95809523Y-74190476D01*
X95714285Y-74238095D01*
X95523809Y-74285714D01*
X95380952Y-74285714D01*
X95190476Y-74238095D01*
X95095238Y-74190476D01*
X95000000Y-74095238D01*
X94952380Y-73952380D01*
X94952380Y-73857142D01*
X95000000Y-73714285D01*
X95047619Y-73666666D01*
X95285714Y-72809523D02*
X95952380Y-72809523D01*
X94904761Y-73047619D02*
X95619047Y-73285714D01*
X95619047Y-72666666D01*
%TO.C,D2*%
X114522380Y-71238095D02*
X113522380Y-71238095D01*
X113522380Y-71000000D01*
X113570000Y-70857142D01*
X113665238Y-70761904D01*
X113760476Y-70714285D01*
X113950952Y-70666666D01*
X114093809Y-70666666D01*
X114284285Y-70714285D01*
X114379523Y-70761904D01*
X114474761Y-70857142D01*
X114522380Y-71000000D01*
X114522380Y-71238095D01*
X113617619Y-70285714D02*
X113570000Y-70238095D01*
X113522380Y-70142857D01*
X113522380Y-69904761D01*
X113570000Y-69809523D01*
X113617619Y-69761904D01*
X113712857Y-69714285D01*
X113808095Y-69714285D01*
X113950952Y-69761904D01*
X114522380Y-70333333D01*
X114522380Y-69714285D01*
%TO.C,R2*%
X111833333Y-68522380D02*
X111500000Y-68046190D01*
X111261904Y-68522380D02*
X111261904Y-67522380D01*
X111642857Y-67522380D01*
X111738095Y-67570000D01*
X111785714Y-67617619D01*
X111833333Y-67712857D01*
X111833333Y-67855714D01*
X111785714Y-67950952D01*
X111738095Y-67998571D01*
X111642857Y-68046190D01*
X111261904Y-68046190D01*
X112214285Y-67617619D02*
X112261904Y-67570000D01*
X112357142Y-67522380D01*
X112595238Y-67522380D01*
X112690476Y-67570000D01*
X112738095Y-67617619D01*
X112785714Y-67712857D01*
X112785714Y-67808095D01*
X112738095Y-67950952D01*
X112166666Y-68522380D01*
X112785714Y-68522380D01*
%TO.C,J4*%
X87666666Y-85952380D02*
X87666666Y-86666666D01*
X87619047Y-86809523D01*
X87523809Y-86904761D01*
X87380952Y-86952380D01*
X87285714Y-86952380D01*
X88571428Y-86285714D02*
X88571428Y-86952380D01*
X88333333Y-85904761D02*
X88095238Y-86619047D01*
X88714285Y-86619047D01*
%TO.C,U1*%
X107761895Y-75436580D02*
X107761895Y-76246104D01*
X107809514Y-76341342D01*
X107857133Y-76388961D01*
X107952371Y-76436580D01*
X108142847Y-76436580D01*
X108238085Y-76388961D01*
X108285704Y-76341342D01*
X108333323Y-76246104D01*
X108333323Y-75436580D01*
X109333323Y-76436580D02*
X108761895Y-76436580D01*
X109047609Y-76436580D02*
X109047609Y-75436580D01*
X108952371Y-75579438D01*
X108857133Y-75674676D01*
X108761895Y-75722295D01*
X113000000Y-79952380D02*
X113000000Y-80190476D01*
X112761904Y-80095238D02*
X113000000Y-80190476D01*
X113238095Y-80095238D01*
X112857142Y-80380952D02*
X113000000Y-80190476D01*
X113142857Y-80380952D01*
%TO.C,R4*%
X100833333Y-77382380D02*
X100500000Y-76906190D01*
X100261904Y-77382380D02*
X100261904Y-76382380D01*
X100642857Y-76382380D01*
X100738095Y-76430000D01*
X100785714Y-76477619D01*
X100833333Y-76572857D01*
X100833333Y-76715714D01*
X100785714Y-76810952D01*
X100738095Y-76858571D01*
X100642857Y-76906190D01*
X100261904Y-76906190D01*
X101690476Y-76715714D02*
X101690476Y-77382380D01*
X101452380Y-76334761D02*
X101214285Y-77049047D01*
X101833333Y-77049047D01*
%TO.C,C1*%
X118333333Y-80857142D02*
X118285714Y-80904761D01*
X118142857Y-80952380D01*
X118047619Y-80952380D01*
X117904761Y-80904761D01*
X117809523Y-80809523D01*
X117761904Y-80714285D01*
X117714285Y-80523809D01*
X117714285Y-80380952D01*
X117761904Y-80190476D01*
X117809523Y-80095238D01*
X117904761Y-80000000D01*
X118047619Y-79952380D01*
X118142857Y-79952380D01*
X118285714Y-80000000D01*
X118333333Y-80047619D01*
X119285714Y-80952380D02*
X118714285Y-80952380D01*
X119000000Y-80952380D02*
X119000000Y-79952380D01*
X118904761Y-80095238D01*
X118809523Y-80190476D01*
X118714285Y-80238095D01*
%TO.C,C5*%
X103833333Y-69857142D02*
X103785714Y-69904761D01*
X103642857Y-69952380D01*
X103547619Y-69952380D01*
X103404761Y-69904761D01*
X103309523Y-69809523D01*
X103261904Y-69714285D01*
X103214285Y-69523809D01*
X103214285Y-69380952D01*
X103261904Y-69190476D01*
X103309523Y-69095238D01*
X103404761Y-69000000D01*
X103547619Y-68952380D01*
X103642857Y-68952380D01*
X103785714Y-69000000D01*
X103833333Y-69047619D01*
X104738095Y-68952380D02*
X104261904Y-68952380D01*
X104214285Y-69428571D01*
X104261904Y-69380952D01*
X104357142Y-69333333D01*
X104595238Y-69333333D01*
X104690476Y-69380952D01*
X104738095Y-69428571D01*
X104785714Y-69523809D01*
X104785714Y-69761904D01*
X104738095Y-69857142D01*
X104690476Y-69904761D01*
X104595238Y-69952380D01*
X104357142Y-69952380D01*
X104261904Y-69904761D01*
X104214285Y-69857142D01*
%TO.C,R5*%
X102952380Y-81166666D02*
X102476190Y-81500000D01*
X102952380Y-81738095D02*
X101952380Y-81738095D01*
X101952380Y-81357142D01*
X102000000Y-81261904D01*
X102047619Y-81214285D01*
X102142857Y-81166666D01*
X102285714Y-81166666D01*
X102380952Y-81214285D01*
X102428571Y-81261904D01*
X102476190Y-81357142D01*
X102476190Y-81738095D01*
X101952380Y-80261904D02*
X101952380Y-80738095D01*
X102428571Y-80785714D01*
X102380952Y-80738095D01*
X102333333Y-80642857D01*
X102333333Y-80404761D01*
X102380952Y-80309523D01*
X102428571Y-80261904D01*
X102523809Y-80214285D01*
X102761904Y-80214285D01*
X102857142Y-80261904D01*
X102904761Y-80309523D01*
X102952380Y-80404761D01*
X102952380Y-80642857D01*
X102904761Y-80738095D01*
X102857142Y-80785714D01*
%TO.C,Q1*%
X99547619Y-82595238D02*
X99500000Y-82690476D01*
X99404761Y-82785714D01*
X99261904Y-82928571D01*
X99214285Y-83023809D01*
X99214285Y-83119047D01*
X99452380Y-83071428D02*
X99404761Y-83166666D01*
X99309523Y-83261904D01*
X99119047Y-83309523D01*
X98785714Y-83309523D01*
X98595238Y-83261904D01*
X98500000Y-83166666D01*
X98452380Y-83071428D01*
X98452380Y-82880952D01*
X98500000Y-82785714D01*
X98595238Y-82690476D01*
X98785714Y-82642857D01*
X99119047Y-82642857D01*
X99309523Y-82690476D01*
X99404761Y-82785714D01*
X99452380Y-82880952D01*
X99452380Y-83071428D01*
X99452380Y-81690476D02*
X99452380Y-82261904D01*
X99452380Y-81976190D02*
X98452380Y-81976190D01*
X98595238Y-82071428D01*
X98690476Y-82166666D01*
X98738095Y-82261904D01*
%TO.C,J3*%
X92166666Y-87452380D02*
X92166666Y-88166666D01*
X92119047Y-88309523D01*
X92023809Y-88404761D01*
X91880952Y-88452380D01*
X91785714Y-88452380D01*
X92547619Y-87452380D02*
X93166666Y-87452380D01*
X92833333Y-87833333D01*
X92976190Y-87833333D01*
X93071428Y-87880952D01*
X93119047Y-87928571D01*
X93166666Y-88023809D01*
X93166666Y-88261904D01*
X93119047Y-88357142D01*
X93071428Y-88404761D01*
X92976190Y-88452380D01*
X92690476Y-88452380D01*
X92595238Y-88404761D01*
X92547619Y-88357142D01*
%TO.C,R6*%
X119382380Y-72666666D02*
X118906190Y-73000000D01*
X119382380Y-73238095D02*
X118382380Y-73238095D01*
X118382380Y-72857142D01*
X118430000Y-72761904D01*
X118477619Y-72714285D01*
X118572857Y-72666666D01*
X118715714Y-72666666D01*
X118810952Y-72714285D01*
X118858571Y-72761904D01*
X118906190Y-72857142D01*
X118906190Y-73238095D01*
X118382380Y-71809523D02*
X118382380Y-72000000D01*
X118430000Y-72095238D01*
X118477619Y-72142857D01*
X118620476Y-72238095D01*
X118810952Y-72285714D01*
X119191904Y-72285714D01*
X119287142Y-72238095D01*
X119334761Y-72190476D01*
X119382380Y-72095238D01*
X119382380Y-71904761D01*
X119334761Y-71809523D01*
X119287142Y-71761904D01*
X119191904Y-71714285D01*
X118953809Y-71714285D01*
X118858571Y-71761904D01*
X118810952Y-71809523D01*
X118763333Y-71904761D01*
X118763333Y-72095238D01*
X118810952Y-72190476D01*
X118858571Y-72238095D01*
X118953809Y-72285714D01*
D12*
%TO.C,J2*%
X115085500Y-82772550D02*
X115635500Y-82772550D01*
X115635500Y-90227450D02*
X115085500Y-90227450D01*
X106364500Y-90227450D02*
X106364500Y-82772550D01*
X115635500Y-82772550D02*
X115635500Y-90227450D01*
X108819500Y-90227450D02*
X106364500Y-90227450D01*
X106364500Y-82772550D02*
X108819500Y-82772550D01*
D13*
X112318500Y-82182000D02*
G75*
G03*
X112318500Y-82182000I-100000J0D01*
G01*
D14*
%TO.C,R3*%
X102522500Y-72245276D02*
X102522500Y-72754724D01*
X101477500Y-72245276D02*
X101477500Y-72754724D01*
%TO.C,R1*%
X107745276Y-70022500D02*
X108254724Y-70022500D01*
X107745276Y-68977500D02*
X108254724Y-68977500D01*
%TO.C,XTAL1*%
X116526800Y-76144881D02*
X116526800Y-76855119D01*
X119473200Y-76855119D02*
X119473200Y-76144881D01*
X117897586Y-78328800D02*
X118102414Y-78328800D01*
X118102414Y-74671200D02*
X117897586Y-74671200D01*
%TO.C,J1*%
X89922574Y-78914900D02*
X91985426Y-78914900D01*
X86221600Y-78914900D02*
X87957826Y-78914900D01*
X91985426Y-69085100D02*
X89922574Y-69085100D01*
X87957826Y-69085100D02*
X86221600Y-69085100D01*
X86221600Y-69085100D02*
X86221600Y-78914900D01*
X94076200Y-67307100D02*
G75*
G03*
X94076200Y-67307100I-381000J0D01*
G01*
%TO.C,D1*%
X94715000Y-84735000D02*
X97175000Y-84735000D01*
X94715000Y-83265000D02*
X94715000Y-84735000D01*
X97175000Y-83265000D02*
X94715000Y-83265000D01*
D13*
%TO.C,U2*%
X98800000Y-73980000D02*
X98200000Y-73980000D01*
X96650000Y-71000000D02*
X97850000Y-71000000D01*
X98200000Y-71020000D02*
X98800000Y-71020000D01*
X98800000Y-71020000D02*
X98800000Y-73980000D01*
X98200000Y-73980000D02*
X98200000Y-71020000D01*
D14*
%TO.C,C4*%
X97353733Y-76010000D02*
X97646267Y-76010000D01*
X97353733Y-74990000D02*
X97646267Y-74990000D01*
%TO.C,D2*%
X114765000Y-69700000D02*
X114765000Y-72160000D01*
X114765000Y-72160000D02*
X116235000Y-72160000D01*
X116235000Y-72160000D02*
X116235000Y-69700000D01*
%TO.C,R2*%
X111745276Y-70022500D02*
X112254724Y-70022500D01*
X111745276Y-68977500D02*
X112254724Y-68977500D01*
%TO.C,J4*%
X88900000Y-79940000D02*
X88900000Y-80140000D01*
X87440000Y-82750000D02*
X88050000Y-82750000D01*
X87440000Y-84860000D02*
X93560000Y-84860000D01*
X93560000Y-82750000D02*
X92950000Y-82750000D01*
X87440000Y-81450000D02*
X88050000Y-81450000D01*
X93560000Y-84860000D02*
X93560000Y-80140000D01*
X90000000Y-80750000D02*
X88050000Y-80750000D01*
X90400000Y-84250000D02*
X90400000Y-83750000D01*
X89200000Y-80140000D02*
X89200000Y-79940000D01*
X90500000Y-84250000D02*
X90500000Y-83750000D01*
X92950000Y-84250000D02*
X92950000Y-80750000D01*
X87140000Y-79840000D02*
X87140000Y-81090000D01*
X87440000Y-80140000D02*
X87440000Y-84860000D01*
X90600000Y-83750000D02*
X90600000Y-84250000D01*
X90000000Y-80140000D02*
X90000000Y-80750000D01*
X90400000Y-83750000D02*
X90600000Y-83750000D01*
X88390000Y-79840000D02*
X87140000Y-79840000D01*
X91000000Y-80750000D02*
X91000000Y-80140000D01*
X93560000Y-80140000D02*
X87440000Y-80140000D01*
X93560000Y-81450000D02*
X92950000Y-81450000D01*
X89200000Y-79940000D02*
X88900000Y-79940000D01*
X88050000Y-84250000D02*
X92950000Y-84250000D01*
X88050000Y-80750000D02*
X88050000Y-84250000D01*
X92950000Y-80750000D02*
X91000000Y-80750000D01*
X89200000Y-80040000D02*
X88900000Y-80040000D01*
%TO.C,U1*%
G36*
X103422901Y-75924701D02*
G01*
X103168901Y-75924701D01*
X103168901Y-75543700D01*
X103422901Y-75543700D01*
X103422901Y-75924701D01*
G37*
D15*
X103422901Y-75924701D02*
X103168901Y-75924701D01*
X103168901Y-75543700D01*
X103422901Y-75543700D01*
X103422901Y-75924701D01*
G36*
X107964299Y-70883301D02*
G01*
X107583299Y-70883301D01*
X107583299Y-70629301D01*
X107964299Y-70629301D01*
X107964299Y-70883301D01*
G37*
X107964299Y-70883301D02*
X107583299Y-70883301D01*
X107583299Y-70629301D01*
X107964299Y-70629301D01*
X107964299Y-70883301D01*
G36*
X107464300Y-81339099D02*
G01*
X107083300Y-81339099D01*
X107083300Y-81085099D01*
X107464300Y-81085099D01*
X107464300Y-81339099D01*
G37*
X107464300Y-81339099D02*
X107083300Y-81339099D01*
X107083300Y-81085099D01*
X107464300Y-81085099D01*
X107464300Y-81339099D01*
G36*
X113878699Y-74424701D02*
G01*
X113624699Y-74424701D01*
X113624699Y-74043701D01*
X113878699Y-74043701D01*
X113878699Y-74424701D01*
G37*
X113878699Y-74424701D02*
X113624699Y-74424701D01*
X113624699Y-74043701D01*
X113878699Y-74043701D01*
X113878699Y-74424701D01*
D14*
X113950901Y-78734200D02*
G75*
G03*
X113950901Y-78734200I-76200J0D01*
G01*
X112244900Y-79705300D02*
X112244900Y-79219340D01*
X112244900Y-72263100D02*
X111758940Y-72263100D01*
X112244900Y-72749060D02*
X112244900Y-72263100D01*
X104802700Y-79705300D02*
X105288660Y-79705300D01*
X111758940Y-79705300D02*
X112244900Y-79705300D01*
X105288660Y-72263100D02*
X104802700Y-72263100D01*
X104802700Y-79219340D02*
X104802700Y-79705300D01*
X104802700Y-72263100D02*
X104802700Y-72749060D01*
%TO.C,R4*%
X101254724Y-76022500D02*
X100745276Y-76022500D01*
X101254724Y-74977500D02*
X100745276Y-74977500D01*
%TO.C,C1*%
X115353733Y-79990000D02*
X115646267Y-79990000D01*
X115353733Y-81010000D02*
X115646267Y-81010000D01*
%TO.C,C5*%
X101146267Y-70010000D02*
X100853733Y-70010000D01*
X101146267Y-68990000D02*
X100853733Y-68990000D01*
%TO.C,R5*%
X101022500Y-80245276D02*
X101022500Y-80754724D01*
X99977500Y-80245276D02*
X99977500Y-80754724D01*
%TO.C,Q1*%
X95940000Y-80000000D02*
X95940000Y-80650000D01*
X99060000Y-80000000D02*
X99060000Y-78325000D01*
X99060000Y-80000000D02*
X99060000Y-80650000D01*
X95940000Y-80000000D02*
X95940000Y-79350000D01*
%TO.C,J3*%
X94140000Y-85840000D02*
X94140000Y-87090000D01*
X99600000Y-89750000D02*
X99600000Y-90250000D01*
X103950000Y-86750000D02*
X102000000Y-86750000D01*
X96200000Y-85940000D02*
X95900000Y-85940000D01*
X99400000Y-90250000D02*
X99400000Y-89750000D01*
X97500000Y-90250000D02*
X97500000Y-89750000D01*
X96200000Y-86040000D02*
X95900000Y-86040000D01*
X95900000Y-85940000D02*
X95900000Y-86140000D01*
X99400000Y-89750000D02*
X99600000Y-89750000D01*
X101400000Y-90250000D02*
X101400000Y-89750000D01*
X102000000Y-86750000D02*
X102000000Y-86140000D01*
X104560000Y-86140000D02*
X94440000Y-86140000D01*
X96200000Y-86140000D02*
X96200000Y-85940000D01*
X104560000Y-87450000D02*
X103950000Y-87450000D01*
X95050000Y-90250000D02*
X103950000Y-90250000D01*
X95390000Y-85840000D02*
X94140000Y-85840000D01*
X103950000Y-90250000D02*
X103950000Y-86750000D01*
X97400000Y-90250000D02*
X97400000Y-89750000D01*
X104560000Y-88750000D02*
X103950000Y-88750000D01*
X94440000Y-86140000D02*
X94440000Y-90860000D01*
X97600000Y-89750000D02*
X97600000Y-90250000D01*
X94440000Y-87450000D02*
X95050000Y-87450000D01*
X99500000Y-90250000D02*
X99500000Y-89750000D01*
X94440000Y-88750000D02*
X95050000Y-88750000D01*
X97000000Y-86750000D02*
X95050000Y-86750000D01*
X97400000Y-89750000D02*
X97600000Y-89750000D01*
X101400000Y-89750000D02*
X101600000Y-89750000D01*
X97000000Y-86140000D02*
X97000000Y-86750000D01*
X101600000Y-89750000D02*
X101600000Y-90250000D01*
X104560000Y-90860000D02*
X104560000Y-86140000D01*
X95050000Y-86750000D02*
X95050000Y-90250000D01*
X94440000Y-90860000D02*
X104560000Y-90860000D01*
X101500000Y-90250000D02*
X101500000Y-89750000D01*
%TO.C,R6*%
X118022500Y-72245276D02*
X118022500Y-72754724D01*
X116977500Y-72245276D02*
X116977500Y-72754724D01*
%TD*%
M02*
