M48
; DRILL file {KiCad (6.0.7)} date Mon Sep 26 20:51:04 2022
; FORMAT={-:-/ absolute / inch / decimal}
; #@! TF.CreationDate,2022-09-26T20:51:04-04:00
; #@! TF.GenerationSoftware,Kicad,Pcbnew,(6.0.7)
; #@! TF.FileFunction,MixedPlating,1,2
FMAT,2
INCH
; #@! TA.AperFunction,Plated,PTH,ViaDrill
T1C0.0079
; #@! TA.AperFunction,Plated,PTH,ComponentDrill
T2C0.0260
; #@! TA.AperFunction,Plated,PTH,ComponentDrill
T3C0.0295
; #@! TA.AperFunction,NonPlated,NPTH,ComponentDrill
T4C0.0240
; #@! TA.AperFunction,NonPlated,NPTH,ComponentDrill
T5C0.0420
; #@! TA.AperFunction,NonPlated,NPTH,ComponentDrill
T6C0.0965
%
G90
G05
T1
X3.7275Y-2.8615
X3.7336Y-3.0079
X3.8706Y-3.0081
X3.9745Y-3.0765
X4.066Y-2.8832
X4.1452Y-3.0998
X4.2345Y-2.8635
X4.3404Y-2.7847
X4.3731Y-3.1986
X4.3829Y-3.1143
X4.4247Y-3.1216
X4.5525Y-3.1981
T2
X3.6465Y-2.7996
X3.6465Y-3.0272
T3
X3.5236Y-3.2264
X3.6024Y-3.2264
X3.7992Y-3.4626
X3.878Y-3.4626
X3.9567Y-3.4626
X4.0354Y-3.4626
T4
X3.4861Y-2.7433
X3.4861Y-3.0835
X3.5171Y-2.7433
X3.5171Y-3.0835
X3.6446Y-2.7433
X3.6446Y-3.0835
X3.6876Y-2.7433
X3.6876Y-3.0835
T5
X4.2701Y-3.3655
X4.2701Y-3.4455
X4.4701Y-3.4055
T6
X4.3451Y-3.3055
X4.3451Y-3.5055
X4.4701Y-3.3055
X4.4701Y-3.5055
T0
M30
