%TF.GenerationSoftware,KiCad,Pcbnew,(6.0.7)*%
%TF.CreationDate,2022-09-26T20:50:42-04:00*%
%TF.ProjectId,STM32G4_USB_PD,53544d33-3247-4345-9f55-53425f50442e,rev?*%
%TF.SameCoordinates,Original*%
%TF.FileFunction,Copper,L2,Bot*%
%TF.FilePolarity,Positive*%
%FSLAX46Y46*%
G04 Gerber Fmt 4.6, Leading zero omitted, Abs format (unit mm)*
G04 Created by KiCad (PCBNEW (6.0.7)) date 2022-09-26 20:50:42*
%MOMM*%
%LPD*%
G01*
G04 APERTURE LIST*
G04 Aperture macros list*
%AMRoundRect*
0 Rectangle with rounded corners*
0 $1 Rounding radius*
0 $2 $3 $4 $5 $6 $7 $8 $9 X,Y pos of 4 corners*
0 Add a 4 corners polygon primitive as box body*
4,1,4,$2,$3,$4,$5,$6,$7,$8,$9,$2,$3,0*
0 Add four circle primitives for the rounded corners*
1,1,$1+$1,$2,$3*
1,1,$1+$1,$4,$5*
1,1,$1+$1,$6,$7*
1,1,$1+$1,$8,$9*
0 Add four rect primitives between the rounded corners*
20,1,$1+$1,$2,$3,$4,$5,0*
20,1,$1+$1,$4,$5,$6,$7,0*
20,1,$1+$1,$6,$7,$8,$9,0*
20,1,$1+$1,$8,$9,$2,$3,0*%
G04 Aperture macros list end*
%TA.AperFunction,ComponentPad*%
%ADD10C,0.660400*%
%TD*%
%TA.AperFunction,ComponentPad*%
%ADD11RoundRect,0.250000X-0.350000X-0.625000X0.350000X-0.625000X0.350000X0.625000X-0.350000X0.625000X0*%
%TD*%
%TA.AperFunction,ComponentPad*%
%ADD12O,1.200000X1.750000*%
%TD*%
%TA.AperFunction,ViaPad*%
%ADD13C,0.400000*%
%TD*%
%TA.AperFunction,Conductor*%
%ADD14C,0.200000*%
%TD*%
%TA.AperFunction,Conductor*%
%ADD15C,0.400000*%
%TD*%
G04 APERTURE END LIST*
D10*
%TO.P,J1,17*%
%TO.N,N/C*%
X92620201Y-71110001D03*
%TO.P,J1,18*%
X92620201Y-76889999D03*
%TD*%
D11*
%TO.P,J4,1,Pin_1*%
%TO.N,Net-(J4-Pad1)*%
X89500000Y-81950000D03*
D12*
%TO.P,J4,2,Pin_2*%
%TO.N,V_USB*%
X91500000Y-81950000D03*
%TD*%
D11*
%TO.P,J3,1,Pin_1*%
%TO.N,V_USB*%
X96500000Y-87950000D03*
D12*
%TO.P,J3,2,Pin_2*%
%TO.N,unconnected-(J3-Pad2)*%
X98500000Y-87950000D03*
%TO.P,J3,3,Pin_3*%
%TO.N,USART2_RX*%
X100500000Y-87950000D03*
%TO.P,J3,4,Pin_4*%
%TO.N,GND*%
X102500000Y-87950000D03*
%TD*%
D13*
%TO.N,GND*%
X111075800Y-81243900D03*
X115633400Y-81230800D03*
%TO.N,V_USB*%
X94833400Y-76400000D03*
%TO.N,+3.3V*%
X111325200Y-79103000D03*
X105287200Y-78734200D03*
X112387500Y-79288900D03*
X107555200Y-72733900D03*
%TO.N,USB_CC1*%
X94677300Y-72681300D03*
X98314500Y-76406000D03*
%TO.N,USART2_RX*%
X103275800Y-73234200D03*
%TO.N,MOTOR_PWM*%
X100951200Y-78142800D03*
X110247300Y-70731500D03*
%TD*%
D14*
%TO.N,GND*%
X111075800Y-81243900D02*
X115620300Y-81243900D01*
X103400300Y-87637500D02*
X109793900Y-81243900D01*
X115620300Y-81243900D02*
X115633400Y-81230800D01*
X102500000Y-87950000D02*
X103400300Y-87950000D01*
X103400300Y-87950000D02*
X103400300Y-87637500D01*
X109793900Y-81243900D02*
X111075800Y-81243900D01*
D15*
%TO.N,V_USB*%
X94833400Y-79616900D02*
X94833400Y-76400000D01*
X92500300Y-81950000D02*
X94833400Y-79616900D01*
X91500000Y-81950000D02*
X92500300Y-81950000D01*
D14*
%TO.N,+3.3V*%
X108806000Y-76583800D02*
X111325200Y-79103000D01*
X111325200Y-79103000D02*
X111511100Y-79288900D01*
X107555200Y-76583800D02*
X107437600Y-76583800D01*
X107437600Y-76583800D02*
X105287200Y-78734200D01*
X111511100Y-79288900D02*
X112387500Y-79288900D01*
X107555200Y-76583800D02*
X108806000Y-76583800D01*
X107555200Y-72733900D02*
X107555200Y-76583800D01*
%TO.N,USB_CC1*%
X98314500Y-76318500D02*
X94677300Y-72681300D01*
X98314500Y-76406000D02*
X98314500Y-76318500D01*
%TO.N,USART2_RX*%
X100500000Y-87950000D02*
X100500000Y-86774700D01*
X100426600Y-76083400D02*
X103275800Y-73234200D01*
X100500000Y-86774700D02*
X100426600Y-86701300D01*
X100426600Y-86701300D02*
X100426600Y-76083400D01*
%TO.N,MOTOR_PWM*%
X110247300Y-70731500D02*
X108362500Y-70731500D01*
X108362500Y-70731500D02*
X100951200Y-78142800D01*
%TD*%
%TA.AperFunction,Conductor*%
%TO.N,GND*%
G36*
X119433621Y-68028502D02*
G01*
X119480114Y-68082158D01*
X119491500Y-68134500D01*
X119491500Y-90865500D01*
X119471498Y-90933621D01*
X119417842Y-90980114D01*
X119365500Y-90991500D01*
X114440500Y-90991500D01*
X114372379Y-90971498D01*
X114325886Y-90917842D01*
X114314500Y-90865500D01*
X114314500Y-90668324D01*
X114334502Y-90600203D01*
X114376645Y-90559703D01*
X114451905Y-90515460D01*
X114532530Y-90468063D01*
X114536241Y-90465042D01*
X114536245Y-90465039D01*
X114733408Y-90304523D01*
X114737120Y-90301501D01*
X114740329Y-90297956D01*
X114740334Y-90297951D01*
X114910945Y-90109461D01*
X114914161Y-90105908D01*
X115059580Y-89885787D01*
X115125724Y-89742311D01*
X115168024Y-89650555D01*
X115168025Y-89650552D01*
X115170030Y-89646203D01*
X115242969Y-89392668D01*
X115250123Y-89337213D01*
X115276109Y-89135755D01*
X115276109Y-89135754D01*
X115276720Y-89131018D01*
X115272167Y-88937847D01*
X115270617Y-88872053D01*
X115270617Y-88872048D01*
X115270504Y-88867273D01*
X115242010Y-88706497D01*
X115225300Y-88612207D01*
X115225299Y-88612203D01*
X115224466Y-88607503D01*
X115201981Y-88541263D01*
X115148222Y-88382895D01*
X115139664Y-88357685D01*
X115018051Y-88123570D01*
X114862424Y-87910543D01*
X114676366Y-87723508D01*
X114539144Y-87622154D01*
X114468008Y-87569612D01*
X114468004Y-87569610D01*
X114464157Y-87566768D01*
X114400867Y-87533469D01*
X114278149Y-87468904D01*
X114227176Y-87419485D01*
X114211013Y-87350353D01*
X114234792Y-87283456D01*
X114257179Y-87259754D01*
X114273005Y-87246846D01*
X114277782Y-87242950D01*
X114283089Y-87236535D01*
X114404108Y-87090248D01*
X114404110Y-87090245D01*
X114408037Y-87085498D01*
X114505229Y-86905745D01*
X114547730Y-86768448D01*
X114563834Y-86716424D01*
X114563835Y-86716421D01*
X114565656Y-86710537D01*
X114567488Y-86693112D01*
X114586372Y-86513438D01*
X114586372Y-86513437D01*
X114587016Y-86507310D01*
X114572782Y-86350900D01*
X114569055Y-86309943D01*
X114569054Y-86309940D01*
X114568496Y-86303804D01*
X114510800Y-86107771D01*
X114416127Y-85926678D01*
X114288083Y-85767423D01*
X114256578Y-85740987D01*
X114217252Y-85681880D01*
X114216124Y-85610892D01*
X114253555Y-85550564D01*
X114290876Y-85527437D01*
X114300651Y-85523537D01*
X114305100Y-85521762D01*
X114532530Y-85388063D01*
X114536241Y-85385042D01*
X114536245Y-85385039D01*
X114733408Y-85224523D01*
X114737120Y-85221501D01*
X114740329Y-85217956D01*
X114740334Y-85217951D01*
X114910945Y-85029461D01*
X114914161Y-85025908D01*
X115059580Y-84805787D01*
X115089425Y-84741050D01*
X115168024Y-84570555D01*
X115168025Y-84570552D01*
X115170030Y-84566203D01*
X115242969Y-84312668D01*
X115276720Y-84051018D01*
X115270504Y-83787273D01*
X115238614Y-83607332D01*
X115225300Y-83532207D01*
X115225299Y-83532203D01*
X115224466Y-83527503D01*
X115139664Y-83277685D01*
X115018051Y-83043570D01*
X114862424Y-82830543D01*
X114676366Y-82643508D01*
X114468074Y-82489661D01*
X114468008Y-82489612D01*
X114468004Y-82489610D01*
X114464157Y-82486768D01*
X114436326Y-82472125D01*
X114381832Y-82443454D01*
X114330859Y-82394034D01*
X114314500Y-82331946D01*
X114314500Y-81882000D01*
X112765500Y-81882000D01*
X112765500Y-82331676D01*
X112745498Y-82399797D01*
X112703355Y-82440297D01*
X112547470Y-82531937D01*
X112543759Y-82534958D01*
X112543755Y-82534961D01*
X112406258Y-82646901D01*
X112342880Y-82698499D01*
X112339671Y-82702044D01*
X112339666Y-82702049D01*
X112169558Y-82889983D01*
X112165839Y-82894092D01*
X112163198Y-82898090D01*
X112163197Y-82898091D01*
X112059793Y-83054614D01*
X112005555Y-83100427D01*
X111935160Y-83109643D01*
X111870956Y-83079338D01*
X111847574Y-83051554D01*
X111845256Y-83047815D01*
X111843051Y-83043570D01*
X111840233Y-83039712D01*
X111840231Y-83039709D01*
X111690245Y-82834405D01*
X111687424Y-82830543D01*
X111501366Y-82643508D01*
X111293074Y-82489661D01*
X111293008Y-82489612D01*
X111293004Y-82489610D01*
X111289157Y-82486768D01*
X111261326Y-82472125D01*
X111206832Y-82443454D01*
X111155859Y-82394034D01*
X111139500Y-82331946D01*
X111139500Y-81882000D01*
X109590500Y-81882000D01*
X109590500Y-82331676D01*
X109570498Y-82399797D01*
X109528355Y-82440297D01*
X109372470Y-82531937D01*
X109368759Y-82534958D01*
X109368755Y-82534961D01*
X109231258Y-82646901D01*
X109167880Y-82698499D01*
X109164671Y-82702044D01*
X109164666Y-82702049D01*
X108994558Y-82889983D01*
X108990839Y-82894092D01*
X108988198Y-82898090D01*
X108988197Y-82898091D01*
X108980254Y-82910115D01*
X108845420Y-83114213D01*
X108843419Y-83118553D01*
X108843417Y-83118557D01*
X108742615Y-83337213D01*
X108734970Y-83353797D01*
X108662031Y-83607332D01*
X108628280Y-83868982D01*
X108634496Y-84132727D01*
X108635330Y-84137432D01*
X108663350Y-84295535D01*
X108655542Y-84366101D01*
X108610823Y-84421244D01*
X108543391Y-84443456D01*
X108525233Y-84442737D01*
X108522166Y-84442393D01*
X108522163Y-84442393D01*
X108518661Y-84442000D01*
X108408578Y-84442000D01*
X108405523Y-84442300D01*
X108405514Y-84442300D01*
X108335725Y-84449143D01*
X108256628Y-84456899D01*
X108250729Y-84458680D01*
X108250724Y-84458681D01*
X108134876Y-84493658D01*
X108061003Y-84515961D01*
X108055562Y-84518854D01*
X107886022Y-84609000D01*
X107886020Y-84609002D01*
X107880576Y-84611896D01*
X107875797Y-84615794D01*
X107726993Y-84737155D01*
X107726990Y-84737158D01*
X107722218Y-84741050D01*
X107718291Y-84745797D01*
X107718289Y-84745799D01*
X107595892Y-84893752D01*
X107595890Y-84893755D01*
X107591963Y-84898502D01*
X107494771Y-85078255D01*
X107434344Y-85273463D01*
X107433700Y-85279588D01*
X107433700Y-85279589D01*
X107417552Y-85433232D01*
X107412984Y-85476690D01*
X107416865Y-85519334D01*
X107427489Y-85636072D01*
X107431504Y-85680196D01*
X107489200Y-85876229D01*
X107583873Y-86057322D01*
X107711917Y-86216577D01*
X107868456Y-86347928D01*
X107873852Y-86350894D01*
X107873860Y-86350900D01*
X107943880Y-86389394D01*
X107993939Y-86439739D01*
X108008832Y-86509156D01*
X107983831Y-86575605D01*
X107942333Y-86611059D01*
X107886022Y-86641000D01*
X107886020Y-86641002D01*
X107880576Y-86643896D01*
X107853486Y-86665990D01*
X107726993Y-86769155D01*
X107726990Y-86769158D01*
X107722218Y-86773050D01*
X107718291Y-86777797D01*
X107718289Y-86777799D01*
X107595892Y-86925752D01*
X107595890Y-86925755D01*
X107591963Y-86930502D01*
X107494771Y-87110255D01*
X107492949Y-87116142D01*
X107443898Y-87274600D01*
X107434344Y-87305463D01*
X107433700Y-87311588D01*
X107433700Y-87311589D01*
X107418137Y-87459658D01*
X107412984Y-87508690D01*
X107415239Y-87533469D01*
X107428382Y-87677885D01*
X107431504Y-87712196D01*
X107489200Y-87908229D01*
X107583873Y-88089322D01*
X107711917Y-88248577D01*
X107868456Y-88379928D01*
X107873848Y-88382892D01*
X107873852Y-88382895D01*
X108024294Y-88465601D01*
X108047526Y-88478373D01*
X108053393Y-88480234D01*
X108053395Y-88480235D01*
X108144917Y-88509268D01*
X108242308Y-88540162D01*
X108401339Y-88558000D01*
X108511422Y-88558000D01*
X108514486Y-88557700D01*
X108514498Y-88557699D01*
X108523354Y-88556831D01*
X108593101Y-88570093D01*
X108644606Y-88618957D01*
X108661517Y-88687911D01*
X108660611Y-88698344D01*
X108628280Y-88948982D01*
X108631667Y-89092700D01*
X108633469Y-89169134D01*
X108634496Y-89212727D01*
X108643454Y-89263275D01*
X108667201Y-89397263D01*
X108680534Y-89472497D01*
X108765336Y-89722315D01*
X108886949Y-89956430D01*
X109042576Y-90169457D01*
X109228634Y-90356492D01*
X109334738Y-90434862D01*
X109436992Y-90510388D01*
X109436996Y-90510390D01*
X109440843Y-90513232D01*
X109445078Y-90515460D01*
X109523168Y-90556546D01*
X109574141Y-90605966D01*
X109590500Y-90668054D01*
X109590500Y-90865500D01*
X109570498Y-90933621D01*
X109516842Y-90980114D01*
X109464500Y-90991500D01*
X86634500Y-90991500D01*
X86566379Y-90971498D01*
X86519886Y-90917842D01*
X86508500Y-90865500D01*
X86508500Y-88625400D01*
X95391500Y-88625400D01*
X95402474Y-88731166D01*
X95458450Y-88898946D01*
X95551522Y-89049348D01*
X95676697Y-89174305D01*
X95682927Y-89178145D01*
X95682928Y-89178146D01*
X95820090Y-89262694D01*
X95827262Y-89267115D01*
X95863942Y-89279281D01*
X95988611Y-89320632D01*
X95988613Y-89320632D01*
X95995139Y-89322797D01*
X96001975Y-89323497D01*
X96001978Y-89323498D01*
X96040386Y-89327433D01*
X96099600Y-89333500D01*
X96900400Y-89333500D01*
X96903646Y-89333163D01*
X96903650Y-89333163D01*
X96999308Y-89323238D01*
X96999312Y-89323237D01*
X97006166Y-89322526D01*
X97012702Y-89320345D01*
X97012704Y-89320345D01*
X97148867Y-89274917D01*
X97173946Y-89266550D01*
X97324348Y-89173478D01*
X97449305Y-89048303D01*
X97481075Y-88996764D01*
X97533846Y-88949271D01*
X97603918Y-88937847D01*
X97669042Y-88966121D01*
X97687418Y-88985045D01*
X97693604Y-88992920D01*
X97698135Y-88996852D01*
X97698138Y-88996855D01*
X97783620Y-89071032D01*
X97853363Y-89131552D01*
X97858549Y-89134552D01*
X97858553Y-89134555D01*
X97954957Y-89190326D01*
X98036454Y-89237473D01*
X98236271Y-89306861D01*
X98242206Y-89307722D01*
X98242208Y-89307722D01*
X98439664Y-89336352D01*
X98439667Y-89336352D01*
X98445604Y-89337213D01*
X98656899Y-89327433D01*
X98788077Y-89295819D01*
X98856701Y-89279281D01*
X98856703Y-89279280D01*
X98862534Y-89277875D01*
X98867992Y-89275393D01*
X98867996Y-89275392D01*
X99016332Y-89207947D01*
X99055087Y-89190326D01*
X99227611Y-89067946D01*
X99373881Y-88915150D01*
X99385124Y-88897738D01*
X99394746Y-88882837D01*
X99448501Y-88836460D01*
X99518797Y-88826507D01*
X99583314Y-88856139D01*
X99599681Y-88873351D01*
X99693604Y-88992920D01*
X99698135Y-88996852D01*
X99698138Y-88996855D01*
X99783620Y-89071032D01*
X99853363Y-89131552D01*
X99858549Y-89134552D01*
X99858553Y-89134555D01*
X99954957Y-89190326D01*
X100036454Y-89237473D01*
X100236271Y-89306861D01*
X100242206Y-89307722D01*
X100242208Y-89307722D01*
X100439664Y-89336352D01*
X100439667Y-89336352D01*
X100445604Y-89337213D01*
X100656899Y-89327433D01*
X100788077Y-89295819D01*
X100856701Y-89279281D01*
X100856703Y-89279280D01*
X100862534Y-89277875D01*
X100867992Y-89275393D01*
X100867996Y-89275392D01*
X101016332Y-89207947D01*
X101055087Y-89190326D01*
X101227611Y-89067946D01*
X101373881Y-88915150D01*
X101377130Y-88910119D01*
X101377135Y-88910112D01*
X101395033Y-88882393D01*
X101448789Y-88836016D01*
X101519085Y-88826063D01*
X101583602Y-88855696D01*
X101599970Y-88872909D01*
X101690262Y-88987857D01*
X101698499Y-88996506D01*
X101849123Y-89127212D01*
X101858847Y-89134147D01*
X102031467Y-89234010D01*
X102042331Y-89238984D01*
X102230727Y-89304407D01*
X102231716Y-89304648D01*
X102242008Y-89303180D01*
X102246000Y-89289615D01*
X102246000Y-89285402D01*
X102754000Y-89285402D01*
X102757973Y-89298933D01*
X102767399Y-89300288D01*
X102856537Y-89278806D01*
X102867832Y-89274917D01*
X103049382Y-89192371D01*
X103059724Y-89186424D01*
X103222397Y-89071032D01*
X103231425Y-89063239D01*
X103369342Y-88919169D01*
X103376738Y-88909804D01*
X103484921Y-88742259D01*
X103490417Y-88731655D01*
X103564961Y-88546688D01*
X103568355Y-88535230D01*
X103606857Y-88338072D01*
X103607934Y-88329209D01*
X103608000Y-88326500D01*
X103608000Y-88222115D01*
X103603525Y-88206876D01*
X103602135Y-88205671D01*
X103594452Y-88204000D01*
X102772115Y-88204000D01*
X102756876Y-88208475D01*
X102755671Y-88209865D01*
X102754000Y-88217548D01*
X102754000Y-89285402D01*
X102246000Y-89285402D01*
X102246000Y-87677885D01*
X102754000Y-87677885D01*
X102758475Y-87693124D01*
X102759865Y-87694329D01*
X102767548Y-87696000D01*
X103589885Y-87696000D01*
X103605124Y-87691525D01*
X103606329Y-87690135D01*
X103608000Y-87682452D01*
X103608000Y-87625168D01*
X103607715Y-87619192D01*
X103593529Y-87470506D01*
X103591270Y-87458772D01*
X103535128Y-87267401D01*
X103530698Y-87256325D01*
X103439381Y-87079022D01*
X103432931Y-87068976D01*
X103309738Y-86912143D01*
X103301501Y-86903494D01*
X103150877Y-86772788D01*
X103141153Y-86765853D01*
X102968533Y-86665990D01*
X102957669Y-86661016D01*
X102769273Y-86595593D01*
X102768284Y-86595352D01*
X102757992Y-86596820D01*
X102754000Y-86610385D01*
X102754000Y-87677885D01*
X102246000Y-87677885D01*
X102246000Y-86614598D01*
X102242027Y-86601067D01*
X102232601Y-86599712D01*
X102143463Y-86621194D01*
X102132168Y-86625083D01*
X101950618Y-86707629D01*
X101940276Y-86713576D01*
X101777603Y-86828968D01*
X101768575Y-86836761D01*
X101630658Y-86980831D01*
X101623259Y-86990200D01*
X101605582Y-87017577D01*
X101551828Y-87063955D01*
X101481532Y-87073909D01*
X101417015Y-87044278D01*
X101400644Y-87027063D01*
X101392867Y-87017163D01*
X101306396Y-86907080D01*
X101301865Y-86903148D01*
X101301862Y-86903145D01*
X101146637Y-86768448D01*
X101148078Y-86766788D01*
X101110286Y-86718632D01*
X101102385Y-86688366D01*
X101094777Y-86630581D01*
X101092838Y-86615850D01*
X101044691Y-86499613D01*
X101035100Y-86451395D01*
X101035100Y-78950869D01*
X101055102Y-78882748D01*
X101108758Y-78836255D01*
X101132971Y-78828049D01*
X101177349Y-78817885D01*
X101192959Y-78814310D01*
X101346158Y-78737259D01*
X101351929Y-78732330D01*
X101351932Y-78732328D01*
X101470778Y-78630823D01*
X101476555Y-78625889D01*
X101576624Y-78486630D01*
X101640094Y-78328740D01*
X101667907Y-78286642D01*
X106731605Y-73222944D01*
X106793917Y-73188918D01*
X106864732Y-73193983D01*
X106921568Y-73236530D01*
X106946379Y-73303050D01*
X106946700Y-73312039D01*
X106946700Y-76161961D01*
X106926698Y-76230082D01*
X106909795Y-76251056D01*
X105138783Y-78022068D01*
X105079102Y-78055492D01*
X105045802Y-78063486D01*
X105045798Y-78063487D01*
X105038423Y-78065258D01*
X104886039Y-78143909D01*
X104756815Y-78256639D01*
X104658210Y-78396939D01*
X104647446Y-78424548D01*
X104615341Y-78506893D01*
X104595918Y-78556709D01*
X104594926Y-78564242D01*
X104594926Y-78564243D01*
X104579847Y-78678783D01*
X104573535Y-78726726D01*
X104574369Y-78734276D01*
X104590241Y-78878042D01*
X104592353Y-78897175D01*
X104594962Y-78904306D01*
X104594963Y-78904308D01*
X104611398Y-78949219D01*
X104651285Y-79058215D01*
X104655522Y-79064521D01*
X104655524Y-79064524D01*
X104687242Y-79111724D01*
X104746930Y-79200549D01*
X104801940Y-79250604D01*
X104848569Y-79293033D01*
X104873765Y-79315960D01*
X105024468Y-79397785D01*
X105190339Y-79441301D01*
X105277786Y-79442674D01*
X105354203Y-79443875D01*
X105354206Y-79443875D01*
X105361802Y-79443994D01*
X105369206Y-79442298D01*
X105369208Y-79442298D01*
X105435936Y-79427015D01*
X105528959Y-79405710D01*
X105682158Y-79328659D01*
X105687929Y-79323730D01*
X105687932Y-79323728D01*
X105806778Y-79222223D01*
X105812555Y-79217289D01*
X105912624Y-79078030D01*
X105976094Y-78920140D01*
X106003907Y-78878042D01*
X107652744Y-77229205D01*
X107715056Y-77195179D01*
X107741839Y-77192300D01*
X108501761Y-77192300D01*
X108569882Y-77212302D01*
X108590856Y-77229205D01*
X110612255Y-79250604D01*
X110641486Y-79296398D01*
X110653292Y-79328659D01*
X110689285Y-79427015D01*
X110693522Y-79433321D01*
X110693524Y-79433324D01*
X110720602Y-79473620D01*
X110784930Y-79569349D01*
X110790546Y-79574459D01*
X110894641Y-79669178D01*
X110911765Y-79684760D01*
X111062468Y-79766585D01*
X111069810Y-79768511D01*
X111069812Y-79768512D01*
X111146681Y-79788678D01*
X111191410Y-79810590D01*
X111204225Y-79820424D01*
X111352250Y-79881738D01*
X111471215Y-79897400D01*
X111471220Y-79897400D01*
X111471229Y-79897401D01*
X111502912Y-79901572D01*
X111511100Y-79902650D01*
X111542793Y-79898478D01*
X111559236Y-79897400D01*
X111991314Y-79897400D01*
X112051436Y-79912669D01*
X112124768Y-79952485D01*
X112290639Y-79996001D01*
X112378086Y-79997374D01*
X112454503Y-79998575D01*
X112454506Y-79998575D01*
X112462102Y-79998694D01*
X112469506Y-79996998D01*
X112469508Y-79996998D01*
X112554867Y-79977448D01*
X112629259Y-79960410D01*
X112782458Y-79883359D01*
X112788229Y-79878430D01*
X112788232Y-79878428D01*
X112907078Y-79776923D01*
X112912855Y-79771989D01*
X113012924Y-79632730D01*
X113076885Y-79473620D01*
X113087678Y-79397785D01*
X113100466Y-79307931D01*
X113100466Y-79307927D01*
X113101047Y-79303847D01*
X113101204Y-79288900D01*
X113082374Y-79133300D01*
X113081515Y-79126199D01*
X113081514Y-79126196D01*
X113080602Y-79118658D01*
X113065941Y-79079857D01*
X113022671Y-78965347D01*
X113019987Y-78958244D01*
X112982098Y-78903115D01*
X112927159Y-78823178D01*
X112927158Y-78823176D01*
X112922857Y-78816919D01*
X112917186Y-78811866D01*
X112800493Y-78707896D01*
X112800490Y-78707894D01*
X112794821Y-78702843D01*
X112643269Y-78622600D01*
X112625696Y-78618186D01*
X112484322Y-78582675D01*
X112484318Y-78582675D01*
X112476951Y-78580824D01*
X112469352Y-78580784D01*
X112469350Y-78580784D01*
X112397894Y-78580410D01*
X112305469Y-78579926D01*
X112298089Y-78581698D01*
X112298087Y-78581698D01*
X112146102Y-78618186D01*
X112146098Y-78618187D01*
X112138723Y-78619958D01*
X112060372Y-78660398D01*
X112048809Y-78666366D01*
X111991019Y-78680400D01*
X111959767Y-78680400D01*
X111891646Y-78660398D01*
X111865255Y-78637727D01*
X111864857Y-78637276D01*
X111860557Y-78631019D01*
X111854799Y-78625889D01*
X111738193Y-78521996D01*
X111738190Y-78521994D01*
X111732521Y-78516943D01*
X111580969Y-78436700D01*
X111532589Y-78424548D01*
X111474188Y-78391439D01*
X109270315Y-76187566D01*
X109259448Y-76175175D01*
X109245013Y-76156363D01*
X109239987Y-76149813D01*
X109208075Y-76125326D01*
X109208072Y-76125323D01*
X109157583Y-76086581D01*
X109119429Y-76057304D01*
X109119427Y-76057303D01*
X109112876Y-76052276D01*
X108964851Y-75990962D01*
X108956664Y-75989884D01*
X108956663Y-75989884D01*
X108937133Y-75987313D01*
X108845893Y-75975301D01*
X108845891Y-75975301D01*
X108845885Y-75975300D01*
X108845883Y-75975300D01*
X108845874Y-75975299D01*
X108814189Y-75971128D01*
X108806000Y-75970050D01*
X108774307Y-75974222D01*
X108757864Y-75975300D01*
X108289700Y-75975300D01*
X108221579Y-75955298D01*
X108175086Y-75901642D01*
X108163700Y-75849300D01*
X108163700Y-73138972D01*
X108178758Y-73080327D01*
X108180624Y-73077730D01*
X108244585Y-72918620D01*
X108268747Y-72748847D01*
X108268904Y-72733900D01*
X108259138Y-72653196D01*
X108249215Y-72571199D01*
X108249214Y-72571196D01*
X108248302Y-72563658D01*
X108234450Y-72526998D01*
X108190371Y-72410347D01*
X108187687Y-72403244D01*
X108156418Y-72357747D01*
X108094859Y-72268178D01*
X108094858Y-72268176D01*
X108090557Y-72261919D01*
X108032232Y-72209953D01*
X107979778Y-72163218D01*
X107942222Y-72102968D01*
X107943203Y-72031978D01*
X107974502Y-71980047D01*
X108577644Y-71376905D01*
X108639956Y-71342879D01*
X108666739Y-71340000D01*
X109851114Y-71340000D01*
X109911236Y-71355269D01*
X109984568Y-71395085D01*
X110150439Y-71438601D01*
X110237886Y-71439974D01*
X110314303Y-71441175D01*
X110314306Y-71441175D01*
X110321902Y-71441294D01*
X110329306Y-71439598D01*
X110329308Y-71439598D01*
X110392146Y-71425206D01*
X110489059Y-71403010D01*
X110642258Y-71325959D01*
X110648029Y-71321030D01*
X110648032Y-71321028D01*
X110766878Y-71219523D01*
X110772655Y-71214589D01*
X110872724Y-71075330D01*
X110936685Y-70916220D01*
X110960847Y-70746447D01*
X110961004Y-70731500D01*
X110940402Y-70561258D01*
X110914575Y-70492907D01*
X110882471Y-70407947D01*
X110879787Y-70400844D01*
X110827760Y-70325144D01*
X110786959Y-70265778D01*
X110786958Y-70265776D01*
X110782657Y-70259519D01*
X110721471Y-70205004D01*
X110660293Y-70150496D01*
X110660290Y-70150494D01*
X110654621Y-70145443D01*
X110503069Y-70065200D01*
X110485496Y-70060786D01*
X110344122Y-70025275D01*
X110344118Y-70025275D01*
X110336751Y-70023424D01*
X110329152Y-70023384D01*
X110329150Y-70023384D01*
X110257694Y-70023010D01*
X110165269Y-70022526D01*
X110157889Y-70024298D01*
X110157887Y-70024298D01*
X110005902Y-70060786D01*
X110005898Y-70060787D01*
X109998523Y-70062558D01*
X109986519Y-70068754D01*
X109908609Y-70108966D01*
X109850819Y-70123000D01*
X108410636Y-70123000D01*
X108394193Y-70121922D01*
X108362500Y-70117750D01*
X108354311Y-70118828D01*
X108322626Y-70122999D01*
X108322617Y-70123000D01*
X108322615Y-70123000D01*
X108322609Y-70123001D01*
X108322607Y-70123001D01*
X108223043Y-70136109D01*
X108211836Y-70137584D01*
X108211834Y-70137585D01*
X108203649Y-70138662D01*
X108055624Y-70199976D01*
X107960428Y-70273023D01*
X107960425Y-70273026D01*
X107928513Y-70297513D01*
X107923483Y-70304068D01*
X107909048Y-70322879D01*
X107898181Y-70335270D01*
X101250195Y-76983256D01*
X101187883Y-77017282D01*
X101117068Y-77012217D01*
X101060232Y-76969670D01*
X101035421Y-76903150D01*
X101035100Y-76894161D01*
X101035100Y-76387639D01*
X101055102Y-76319518D01*
X101072005Y-76298544D01*
X103423545Y-73947004D01*
X103484510Y-73913279D01*
X103510159Y-73907405D01*
X103510161Y-73907404D01*
X103517559Y-73905710D01*
X103670758Y-73828659D01*
X103676529Y-73823730D01*
X103676532Y-73823728D01*
X103795378Y-73722223D01*
X103801155Y-73717289D01*
X103901224Y-73578030D01*
X103965185Y-73418920D01*
X103989347Y-73249147D01*
X103989504Y-73234200D01*
X103973108Y-73098713D01*
X103969815Y-73071499D01*
X103969814Y-73071496D01*
X103968902Y-73063958D01*
X103960353Y-73041332D01*
X103910971Y-72910647D01*
X103908287Y-72903544D01*
X103811157Y-72762219D01*
X103805486Y-72757166D01*
X103688793Y-72653196D01*
X103688790Y-72653194D01*
X103683121Y-72648143D01*
X103675125Y-72643909D01*
X103538281Y-72571454D01*
X103538282Y-72571454D01*
X103531569Y-72567900D01*
X103513996Y-72563486D01*
X103372622Y-72527975D01*
X103372618Y-72527975D01*
X103365251Y-72526124D01*
X103357652Y-72526084D01*
X103357650Y-72526084D01*
X103286194Y-72525710D01*
X103193769Y-72525226D01*
X103186389Y-72526998D01*
X103186387Y-72526998D01*
X103034402Y-72563486D01*
X103034398Y-72563487D01*
X103027023Y-72565258D01*
X102874639Y-72643909D01*
X102745415Y-72756639D01*
X102646810Y-72896939D01*
X102641288Y-72911102D01*
X102588865Y-73045559D01*
X102560567Y-73088884D01*
X100030366Y-75619085D01*
X100017975Y-75629952D01*
X99992613Y-75649413D01*
X99968126Y-75681325D01*
X99968123Y-75681328D01*
X99968117Y-75681336D01*
X99911178Y-75755540D01*
X99895076Y-75776524D01*
X99834636Y-75922439D01*
X99833762Y-75924550D01*
X99832685Y-75932732D01*
X99832684Y-75932735D01*
X99825019Y-75990962D01*
X99818100Y-76043515D01*
X99818100Y-76043520D01*
X99812850Y-76083400D01*
X99813928Y-76091588D01*
X99817022Y-76115090D01*
X99818100Y-76131536D01*
X99818100Y-86653164D01*
X99817022Y-86669607D01*
X99812850Y-86701300D01*
X99815394Y-86720622D01*
X99804455Y-86790768D01*
X99773936Y-86830957D01*
X99772389Y-86832054D01*
X99626119Y-86984850D01*
X99622866Y-86989888D01*
X99605254Y-87017163D01*
X99551499Y-87063540D01*
X99481203Y-87073493D01*
X99416686Y-87043861D01*
X99400317Y-87026647D01*
X99393193Y-87017577D01*
X99306396Y-86907080D01*
X99301865Y-86903148D01*
X99301862Y-86903145D01*
X99151167Y-86772379D01*
X99146637Y-86768448D01*
X99141451Y-86765448D01*
X99141447Y-86765445D01*
X98968742Y-86665533D01*
X98963546Y-86662527D01*
X98763729Y-86593139D01*
X98757794Y-86592278D01*
X98757792Y-86592278D01*
X98560336Y-86563648D01*
X98560333Y-86563648D01*
X98554396Y-86562787D01*
X98343101Y-86572567D01*
X98230466Y-86599712D01*
X98143299Y-86620719D01*
X98143297Y-86620720D01*
X98137466Y-86622125D01*
X98132008Y-86624607D01*
X98132004Y-86624608D01*
X98040990Y-86665990D01*
X97944913Y-86709674D01*
X97772389Y-86832054D01*
X97768248Y-86836380D01*
X97768241Y-86836386D01*
X97681194Y-86927317D01*
X97619639Y-86962694D01*
X97548730Y-86959175D01*
X97490979Y-86917879D01*
X97483032Y-86906491D01*
X97448478Y-86850652D01*
X97323303Y-86725695D01*
X97308263Y-86716424D01*
X97178968Y-86636725D01*
X97178966Y-86636724D01*
X97172738Y-86632885D01*
X97064005Y-86596820D01*
X97011389Y-86579368D01*
X97011387Y-86579368D01*
X97004861Y-86577203D01*
X96998025Y-86576503D01*
X96998022Y-86576502D01*
X96954969Y-86572091D01*
X96900400Y-86566500D01*
X96099600Y-86566500D01*
X96096354Y-86566837D01*
X96096350Y-86566837D01*
X96000692Y-86576762D01*
X96000688Y-86576763D01*
X95993834Y-86577474D01*
X95987298Y-86579655D01*
X95987296Y-86579655D01*
X95893168Y-86611059D01*
X95826054Y-86633450D01*
X95675652Y-86726522D01*
X95550695Y-86851697D01*
X95546855Y-86857927D01*
X95546854Y-86857928D01*
X95491248Y-86948138D01*
X95457885Y-87002262D01*
X95436127Y-87067862D01*
X95415623Y-87129680D01*
X95402203Y-87170139D01*
X95391500Y-87274600D01*
X95391500Y-88625400D01*
X86508500Y-88625400D01*
X86508500Y-82625400D01*
X88391500Y-82625400D01*
X88391837Y-82628646D01*
X88391837Y-82628650D01*
X88399085Y-82698499D01*
X88402474Y-82731166D01*
X88404655Y-82737702D01*
X88404655Y-82737704D01*
X88435135Y-82829064D01*
X88458450Y-82898946D01*
X88551522Y-83049348D01*
X88676697Y-83174305D01*
X88682927Y-83178145D01*
X88682928Y-83178146D01*
X88820090Y-83262694D01*
X88827262Y-83267115D01*
X88907005Y-83293564D01*
X88988611Y-83320632D01*
X88988613Y-83320632D01*
X88995139Y-83322797D01*
X89001975Y-83323497D01*
X89001978Y-83323498D01*
X89040386Y-83327433D01*
X89099600Y-83333500D01*
X89900400Y-83333500D01*
X89903646Y-83333163D01*
X89903650Y-83333163D01*
X89999308Y-83323238D01*
X89999312Y-83323237D01*
X90006166Y-83322526D01*
X90012702Y-83320345D01*
X90012704Y-83320345D01*
X90153294Y-83273440D01*
X90173946Y-83266550D01*
X90324348Y-83173478D01*
X90449305Y-83048303D01*
X90454603Y-83039709D01*
X90481074Y-82996764D01*
X90533846Y-82949271D01*
X90603918Y-82937847D01*
X90669042Y-82966121D01*
X90687418Y-82985045D01*
X90693604Y-82992920D01*
X90698135Y-82996852D01*
X90698138Y-82996855D01*
X90784058Y-83071412D01*
X90853363Y-83131552D01*
X90858549Y-83134552D01*
X90858553Y-83134555D01*
X90954957Y-83190326D01*
X91036454Y-83237473D01*
X91236271Y-83306861D01*
X91242206Y-83307722D01*
X91242208Y-83307722D01*
X91439664Y-83336352D01*
X91439667Y-83336352D01*
X91445604Y-83337213D01*
X91656899Y-83327433D01*
X91788077Y-83295819D01*
X91856701Y-83279281D01*
X91856703Y-83279280D01*
X91862534Y-83277875D01*
X91867992Y-83275393D01*
X91867996Y-83275392D01*
X91983041Y-83223084D01*
X92055087Y-83190326D01*
X92227611Y-83067946D01*
X92373881Y-82915150D01*
X92488620Y-82737452D01*
X92490860Y-82731893D01*
X92490865Y-82731884D01*
X92491120Y-82731251D01*
X92491332Y-82730982D01*
X92493622Y-82726565D01*
X92494474Y-82727007D01*
X92535138Y-82675547D01*
X92586319Y-82654231D01*
X92600609Y-82651737D01*
X92607121Y-82650777D01*
X92670542Y-82643102D01*
X92677643Y-82640419D01*
X92680252Y-82639778D01*
X92696562Y-82635315D01*
X92699098Y-82634550D01*
X92706584Y-82633243D01*
X92765100Y-82607556D01*
X92771204Y-82605065D01*
X92823848Y-82585173D01*
X92823849Y-82585172D01*
X92830956Y-82582487D01*
X92837219Y-82578183D01*
X92839585Y-82576946D01*
X92854397Y-82568701D01*
X92856651Y-82567368D01*
X92863605Y-82564315D01*
X92914302Y-82525413D01*
X92919632Y-82521541D01*
X92966020Y-82489661D01*
X92966025Y-82489656D01*
X92972281Y-82485357D01*
X93013736Y-82438829D01*
X93018716Y-82433554D01*
X95313920Y-80138350D01*
X95320185Y-80132496D01*
X95358060Y-80099455D01*
X95363785Y-80094461D01*
X95400514Y-80042200D01*
X95404446Y-80036905D01*
X95439191Y-79992594D01*
X95443877Y-79986618D01*
X95447002Y-79979696D01*
X95448364Y-79977448D01*
X95456768Y-79962715D01*
X95458022Y-79960376D01*
X95462390Y-79954161D01*
X95465149Y-79947085D01*
X95465151Y-79947081D01*
X95485600Y-79894631D01*
X95488149Y-79888566D01*
X95514445Y-79830327D01*
X95515829Y-79822862D01*
X95516626Y-79820318D01*
X95521259Y-79804052D01*
X95521921Y-79801472D01*
X95524682Y-79794391D01*
X95528444Y-79765819D01*
X95533021Y-79731047D01*
X95534053Y-79724529D01*
X95540753Y-79688384D01*
X95545696Y-79661713D01*
X95542109Y-79599502D01*
X95541900Y-79592249D01*
X95541900Y-76459331D01*
X95543157Y-76441577D01*
X95546366Y-76419030D01*
X95546366Y-76419029D01*
X95546947Y-76414947D01*
X95547104Y-76400000D01*
X95539292Y-76335449D01*
X95527415Y-76237299D01*
X95527414Y-76237296D01*
X95526502Y-76229758D01*
X95494395Y-76144787D01*
X95468571Y-76076447D01*
X95465887Y-76069344D01*
X95454428Y-76052671D01*
X95373059Y-75934278D01*
X95373058Y-75934276D01*
X95368757Y-75928019D01*
X95363086Y-75922966D01*
X95246393Y-75818996D01*
X95246390Y-75818994D01*
X95240721Y-75813943D01*
X95232725Y-75809709D01*
X95095881Y-75737254D01*
X95095882Y-75737254D01*
X95089169Y-75733700D01*
X95071596Y-75729286D01*
X94930222Y-75693775D01*
X94930218Y-75693775D01*
X94922851Y-75691924D01*
X94915252Y-75691884D01*
X94915250Y-75691884D01*
X94843794Y-75691510D01*
X94751369Y-75691026D01*
X94743989Y-75692798D01*
X94743987Y-75692798D01*
X94592002Y-75729286D01*
X94591998Y-75729287D01*
X94584623Y-75731058D01*
X94432239Y-75809709D01*
X94303015Y-75922439D01*
X94204410Y-76062739D01*
X94180008Y-76125326D01*
X94145377Y-76214151D01*
X94142118Y-76222509D01*
X94141126Y-76230042D01*
X94141126Y-76230043D01*
X94129347Y-76319518D01*
X94119735Y-76392526D01*
X94122661Y-76419030D01*
X94124139Y-76432416D01*
X94124900Y-76446243D01*
X94124900Y-77441426D01*
X94104898Y-77509547D01*
X94051242Y-77556040D01*
X93980968Y-77566144D01*
X93955807Y-77559827D01*
X93923561Y-77548091D01*
X93865368Y-77526910D01*
X93865365Y-77526909D01*
X93858751Y-77524502D01*
X93797054Y-77516708D01*
X93721758Y-77507196D01*
X93721755Y-77507196D01*
X93717830Y-77506700D01*
X93620423Y-77506700D01*
X93484975Y-77521893D01*
X93478322Y-77524210D01*
X93478321Y-77524210D01*
X93478063Y-77524300D01*
X93477887Y-77524309D01*
X93471456Y-77525770D01*
X93471199Y-77524640D01*
X93407153Y-77527814D01*
X93345601Y-77492432D01*
X93312949Y-77429390D01*
X93319563Y-77358702D01*
X93327507Y-77342309D01*
X93387308Y-77238731D01*
X93387309Y-77238730D01*
X93390612Y-77233008D01*
X93430198Y-77111173D01*
X93443052Y-77071614D01*
X93443052Y-77071613D01*
X93445092Y-77065335D01*
X93463521Y-76889999D01*
X93445092Y-76714663D01*
X93390612Y-76546990D01*
X93373680Y-76517662D01*
X93328442Y-76439309D01*
X93302461Y-76394308D01*
X93184492Y-76263290D01*
X93041861Y-76159662D01*
X93035832Y-76156978D01*
X93035829Y-76156976D01*
X92886837Y-76090641D01*
X92886834Y-76090640D01*
X92880801Y-76087954D01*
X92826665Y-76076447D01*
X92714809Y-76052671D01*
X92714805Y-76052671D01*
X92708352Y-76051299D01*
X92532050Y-76051299D01*
X92525597Y-76052671D01*
X92525593Y-76052671D01*
X92413737Y-76076447D01*
X92359601Y-76087954D01*
X92353568Y-76090640D01*
X92353565Y-76090641D01*
X92204573Y-76156976D01*
X92204570Y-76156978D01*
X92198541Y-76159662D01*
X92055910Y-76263290D01*
X91937941Y-76394308D01*
X91911960Y-76439309D01*
X91866723Y-76517662D01*
X91849790Y-76546990D01*
X91795310Y-76714663D01*
X91776881Y-76889999D01*
X91795310Y-77065335D01*
X91797350Y-77071613D01*
X91797350Y-77071614D01*
X91810204Y-77111173D01*
X91849790Y-77233008D01*
X91937941Y-77385690D01*
X91942359Y-77390597D01*
X91942360Y-77390598D01*
X92055910Y-77516708D01*
X92054024Y-77518406D01*
X92085272Y-77569150D01*
X92083906Y-77640133D01*
X92052499Y-77691722D01*
X91941251Y-77802196D01*
X91941248Y-77802200D01*
X91936254Y-77807159D01*
X91932480Y-77813105D01*
X91932479Y-77813107D01*
X91898564Y-77866549D01*
X91838486Y-77961217D01*
X91777278Y-78133107D01*
X91776445Y-78140093D01*
X91776444Y-78140097D01*
X91763143Y-78251647D01*
X91755674Y-78314286D01*
X91774746Y-78495749D01*
X91777016Y-78502417D01*
X91830798Y-78660398D01*
X91833548Y-78668477D01*
X91852503Y-78699288D01*
X91924308Y-78816005D01*
X91929156Y-78823886D01*
X92056818Y-78954250D01*
X92065759Y-78960012D01*
X92179751Y-79033475D01*
X92210190Y-79053092D01*
X92216810Y-79055501D01*
X92216813Y-79055503D01*
X92375032Y-79113090D01*
X92375035Y-79113091D01*
X92381649Y-79115498D01*
X92439699Y-79122831D01*
X92518642Y-79132804D01*
X92518645Y-79132804D01*
X92522570Y-79133300D01*
X92619977Y-79133300D01*
X92755425Y-79118107D01*
X92762918Y-79115498D01*
X92832081Y-79091413D01*
X92927739Y-79058101D01*
X92933717Y-79054366D01*
X92970276Y-79031521D01*
X93054091Y-78979148D01*
X93122459Y-78960012D01*
X93189115Y-78980091D01*
X93296464Y-79049273D01*
X93302390Y-79053092D01*
X93309010Y-79055501D01*
X93309013Y-79055503D01*
X93467232Y-79113090D01*
X93467235Y-79113091D01*
X93473849Y-79115498D01*
X93531899Y-79122831D01*
X93610842Y-79132804D01*
X93610845Y-79132804D01*
X93614770Y-79133300D01*
X93712177Y-79133300D01*
X93847625Y-79118107D01*
X93957465Y-79079857D01*
X94028372Y-79076343D01*
X94089925Y-79111724D01*
X94122577Y-79174766D01*
X94124900Y-79198848D01*
X94124900Y-79271239D01*
X94104898Y-79339360D01*
X94087995Y-79360334D01*
X92510156Y-80938174D01*
X92447844Y-80972199D01*
X92377029Y-80967135D01*
X92321977Y-80926914D01*
X92310106Y-80911802D01*
X92310101Y-80911797D01*
X92306396Y-80907080D01*
X92301865Y-80903148D01*
X92301862Y-80903145D01*
X92151167Y-80772379D01*
X92146637Y-80768448D01*
X92141451Y-80765448D01*
X92141447Y-80765445D01*
X91968742Y-80665533D01*
X91963546Y-80662527D01*
X91763729Y-80593139D01*
X91757794Y-80592278D01*
X91757792Y-80592278D01*
X91560336Y-80563648D01*
X91560333Y-80563648D01*
X91554396Y-80562787D01*
X91343101Y-80572567D01*
X91211923Y-80604181D01*
X91143299Y-80620719D01*
X91143297Y-80620720D01*
X91137466Y-80622125D01*
X91132008Y-80624607D01*
X91132004Y-80624608D01*
X91016959Y-80676916D01*
X90944913Y-80709674D01*
X90772389Y-80832054D01*
X90768247Y-80836381D01*
X90768241Y-80836386D01*
X90681194Y-80927317D01*
X90619639Y-80962694D01*
X90548730Y-80959175D01*
X90490979Y-80917879D01*
X90483032Y-80906491D01*
X90448478Y-80850652D01*
X90323303Y-80725695D01*
X90220826Y-80662527D01*
X90178968Y-80636725D01*
X90178966Y-80636724D01*
X90172738Y-80632885D01*
X90012254Y-80579655D01*
X90011389Y-80579368D01*
X90011387Y-80579368D01*
X90004861Y-80577203D01*
X89998025Y-80576503D01*
X89998022Y-80576502D01*
X89954969Y-80572091D01*
X89900400Y-80566500D01*
X89099600Y-80566500D01*
X89096354Y-80566837D01*
X89096350Y-80566837D01*
X89000692Y-80576762D01*
X89000688Y-80576763D01*
X88993834Y-80577474D01*
X88987298Y-80579655D01*
X88987296Y-80579655D01*
X88864213Y-80620719D01*
X88826054Y-80633450D01*
X88675652Y-80726522D01*
X88550695Y-80851697D01*
X88546855Y-80857927D01*
X88546854Y-80857928D01*
X88479538Y-80967135D01*
X88457885Y-81002262D01*
X88402203Y-81170139D01*
X88391500Y-81274600D01*
X88391500Y-82625400D01*
X86508500Y-82625400D01*
X86508500Y-78314286D01*
X87728074Y-78314286D01*
X87747146Y-78495749D01*
X87749416Y-78502417D01*
X87803198Y-78660398D01*
X87805948Y-78668477D01*
X87824903Y-78699288D01*
X87896708Y-78816005D01*
X87901556Y-78823886D01*
X88029218Y-78954250D01*
X88038159Y-78960012D01*
X88152151Y-79033475D01*
X88182590Y-79053092D01*
X88189210Y-79055501D01*
X88189213Y-79055503D01*
X88347432Y-79113090D01*
X88347435Y-79113091D01*
X88354049Y-79115498D01*
X88412099Y-79122831D01*
X88491042Y-79132804D01*
X88491045Y-79132804D01*
X88494970Y-79133300D01*
X88592377Y-79133300D01*
X88727825Y-79118107D01*
X88735318Y-79115498D01*
X88900139Y-79058101D01*
X88901174Y-79061072D01*
X88957570Y-79051928D01*
X88984973Y-79058546D01*
X89134829Y-79113089D01*
X89134833Y-79113090D01*
X89141449Y-79115498D01*
X89199499Y-79122831D01*
X89278442Y-79132804D01*
X89278445Y-79132804D01*
X89282370Y-79133300D01*
X89379777Y-79133300D01*
X89515225Y-79118107D01*
X89522718Y-79115498D01*
X89591881Y-79091413D01*
X89687539Y-79058101D01*
X89842276Y-78961411D01*
X89954000Y-78850464D01*
X89966749Y-78837804D01*
X89966752Y-78837800D01*
X89971746Y-78832841D01*
X89977879Y-78823178D01*
X90035533Y-78732328D01*
X90069514Y-78678783D01*
X90125344Y-78521996D01*
X90128360Y-78513527D01*
X90128361Y-78513525D01*
X90130722Y-78506893D01*
X90131555Y-78499907D01*
X90131556Y-78499903D01*
X90151492Y-78332707D01*
X90152326Y-78325714D01*
X90148220Y-78286642D01*
X90133990Y-78151257D01*
X90133254Y-78144251D01*
X90127202Y-78126473D01*
X90076722Y-77978190D01*
X90076721Y-77978187D01*
X90074452Y-77971523D01*
X89978844Y-77816114D01*
X89851182Y-77685750D01*
X89729041Y-77607035D01*
X89703736Y-77590727D01*
X89697810Y-77586908D01*
X89691190Y-77584499D01*
X89691187Y-77584497D01*
X89532968Y-77526910D01*
X89532965Y-77526909D01*
X89526351Y-77524502D01*
X89464654Y-77516708D01*
X89389358Y-77507196D01*
X89389355Y-77507196D01*
X89385430Y-77506700D01*
X89288023Y-77506700D01*
X89152575Y-77521893D01*
X89145922Y-77524210D01*
X89145921Y-77524210D01*
X89138168Y-77526910D01*
X88980261Y-77581899D01*
X88979226Y-77578928D01*
X88922830Y-77588072D01*
X88895427Y-77581454D01*
X88745571Y-77526911D01*
X88745567Y-77526910D01*
X88738951Y-77524502D01*
X88677254Y-77516708D01*
X88601958Y-77507196D01*
X88601955Y-77507196D01*
X88598030Y-77506700D01*
X88500623Y-77506700D01*
X88365175Y-77521893D01*
X88358522Y-77524210D01*
X88358521Y-77524210D01*
X88350768Y-77526910D01*
X88192861Y-77581899D01*
X88038124Y-77678589D01*
X88000834Y-77715620D01*
X87913651Y-77802196D01*
X87913648Y-77802200D01*
X87908654Y-77807159D01*
X87904880Y-77813105D01*
X87904879Y-77813107D01*
X87870964Y-77866549D01*
X87810886Y-77961217D01*
X87749678Y-78133107D01*
X87748845Y-78140093D01*
X87748844Y-78140097D01*
X87735543Y-78251647D01*
X87728074Y-78314286D01*
X86508500Y-78314286D01*
X86508500Y-72673826D01*
X93963635Y-72673826D01*
X93982453Y-72844275D01*
X94041385Y-73005315D01*
X94045622Y-73011621D01*
X94045624Y-73011624D01*
X94076018Y-73056854D01*
X94137030Y-73147649D01*
X94142646Y-73152759D01*
X94244042Y-73245022D01*
X94263865Y-73263060D01*
X94414568Y-73344885D01*
X94470731Y-73359619D01*
X94527851Y-73392400D01*
X97577844Y-76442393D01*
X97611870Y-76504705D01*
X97613988Y-76517662D01*
X97617920Y-76553275D01*
X97619653Y-76568975D01*
X97622262Y-76576106D01*
X97622263Y-76576108D01*
X97630188Y-76597764D01*
X97678585Y-76730015D01*
X97774230Y-76872349D01*
X97901065Y-76987760D01*
X98051768Y-77069585D01*
X98217639Y-77113101D01*
X98305086Y-77114474D01*
X98381503Y-77115675D01*
X98381506Y-77115675D01*
X98389102Y-77115794D01*
X98396506Y-77114098D01*
X98396508Y-77114098D01*
X98459346Y-77099706D01*
X98556259Y-77077510D01*
X98709458Y-77000459D01*
X98715229Y-76995530D01*
X98715232Y-76995528D01*
X98834078Y-76894023D01*
X98839855Y-76889089D01*
X98939924Y-76749830D01*
X99003885Y-76590720D01*
X99028047Y-76420947D01*
X99028121Y-76413857D01*
X99028161Y-76410133D01*
X99028161Y-76410127D01*
X99028204Y-76406000D01*
X99010464Y-76259407D01*
X99008515Y-76243299D01*
X99008514Y-76243296D01*
X99007602Y-76235758D01*
X99002651Y-76222654D01*
X98949671Y-76082447D01*
X98946987Y-76075344D01*
X98886485Y-75987313D01*
X98854159Y-75940278D01*
X98854158Y-75940276D01*
X98849857Y-75934019D01*
X98844186Y-75928966D01*
X98727493Y-75824996D01*
X98727490Y-75824994D01*
X98721821Y-75819943D01*
X98702493Y-75809709D01*
X98642225Y-75777799D01*
X98612089Y-75755540D01*
X95391283Y-72534734D01*
X95362512Y-72490177D01*
X95312471Y-72357747D01*
X95309787Y-72350644D01*
X95212657Y-72209319D01*
X95206986Y-72204266D01*
X95090293Y-72100296D01*
X95090290Y-72100294D01*
X95084621Y-72095243D01*
X95076625Y-72091009D01*
X94939781Y-72018554D01*
X94939782Y-72018554D01*
X94933069Y-72015000D01*
X94915496Y-72010586D01*
X94774122Y-71975075D01*
X94774118Y-71975075D01*
X94766751Y-71973224D01*
X94759152Y-71973184D01*
X94759150Y-71973184D01*
X94687694Y-71972810D01*
X94595269Y-71972326D01*
X94587889Y-71974098D01*
X94587887Y-71974098D01*
X94435902Y-72010586D01*
X94435898Y-72010587D01*
X94428523Y-72012358D01*
X94276139Y-72091009D01*
X94146915Y-72203739D01*
X94048310Y-72344039D01*
X93986018Y-72503809D01*
X93985026Y-72511342D01*
X93985026Y-72511343D01*
X93966917Y-72648898D01*
X93963635Y-72673826D01*
X86508500Y-72673826D01*
X86508500Y-69674286D01*
X87728074Y-69674286D01*
X87747146Y-69855749D01*
X87749416Y-69862417D01*
X87803678Y-70021808D01*
X87805948Y-70028477D01*
X87901556Y-70183886D01*
X88029218Y-70314250D01*
X88109496Y-70365986D01*
X88174607Y-70407947D01*
X88182590Y-70413092D01*
X88189210Y-70415501D01*
X88189213Y-70415503D01*
X88347432Y-70473090D01*
X88347435Y-70473091D01*
X88354049Y-70475498D01*
X88403952Y-70481802D01*
X88491042Y-70492804D01*
X88491045Y-70492804D01*
X88494970Y-70493300D01*
X88592377Y-70493300D01*
X88727825Y-70478107D01*
X88734485Y-70475788D01*
X88900139Y-70418101D01*
X88901174Y-70421072D01*
X88957570Y-70411928D01*
X88984973Y-70418546D01*
X89134829Y-70473089D01*
X89134833Y-70473090D01*
X89141449Y-70475498D01*
X89191352Y-70481802D01*
X89278442Y-70492804D01*
X89278445Y-70492804D01*
X89282370Y-70493300D01*
X89379777Y-70493300D01*
X89515225Y-70478107D01*
X89521885Y-70475788D01*
X89679007Y-70421072D01*
X89687539Y-70418101D01*
X89842276Y-70321411D01*
X89909690Y-70254466D01*
X89966749Y-70197804D01*
X89966752Y-70197800D01*
X89971746Y-70192841D01*
X89977431Y-70183884D01*
X90019400Y-70117750D01*
X90069514Y-70038783D01*
X90130722Y-69866893D01*
X90131555Y-69859907D01*
X90131556Y-69859903D01*
X90151492Y-69692707D01*
X90151492Y-69692705D01*
X90152326Y-69685714D01*
X90151125Y-69674284D01*
X91755674Y-69674284D01*
X91774746Y-69855747D01*
X91833548Y-70028475D01*
X91929156Y-70183884D01*
X91934082Y-70188914D01*
X91934088Y-70188922D01*
X92052918Y-70310267D01*
X92086288Y-70372932D01*
X92080482Y-70443691D01*
X92054256Y-70481802D01*
X92055910Y-70483292D01*
X91960348Y-70589425D01*
X91937941Y-70614310D01*
X91849790Y-70766992D01*
X91795310Y-70934665D01*
X91776881Y-71110001D01*
X91777571Y-71116566D01*
X91788393Y-71219523D01*
X91795310Y-71285337D01*
X91849790Y-71453010D01*
X91937941Y-71605692D01*
X92055910Y-71736710D01*
X92198541Y-71840338D01*
X92204570Y-71843022D01*
X92204573Y-71843024D01*
X92353565Y-71909359D01*
X92353568Y-71909360D01*
X92359601Y-71912046D01*
X92396051Y-71919794D01*
X92525593Y-71947329D01*
X92525597Y-71947329D01*
X92532050Y-71948701D01*
X92708352Y-71948701D01*
X92714805Y-71947329D01*
X92714809Y-71947329D01*
X92844351Y-71919794D01*
X92880801Y-71912046D01*
X92886834Y-71909360D01*
X92886837Y-71909359D01*
X93035829Y-71843024D01*
X93035832Y-71843022D01*
X93041861Y-71840338D01*
X93184492Y-71736710D01*
X93302461Y-71605692D01*
X93390612Y-71453010D01*
X93445092Y-71285337D01*
X93452010Y-71219523D01*
X93462831Y-71116566D01*
X93463521Y-71110001D01*
X93445092Y-70934665D01*
X93390612Y-70766992D01*
X93327928Y-70658420D01*
X93311190Y-70589425D01*
X93334410Y-70522333D01*
X93390218Y-70478446D01*
X93466676Y-70472953D01*
X93467231Y-70473087D01*
X93473849Y-70475496D01*
X93480831Y-70476378D01*
X93480835Y-70476379D01*
X93610842Y-70492802D01*
X93610845Y-70492802D01*
X93614770Y-70493298D01*
X93712177Y-70493298D01*
X93847625Y-70478105D01*
X93855112Y-70475498D01*
X93946449Y-70443691D01*
X94019939Y-70418099D01*
X94174676Y-70321409D01*
X94291896Y-70205004D01*
X94299149Y-70197802D01*
X94299152Y-70197798D01*
X94304146Y-70192839D01*
X94313638Y-70177883D01*
X94357373Y-70108966D01*
X94401914Y-70038781D01*
X94463122Y-69866891D01*
X94463955Y-69859905D01*
X94463956Y-69859901D01*
X94483892Y-69692705D01*
X94484726Y-69685712D01*
X94465654Y-69504249D01*
X94461860Y-69493105D01*
X94409122Y-69338188D01*
X94409121Y-69338185D01*
X94406852Y-69331521D01*
X94311244Y-69176112D01*
X94183582Y-69045748D01*
X94030210Y-68946906D01*
X94023590Y-68944497D01*
X94023587Y-68944495D01*
X93865368Y-68886908D01*
X93865365Y-68886907D01*
X93858751Y-68884500D01*
X93800701Y-68877167D01*
X93721758Y-68867194D01*
X93721755Y-68867194D01*
X93717830Y-68866698D01*
X93620423Y-68866698D01*
X93484975Y-68881891D01*
X93478322Y-68884208D01*
X93478321Y-68884208D01*
X93408319Y-68908585D01*
X93312661Y-68941897D01*
X93306686Y-68945630D01*
X93306685Y-68945631D01*
X93302779Y-68948072D01*
X93186309Y-69020850D01*
X93117941Y-69039986D01*
X93051285Y-69019907D01*
X92943936Y-68950725D01*
X92938010Y-68946906D01*
X92931390Y-68944497D01*
X92931387Y-68944495D01*
X92773168Y-68886908D01*
X92773165Y-68886907D01*
X92766551Y-68884500D01*
X92708501Y-68877167D01*
X92629558Y-68867194D01*
X92629555Y-68867194D01*
X92625630Y-68866698D01*
X92528223Y-68866698D01*
X92392775Y-68881891D01*
X92386122Y-68884208D01*
X92386121Y-68884208D01*
X92316119Y-68908585D01*
X92220461Y-68941897D01*
X92065724Y-69038587D01*
X92053447Y-69050779D01*
X91941251Y-69162194D01*
X91941248Y-69162198D01*
X91936254Y-69167157D01*
X91932480Y-69173103D01*
X91932479Y-69173105D01*
X91926761Y-69182115D01*
X91838486Y-69321215D01*
X91777278Y-69493105D01*
X91776445Y-69500091D01*
X91776444Y-69500095D01*
X91760994Y-69629672D01*
X91755674Y-69674284D01*
X90151125Y-69674284D01*
X90133254Y-69504251D01*
X90074452Y-69331523D01*
X89978844Y-69176114D01*
X89851182Y-69045750D01*
X89750608Y-68980934D01*
X89703736Y-68950727D01*
X89697810Y-68946908D01*
X89691190Y-68944499D01*
X89691187Y-68944497D01*
X89532968Y-68886910D01*
X89532965Y-68886909D01*
X89526351Y-68884502D01*
X89468301Y-68877169D01*
X89389358Y-68867196D01*
X89389355Y-68867196D01*
X89385430Y-68866700D01*
X89288023Y-68866700D01*
X89152575Y-68881893D01*
X89145922Y-68884210D01*
X89145921Y-68884210D01*
X89138168Y-68886910D01*
X88980261Y-68941899D01*
X88979226Y-68938928D01*
X88922830Y-68948072D01*
X88895427Y-68941454D01*
X88745571Y-68886911D01*
X88745567Y-68886910D01*
X88738951Y-68884502D01*
X88680901Y-68877169D01*
X88601958Y-68867196D01*
X88601955Y-68867196D01*
X88598030Y-68866700D01*
X88500623Y-68866700D01*
X88365175Y-68881893D01*
X88358522Y-68884210D01*
X88358521Y-68884210D01*
X88350768Y-68886910D01*
X88192861Y-68941899D01*
X88038124Y-69038589D01*
X88025849Y-69050779D01*
X87913651Y-69162196D01*
X87913648Y-69162200D01*
X87908654Y-69167159D01*
X87904880Y-69173105D01*
X87904879Y-69173107D01*
X87870964Y-69226549D01*
X87810886Y-69321217D01*
X87749678Y-69493107D01*
X87748845Y-69500093D01*
X87748844Y-69500097D01*
X87733394Y-69629674D01*
X87728074Y-69674286D01*
X86508500Y-69674286D01*
X86508500Y-68134500D01*
X86528502Y-68066379D01*
X86582158Y-68019886D01*
X86634500Y-68008500D01*
X119365500Y-68008500D01*
X119433621Y-68028502D01*
G37*
%TD.AperFunction*%
%TD*%
M02*
