%TF.GenerationSoftware,KiCad,Pcbnew,(6.0.7)*%
%TF.CreationDate,2022-09-26T20:50:42-04:00*%
%TF.ProjectId,STM32G4_USB_PD,53544d33-3247-4345-9f55-53425f50442e,rev?*%
%TF.SameCoordinates,Original*%
%TF.FileFunction,Copper,L1,Top*%
%TF.FilePolarity,Positive*%
%FSLAX46Y46*%
G04 Gerber Fmt 4.6, Leading zero omitted, Abs format (unit mm)*
G04 Created by KiCad (PCBNEW (6.0.7)) date 2022-09-26 20:50:42*
%MOMM*%
%LPD*%
G01*
G04 APERTURE LIST*
G04 Aperture macros list*
%AMRoundRect*
0 Rectangle with rounded corners*
0 $1 Rounding radius*
0 $2 $3 $4 $5 $6 $7 $8 $9 X,Y pos of 4 corners*
0 Add a 4 corners polygon primitive as box body*
4,1,4,$2,$3,$4,$5,$6,$7,$8,$9,$2,$3,0*
0 Add four circle primitives for the rounded corners*
1,1,$1+$1,$2,$3*
1,1,$1+$1,$4,$5*
1,1,$1+$1,$6,$7*
1,1,$1+$1,$8,$9*
0 Add four rect primitives between the rounded corners*
20,1,$1+$1,$2,$3,$4,$5,0*
20,1,$1+$1,$4,$5,$6,$7,0*
20,1,$1+$1,$6,$7,$8,$9,0*
20,1,$1+$1,$8,$9,$2,$3,0*%
G04 Aperture macros list end*
%TA.AperFunction,SMDPad,CuDef*%
%ADD10C,0.787000*%
%TD*%
%TA.AperFunction,SMDPad,CuDef*%
%ADD11RoundRect,0.237500X-0.237500X0.250000X-0.237500X-0.250000X0.237500X-0.250000X0.237500X0.250000X0*%
%TD*%
%TA.AperFunction,SMDPad,CuDef*%
%ADD12RoundRect,0.100000X-0.217500X-0.100000X0.217500X-0.100000X0.217500X0.100000X-0.217500X0.100000X0*%
%TD*%
%TA.AperFunction,SMDPad,CuDef*%
%ADD13RoundRect,0.237500X-0.250000X-0.237500X0.250000X-0.237500X0.250000X0.237500X-0.250000X0.237500X0*%
%TD*%
%TA.AperFunction,SMDPad,CuDef*%
%ADD14R,0.889000X1.016000*%
%TD*%
%TA.AperFunction,SMDPad,CuDef*%
%ADD15O,1.803400X0.990600*%
%TD*%
%TA.AperFunction,SMDPad,CuDef*%
%ADD16O,2.108200X0.990600*%
%TD*%
%TA.AperFunction,ComponentPad*%
%ADD17C,0.660400*%
%TD*%
%TA.AperFunction,SMDPad,CuDef*%
%ADD18R,1.143000X0.584200*%
%TD*%
%TA.AperFunction,SMDPad,CuDef*%
%ADD19R,1.143000X0.304800*%
%TD*%
%TA.AperFunction,SMDPad,CuDef*%
%ADD20RoundRect,0.237500X-0.287500X-0.237500X0.287500X-0.237500X0.287500X0.237500X-0.287500X0.237500X0*%
%TD*%
%TA.AperFunction,SMDPad,CuDef*%
%ADD21R,1.200000X0.600000*%
%TD*%
%TA.AperFunction,SMDPad,CuDef*%
%ADD22RoundRect,0.237500X-0.300000X-0.237500X0.300000X-0.237500X0.300000X0.237500X-0.300000X0.237500X0*%
%TD*%
%TA.AperFunction,SMDPad,CuDef*%
%ADD23RoundRect,0.237500X0.237500X-0.287500X0.237500X0.287500X-0.237500X0.287500X-0.237500X-0.287500X0*%
%TD*%
%TA.AperFunction,ComponentPad*%
%ADD24RoundRect,0.250000X-0.350000X-0.625000X0.350000X-0.625000X0.350000X0.625000X-0.350000X0.625000X0*%
%TD*%
%TA.AperFunction,ComponentPad*%
%ADD25O,1.200000X1.750000*%
%TD*%
%TA.AperFunction,SMDPad,CuDef*%
%ADD26R,0.304800X1.193800*%
%TD*%
%TA.AperFunction,SMDPad,CuDef*%
%ADD27R,1.193800X0.304800*%
%TD*%
%TA.AperFunction,SMDPad,CuDef*%
%ADD28RoundRect,0.237500X0.250000X0.237500X-0.250000X0.237500X-0.250000X-0.237500X0.250000X-0.237500X0*%
%TD*%
%TA.AperFunction,SMDPad,CuDef*%
%ADD29RoundRect,0.237500X0.300000X0.237500X-0.300000X0.237500X-0.300000X-0.237500X0.300000X-0.237500X0*%
%TD*%
%TA.AperFunction,SMDPad,CuDef*%
%ADD30RoundRect,0.150000X-0.150000X0.587500X-0.150000X-0.587500X0.150000X-0.587500X0.150000X0.587500X0*%
%TD*%
%TA.AperFunction,ViaPad*%
%ADD31C,0.400000*%
%TD*%
%TA.AperFunction,Conductor*%
%ADD32C,0.200000*%
%TD*%
%TA.AperFunction,Conductor*%
%ADD33C,0.400000*%
%TD*%
G04 APERTURE END LIST*
D10*
%TO.P,J2,1,1*%
%TO.N,+3.3V*%
X112270000Y-85865000D03*
%TO.P,J2,2,2*%
%TO.N,SWDIO*%
X112270000Y-87135000D03*
%TO.P,J2,3,3*%
%TO.N,nRESET*%
X111000000Y-85865000D03*
%TO.P,J2,4,4*%
%TO.N,SWCLK*%
X111000000Y-87135000D03*
%TO.P,J2,5,5*%
%TO.N,GND*%
X109730000Y-85865000D03*
%TO.P,J2,6,6*%
%TO.N,SWO*%
X109730000Y-87135000D03*
%TD*%
D11*
%TO.P,R3,1*%
%TO.N,+3.3V*%
X102000000Y-71587500D03*
%TO.P,R3,2*%
%TO.N,/V_FB*%
X102000000Y-73412500D03*
%TD*%
D12*
%TO.P,C6,1*%
%TO.N,nRESET*%
X114592500Y-75000000D03*
%TO.P,C6,2*%
%TO.N,GND*%
X115407500Y-75000000D03*
%TD*%
D13*
%TO.P,R1,1*%
%TO.N,V_USB*%
X107087500Y-69500000D03*
%TO.P,R1,2*%
%TO.N,VSENSE*%
X108912500Y-69500000D03*
%TD*%
D12*
%TO.P,C3,1*%
%TO.N,OSC_OUT*%
X114592500Y-76000000D03*
%TO.P,C3,2*%
%TO.N,GND*%
X115407500Y-76000000D03*
%TD*%
D14*
%TO.P,XTAL1,1,1*%
%TO.N,OSC_IN*%
X118800100Y-77604900D03*
%TO.P,XTAL1,2,2*%
%TO.N,GND*%
X118800100Y-75395100D03*
%TO.P,XTAL1,3,3*%
%TO.N,OSC_OUT*%
X117199900Y-75395100D03*
%TO.P,XTAL1,4,4*%
%TO.N,GND*%
X117199900Y-77604900D03*
%TD*%
D15*
%TO.P,J1,13*%
%TO.N,N/C*%
X88940200Y-69679998D03*
%TO.P,J1,14*%
X88940200Y-78320002D03*
D16*
%TO.P,J1,15*%
X93120200Y-69679998D03*
%TO.P,J1,16*%
X93120200Y-78320002D03*
D17*
%TO.P,J1,17*%
X92620201Y-71110001D03*
%TO.P,J1,18*%
X92620201Y-76889999D03*
D18*
%TO.P,J1,A1-B12,GND*%
%TO.N,GND*%
X93695200Y-70800000D03*
%TO.P,J1,A4-B9,VBUS*%
%TO.N,V_USB*%
X93695200Y-71599999D03*
D19*
%TO.P,J1,A5,CC1*%
%TO.N,USB_CC1*%
X93695200Y-72750000D03*
%TO.P,J1,A6,DP1*%
%TO.N,USB_D+*%
X93695200Y-73750000D03*
%TO.P,J1,A7,DN1*%
%TO.N,USB_D-*%
X93695200Y-74250000D03*
%TO.P,J1,A8,SBU1*%
%TO.N,unconnected-(J1-PadA8)*%
X93695200Y-75250000D03*
D18*
%TO.P,J1,B1-A12,GND*%
%TO.N,GND*%
X93695200Y-77200000D03*
%TO.P,J1,B4-A9,VBUS*%
%TO.N,V_USB*%
X93695200Y-76400001D03*
D19*
%TO.P,J1,B5,CC2*%
%TO.N,USB_CC2*%
X93695200Y-75749999D03*
%TO.P,J1,B6,DP2*%
%TO.N,USB_D+*%
X93695200Y-74750001D03*
%TO.P,J1,B7,DN2*%
%TO.N,USB_D-*%
X93695200Y-73249999D03*
%TO.P,J1,B8,SBU2*%
%TO.N,unconnected-(J1-PadB8)*%
X93695200Y-72250001D03*
%TD*%
D20*
%TO.P,D1,1,K*%
%TO.N,V_USB*%
X95500000Y-84000000D03*
%TO.P,D1,2,A*%
%TO.N,Net-(J4-Pad1)*%
X97250000Y-84000000D03*
%TD*%
D21*
%TO.P,U2,1,VIN*%
%TO.N,V_USB*%
X97250000Y-71550000D03*
%TO.P,U2,2,GND*%
%TO.N,GND*%
X97250000Y-72500000D03*
%TO.P,U2,3,EN*%
%TO.N,V_USB*%
X97250000Y-73450000D03*
%TO.P,U2,4,ADJ/NC*%
%TO.N,/V_FB*%
X99750000Y-73450000D03*
%TO.P,U2,5,VOUT*%
%TO.N,+3.3V*%
X99750000Y-71550000D03*
%TD*%
D22*
%TO.P,C4,1*%
%TO.N,V_USB*%
X96637500Y-75500000D03*
%TO.P,C4,2*%
%TO.N,GND*%
X98362500Y-75500000D03*
%TD*%
D23*
%TO.P,D2,1,K*%
%TO.N,Net-(D2-Pad1)*%
X115500000Y-71375000D03*
%TO.P,D2,2,A*%
%TO.N,+3.3V*%
X115500000Y-69625000D03*
%TD*%
D12*
%TO.P,C2,1*%
%TO.N,OSC_IN*%
X114592500Y-77500000D03*
%TO.P,C2,2*%
%TO.N,GND*%
X115407500Y-77500000D03*
%TD*%
D13*
%TO.P,R2,1*%
%TO.N,VSENSE*%
X111087500Y-69500000D03*
%TO.P,R2,2*%
%TO.N,GND*%
X112912500Y-69500000D03*
%TD*%
D24*
%TO.P,J4,1,Pin_1*%
%TO.N,Net-(J4-Pad1)*%
X89500000Y-81950000D03*
D25*
%TO.P,J4,2,Pin_2*%
%TO.N,V_USB*%
X91500000Y-81950000D03*
%TD*%
D26*
%TO.P,U1,48,VDD*%
%TO.N,+3.3V*%
X111273800Y-80234199D03*
%TO.P,U1,47,VSS*%
%TO.N,GND*%
X110773801Y-80234199D03*
%TO.P,U1,46,PB9*%
%TO.N,unconnected-(U1-Pad46)*%
X110273799Y-80234199D03*
%TO.P,U1,45,PB8-BOOT0*%
%TO.N,unconnected-(U1-Pad45)*%
X109773800Y-80234199D03*
%TO.P,U1,44,PB7*%
%TO.N,unconnected-(U1-Pad44)*%
X109273801Y-80234199D03*
%TO.P,U1,43,PB6*%
%TO.N,USB_CC1*%
X108773800Y-80234199D03*
%TO.P,U1,42,PB5*%
%TO.N,unconnected-(U1-Pad42)*%
X108273800Y-80234199D03*
%TO.P,U1,41,PB4*%
%TO.N,USB_CC2*%
X107773799Y-80234199D03*
%TO.P,U1,40,PB3*%
%TO.N,SWO*%
X107273800Y-80234199D03*
%TO.P,U1,39,PA15*%
%TO.N,unconnected-(U1-Pad39)*%
X106773801Y-80234199D03*
%TO.P,U1,38,PA14*%
%TO.N,SWCLK*%
X106273799Y-80234199D03*
%TO.P,U1,37,PA13*%
%TO.N,SWDIO*%
X105773800Y-80234199D03*
D27*
%TO.P,U1,36,VDD*%
%TO.N,+3.3V*%
X104273801Y-78734200D03*
%TO.P,U1,35,VSS*%
%TO.N,GND*%
X104273801Y-78234201D03*
%TO.P,U1,34,PA12*%
%TO.N,USB_D+*%
X104273801Y-77734199D03*
%TO.P,U1,33,PA11*%
%TO.N,USB_D-*%
X104273801Y-77234200D03*
%TO.P,U1,32,PA10*%
%TO.N,USB_CC2*%
X104273801Y-76734201D03*
%TO.P,U1,31,PA9*%
%TO.N,USB_CC1*%
X104273801Y-76234200D03*
%TO.P,U1,30,PA8*%
%TO.N,unconnected-(U1-Pad30)*%
X104273801Y-75734200D03*
%TO.P,U1,29,PB15*%
%TO.N,unconnected-(U1-Pad29)*%
X104273801Y-75234199D03*
%TO.P,U1,28,PB14*%
%TO.N,unconnected-(U1-Pad28)*%
X104273801Y-74734200D03*
%TO.P,U1,27,PB13*%
%TO.N,unconnected-(U1-Pad27)*%
X104273801Y-74234201D03*
%TO.P,U1,26,PB12*%
%TO.N,unconnected-(U1-Pad26)*%
X104273801Y-73734199D03*
%TO.P,U1,25,PB11*%
%TO.N,USART2_RX*%
X104273801Y-73234200D03*
D26*
%TO.P,U1,24,VDD*%
%TO.N,+3.3V*%
X105773800Y-71734201D03*
%TO.P,U1,23,VSS*%
%TO.N,GND*%
X106273799Y-71734201D03*
%TO.P,U1,22,PB10*%
%TO.N,USART3_TX*%
X106773801Y-71734201D03*
%TO.P,U1,21,VDDA*%
%TO.N,+3.3V*%
X107273800Y-71734201D03*
%TO.P,U1,20,VREF+*%
X107773799Y-71734201D03*
%TO.P,U1,19,VSSA*%
%TO.N,GND*%
X108273800Y-71734201D03*
%TO.P,U1,18,PB2*%
%TO.N,unconnected-(U1-Pad18)*%
X108773800Y-71734201D03*
%TO.P,U1,17,PB1*%
%TO.N,unconnected-(U1-Pad17)*%
X109273801Y-71734201D03*
%TO.P,U1,16,PB0*%
%TO.N,VSENSE*%
X109773800Y-71734201D03*
%TO.P,U1,15,PA7*%
%TO.N,unconnected-(U1-Pad15)*%
X110273799Y-71734201D03*
%TO.P,U1,14,PA6*%
%TO.N,MOTOR_PWM*%
X110773801Y-71734201D03*
%TO.P,U1,13,PA5*%
%TO.N,unconnected-(U1-Pad13)*%
X111273800Y-71734201D03*
D27*
%TO.P,U1,12,PA4*%
%TO.N,unconnected-(U1-Pad12)*%
X112773799Y-73234200D03*
%TO.P,U1,11,PA3*%
%TO.N,USART2_RX*%
X112773799Y-73734199D03*
%TO.P,U1,10,PA2*%
%TO.N,USART2_TX*%
X112773799Y-74234201D03*
%TO.P,U1,9,PA1*%
%TO.N,unconnected-(U1-Pad9)*%
X112773799Y-74734200D03*
%TO.P,U1,8,PA0*%
%TO.N,unconnected-(U1-Pad8)*%
X112773799Y-75234199D03*
%TO.P,U1,7,PG10-NRST*%
%TO.N,nRESET*%
X112773799Y-75734200D03*
%TO.P,U1,6,PF1-OSC_OUT*%
%TO.N,OSC_OUT*%
X112773799Y-76234200D03*
%TO.P,U1,5,PF0-OSC_IN*%
%TO.N,OSC_IN*%
X112773799Y-76734201D03*
%TO.P,U1,4,PC15-OSC32_OUT*%
%TO.N,unconnected-(U1-Pad4)*%
X112773799Y-77234200D03*
%TO.P,U1,3,PC14-OSC32_IN*%
%TO.N,unconnected-(U1-Pad3)*%
X112773799Y-77734199D03*
%TO.P,U1,2,PC13*%
%TO.N,unconnected-(U1-Pad2)*%
X112773799Y-78234201D03*
%TO.P,U1,1,VBAT*%
%TO.N,+3.3V*%
X112773799Y-78734200D03*
%TD*%
D28*
%TO.P,R4,1*%
%TO.N,/V_FB*%
X101912500Y-75500000D03*
%TO.P,R4,2*%
%TO.N,GND*%
X100087500Y-75500000D03*
%TD*%
D22*
%TO.P,C1,1*%
%TO.N,+3.3V*%
X114637500Y-80500000D03*
%TO.P,C1,2*%
%TO.N,GND*%
X116362500Y-80500000D03*
%TD*%
D29*
%TO.P,C5,1*%
%TO.N,+3.3V*%
X101862500Y-69500000D03*
%TO.P,C5,2*%
%TO.N,GND*%
X100137500Y-69500000D03*
%TD*%
D11*
%TO.P,R5,1*%
%TO.N,MOTOR_PWM*%
X100500000Y-79587500D03*
%TO.P,R5,2*%
%TO.N,GND*%
X100500000Y-81412500D03*
%TD*%
D30*
%TO.P,Q1,1,G*%
%TO.N,MOTOR_PWM*%
X98450000Y-79062500D03*
%TO.P,Q1,2,S*%
%TO.N,GND*%
X96550000Y-79062500D03*
%TO.P,Q1,3,D*%
%TO.N,Net-(J4-Pad1)*%
X97500000Y-80937500D03*
%TD*%
D24*
%TO.P,J3,1,Pin_1*%
%TO.N,V_USB*%
X96500000Y-87950000D03*
D25*
%TO.P,J3,2,Pin_2*%
%TO.N,unconnected-(J3-Pad2)*%
X98500000Y-87950000D03*
%TO.P,J3,3,Pin_3*%
%TO.N,USART2_RX*%
X100500000Y-87950000D03*
%TO.P,J3,4,Pin_4*%
%TO.N,GND*%
X102500000Y-87950000D03*
%TD*%
D11*
%TO.P,R6,1*%
%TO.N,Net-(D2-Pad1)*%
X117500000Y-71587500D03*
%TO.P,R6,2*%
%TO.N,GND*%
X117500000Y-73412500D03*
%TD*%
D31*
%TO.N,GND*%
X111075800Y-81243900D03*
X115633400Y-81230800D03*
%TO.N,V_USB*%
X94833400Y-76400000D03*
%TO.N,+3.3V*%
X111325200Y-79103000D03*
X105287200Y-78734200D03*
X112387500Y-79288900D03*
X107555200Y-72733900D03*
%TO.N,USB_CC1*%
X94677300Y-72681300D03*
X98314500Y-76406000D03*
%TO.N,USART2_RX*%
X103275800Y-73234200D03*
%TO.N,MOTOR_PWM*%
X100951200Y-78142800D03*
X110247300Y-70731500D03*
%TD*%
D32*
%TO.N,OSC_OUT*%
X114592000Y-75931800D02*
X114592000Y-76000000D01*
X115024000Y-75500000D02*
X114592000Y-75931800D01*
X117095000Y-75500000D02*
X115024000Y-75500000D01*
X117199900Y-75395100D02*
X117095000Y-75500000D01*
%TO.N,nRESET*%
X114020399Y-75000000D02*
X114592500Y-75000000D01*
X113670699Y-75349700D02*
X114020399Y-75000000D01*
X113623098Y-75734200D02*
X113670699Y-75686599D01*
X111876600Y-81136100D02*
X111876600Y-75734200D01*
X111924800Y-84719300D02*
X111924800Y-81184300D01*
X111924800Y-81184300D02*
X111876600Y-81136100D01*
X111876600Y-75734200D02*
X113623098Y-75734200D01*
X113670699Y-75686599D02*
X113670699Y-75349700D01*
X111000000Y-85644100D02*
X111924800Y-84719300D01*
X111000000Y-85865000D02*
X111000000Y-85644100D01*
X114592000Y-75000000D02*
X114592500Y-75000000D01*
%TO.N,OSC_IN*%
X117992000Y-76796900D02*
X115227000Y-76796900D01*
X114592000Y-77465900D02*
X114592500Y-77466400D01*
X118488500Y-77293300D02*
X118800100Y-77604900D01*
X114592000Y-77431800D02*
X114592000Y-77465900D01*
X112774000Y-76734300D02*
X112773900Y-76734300D01*
X118488400Y-77293300D02*
X117992000Y-76796900D01*
X112773900Y-76734300D02*
X112773800Y-76734200D01*
X114389000Y-77500000D02*
X113623000Y-76734300D01*
X114592000Y-77500000D02*
X114389000Y-77500000D01*
X115227000Y-76796900D02*
X114592000Y-77431800D01*
X118488400Y-77293300D02*
X118488500Y-77293300D01*
X114592000Y-77465900D02*
X114592000Y-77500000D01*
X118800000Y-77604900D02*
X118488400Y-77293300D01*
X113623000Y-76734300D02*
X112774000Y-76734300D01*
X114592500Y-77466400D02*
X114592500Y-77500000D01*
%TO.N,GND*%
X117944700Y-78349700D02*
X117944700Y-77604900D01*
X97250000Y-72500000D02*
X98150300Y-72500000D01*
X115407500Y-74657100D02*
X113102200Y-72351800D01*
X98761600Y-72246100D02*
X98944200Y-72428700D01*
X96850600Y-76799700D02*
X98150300Y-75500000D01*
X98761600Y-72246100D02*
X98761600Y-70875900D01*
X118087200Y-74586800D02*
X117500000Y-73999600D01*
X108787700Y-84540700D02*
X109730000Y-85483000D01*
X102500000Y-87950000D02*
X102500000Y-83412500D01*
X94567000Y-77200000D02*
X95048800Y-77200000D01*
X93695200Y-70800000D02*
X94567000Y-70800000D01*
X116362500Y-80500000D02*
X116362500Y-80501700D01*
X113102200Y-72351800D02*
X112912500Y-72351800D01*
X98404200Y-72246100D02*
X98761600Y-72246100D01*
X108787700Y-83379300D02*
X108787700Y-84540700D01*
X117199900Y-77604900D02*
X116455100Y-77604900D01*
X118800100Y-75395100D02*
X118800100Y-74586800D01*
X112912500Y-70500000D02*
X112912500Y-69500000D01*
X97339300Y-68027700D02*
X94567000Y-70800000D01*
X118800100Y-76203400D02*
X119544900Y-76948200D01*
X97012500Y-79062500D02*
X96550000Y-79062500D01*
X116362500Y-80501700D02*
X115633400Y-81230800D01*
X110904700Y-81262300D02*
X110773800Y-81131400D01*
X118800100Y-75395100D02*
X118800100Y-76203400D01*
X116362500Y-80500000D02*
X116362500Y-80073900D01*
X98150300Y-72500000D02*
X98404200Y-72246100D01*
X115407500Y-77500000D02*
X116350200Y-77500000D01*
X112912500Y-70500000D02*
X115973300Y-70500000D01*
X119544900Y-78284500D02*
X119408700Y-78420700D01*
X95449100Y-76799700D02*
X96850600Y-76799700D01*
X105195100Y-72428700D02*
X105397800Y-72631400D01*
X100500000Y-81110800D02*
X99060800Y-81110800D01*
X115973300Y-70500000D02*
X116314200Y-70159100D01*
X100087500Y-75500000D02*
X98362500Y-75500000D01*
X98761600Y-70875900D02*
X100137500Y-69500000D01*
X110773800Y-80234200D02*
X110773800Y-81131400D01*
X100500000Y-81412500D02*
X100500000Y-81110800D01*
X116065000Y-73999600D02*
X115407500Y-74657100D01*
X93695200Y-77200000D02*
X94567000Y-77200000D01*
X95048800Y-77200000D02*
X95449100Y-76799700D01*
X119408700Y-78420700D02*
X118015700Y-78420700D01*
X106910800Y-73268400D02*
X107762600Y-73268400D01*
X112912500Y-72351800D02*
X112632900Y-72631400D01*
X110923100Y-81243900D02*
X110904700Y-81262300D01*
X104273800Y-78234200D02*
X103376600Y-78234200D01*
X112632900Y-72631400D02*
X108273800Y-72631400D01*
X117500000Y-73999600D02*
X116065000Y-73999600D01*
X98150300Y-75500000D02*
X98150300Y-72500000D01*
X107762600Y-73268400D02*
X108273800Y-72757200D01*
X108273800Y-71734200D02*
X108273800Y-72631400D01*
X105397800Y-72631400D02*
X106273800Y-72631400D01*
X118015700Y-78420700D02*
X117944700Y-78349700D01*
X110904700Y-81262300D02*
X108787700Y-83379300D01*
X115407500Y-74657100D02*
X115407500Y-75000000D01*
X119544900Y-76948200D02*
X119544900Y-78284500D01*
X100500000Y-81110800D02*
X103376600Y-78234200D01*
X116314200Y-69146100D02*
X115195800Y-68027700D01*
X98944200Y-72428700D02*
X105195100Y-72428700D01*
X115195800Y-68027700D02*
X97339300Y-68027700D01*
X109730000Y-85483000D02*
X109730000Y-85865000D01*
X108273800Y-72757200D02*
X108273800Y-72631400D01*
X106273800Y-71734200D02*
X106273800Y-72631400D01*
X116314200Y-70159100D02*
X116314200Y-69146100D01*
X115610900Y-76203400D02*
X118800100Y-76203400D01*
X117199900Y-77604900D02*
X117944700Y-77604900D01*
X112912500Y-72351800D02*
X112912500Y-70500000D01*
X116362500Y-80073900D02*
X118015700Y-78420700D01*
X116350200Y-77500000D02*
X116455100Y-77604900D01*
X118800100Y-74586800D02*
X118087200Y-74586800D01*
X106273800Y-72631400D02*
X106910800Y-73268400D01*
X98362500Y-75500000D02*
X98150300Y-75500000D01*
X99060800Y-81110800D02*
X97012500Y-79062500D01*
X111075800Y-81243900D02*
X110923100Y-81243900D01*
X117500000Y-73999600D02*
X117500000Y-73412500D01*
X115407500Y-76000000D02*
X115610900Y-76203400D01*
X102500000Y-83412500D02*
X100500000Y-81412500D01*
%TO.N,OSC_OUT*%
X114592000Y-76000000D02*
X114358000Y-76234200D01*
X112773800Y-76234200D02*
X112774000Y-76234200D01*
X114358000Y-76234200D02*
X112774000Y-76234200D01*
X114592500Y-76000000D02*
X114592000Y-76000000D01*
X117200000Y-75395100D02*
X117199900Y-75395100D01*
D33*
%TO.N,V_USB*%
X106184200Y-68596700D02*
X107087500Y-69500000D01*
X96637500Y-75500000D02*
X96249800Y-75500000D01*
X94550300Y-84000000D02*
X92500300Y-81950000D01*
X99561400Y-68596700D02*
X106184200Y-68596700D01*
X96500000Y-87950000D02*
X95500000Y-86950000D01*
X91500000Y-81950000D02*
X92500300Y-81950000D01*
X94667000Y-71600000D02*
X96199700Y-71600000D01*
X95500000Y-84000000D02*
X94550300Y-84000000D01*
X97125000Y-71033100D02*
X99561400Y-68596700D01*
X95733400Y-75500000D02*
X94833400Y-76400000D01*
X96199700Y-73399900D02*
X96199700Y-71600000D01*
X94833400Y-76400000D02*
X93695200Y-76400000D01*
X96199700Y-71600000D02*
X96249700Y-71550000D01*
X97250000Y-71550000D02*
X97125000Y-71550000D01*
X97250000Y-73450000D02*
X96249800Y-73450000D01*
X96249800Y-75500000D02*
X95733400Y-75500000D01*
X96249800Y-75500000D02*
X96249800Y-73450000D01*
X95500000Y-86950000D02*
X95500000Y-84000000D01*
X96249800Y-73450000D02*
X96199700Y-73399900D01*
X97125000Y-71550000D02*
X96249700Y-71550000D01*
X97125000Y-71550000D02*
X97125000Y-71033100D01*
X93695200Y-71600000D02*
X94667000Y-71600000D01*
D32*
%TO.N,+3.3V*%
X105773800Y-70837000D02*
X107273800Y-70837000D01*
X107273800Y-71734200D02*
X107273800Y-70937100D01*
X105171000Y-78734200D02*
X105287200Y-78734200D01*
X114637500Y-80500000D02*
X115084400Y-80946900D01*
X114637500Y-79700700D02*
X114637500Y-80500000D01*
X111325200Y-79285600D02*
X111273800Y-79337000D01*
X102037500Y-71550000D02*
X102750500Y-70837000D01*
X105773800Y-71734200D02*
X105773800Y-70837000D01*
X107273800Y-70937100D02*
X107273800Y-70837000D01*
X112773800Y-78734200D02*
X113671000Y-78734200D01*
X102750500Y-70388000D02*
X101862500Y-69500000D01*
X108451400Y-68705700D02*
X114580700Y-68705700D01*
X102750500Y-70837000D02*
X102750500Y-70388000D01*
X115084400Y-84655800D02*
X114077700Y-85662500D01*
X108000000Y-69157100D02*
X108451400Y-68705700D01*
X102000000Y-71550000D02*
X102037500Y-71550000D01*
X113671000Y-78734200D02*
X114637500Y-79700700D01*
X111325200Y-79103000D02*
X111325200Y-79285600D01*
X114077700Y-85662500D02*
X112472500Y-85662500D01*
X102000000Y-71550000D02*
X102000000Y-71587500D01*
X107773800Y-72631400D02*
X107555200Y-72631400D01*
X107273800Y-71734200D02*
X107273800Y-72631400D01*
X111273800Y-80234200D02*
X111273800Y-79337000D01*
X112472500Y-85662500D02*
X112270000Y-85865000D01*
X112773800Y-78902600D02*
X112387500Y-79288900D01*
X107555200Y-72631400D02*
X107555200Y-72733900D01*
X99750000Y-71550000D02*
X100650300Y-71550000D01*
X102000000Y-71550000D02*
X100650300Y-71550000D01*
X108000000Y-70110800D02*
X108000000Y-69157100D01*
X107555200Y-72631400D02*
X107273800Y-72631400D01*
X107273800Y-70837000D02*
X108000000Y-70110800D01*
X114580700Y-68705700D02*
X115500000Y-69625000D01*
X104273800Y-78734200D02*
X105171000Y-78734200D01*
X112773800Y-78734200D02*
X112773800Y-78902600D01*
X115084400Y-80946900D02*
X115084400Y-84655800D01*
X107773800Y-71734200D02*
X107773800Y-72631400D01*
X102750500Y-70837000D02*
X105773800Y-70837000D01*
%TO.N,Net-(J4-Pad1)*%
X97250000Y-81187500D02*
X97250000Y-84000000D01*
X97500000Y-80937500D02*
X97250000Y-81187500D01*
X90680400Y-80769600D02*
X89500000Y-81950000D01*
X96832100Y-80769600D02*
X90680400Y-80769600D01*
X97250000Y-81187500D02*
X96832100Y-80769600D01*
%TO.N,USB_CC1*%
X104273800Y-76234200D02*
X103376600Y-76234200D01*
X94567000Y-72750000D02*
X94608600Y-72750000D01*
X105671000Y-76234200D02*
X104273800Y-76234200D01*
X103376600Y-76234200D02*
X103334500Y-76276300D01*
X108773800Y-79337000D02*
X105671000Y-76234200D01*
X108773800Y-80234200D02*
X108773800Y-79337000D01*
X103334500Y-76276300D02*
X98444200Y-76276300D01*
X98444200Y-76276300D02*
X98314500Y-76406000D01*
X93695200Y-72750000D02*
X94567000Y-72750000D01*
X94608600Y-72750000D02*
X94677300Y-72681300D01*
%TO.N,USB_D-*%
X105803300Y-78926000D02*
X105803300Y-78042300D01*
X93695200Y-73250000D02*
X94567000Y-73250000D01*
X90906500Y-78765800D02*
X88584000Y-81088300D01*
X88584000Y-81088300D02*
X88584000Y-82859900D01*
X93695200Y-74250000D02*
X94567000Y-74250000D01*
X92823400Y-73250000D02*
X90906500Y-75166900D01*
X94567000Y-73250000D02*
X94567000Y-74250000D01*
X94876900Y-89152800D02*
X102875700Y-89152800D01*
X93695200Y-73250000D02*
X92823400Y-73250000D01*
X103660400Y-88368100D02*
X103660400Y-81068900D01*
X105803300Y-78042300D02*
X104995200Y-77234200D01*
X90906500Y-75166900D02*
X90906500Y-78765800D01*
X103660400Y-81068900D02*
X105803300Y-78926000D01*
X88584000Y-82859900D02*
X94876900Y-89152800D01*
X104995200Y-77234200D02*
X104273800Y-77234200D01*
X102875700Y-89152800D02*
X103660400Y-88368100D01*
%TO.N,USB_D+*%
X92990400Y-73750000D02*
X93695200Y-73750000D01*
X92823400Y-73917000D02*
X92990400Y-73750000D01*
X103376600Y-77734200D02*
X103239800Y-77597400D01*
X92823400Y-74750000D02*
X92823400Y-73917000D01*
X91306900Y-76266500D02*
X92823400Y-74750000D01*
X104273800Y-77734200D02*
X103376600Y-77734200D01*
X103239800Y-77597400D02*
X100789100Y-77597400D01*
X91999100Y-79552500D02*
X91306900Y-78860300D01*
X91306900Y-78860300D02*
X91306900Y-76266500D01*
X100789100Y-77597400D02*
X100652300Y-77734200D01*
X96446500Y-77734200D02*
X94628200Y-79552500D01*
X94628200Y-79552500D02*
X91999100Y-79552500D01*
X93695200Y-74750000D02*
X92923500Y-74750000D01*
X92923500Y-74750000D02*
X92823400Y-74750000D01*
X100652300Y-77734200D02*
X96446500Y-77734200D01*
%TO.N,USB_CC2*%
X91715100Y-78646700D02*
X91715100Y-76858300D01*
X105171000Y-76734200D02*
X104273800Y-76734200D01*
X101086200Y-76734200D02*
X100491400Y-77329000D01*
X103376600Y-76734200D02*
X101086200Y-76734200D01*
X107773800Y-79337000D02*
X105171000Y-76734200D01*
X95812300Y-77329000D02*
X94024600Y-79116700D01*
X100491400Y-77329000D02*
X95812300Y-77329000D01*
X91715100Y-76858300D02*
X92823400Y-75750000D01*
X92185100Y-79116700D02*
X91715100Y-78646700D01*
X107773800Y-80234200D02*
X107773800Y-79337000D01*
X104273800Y-76734200D02*
X103376600Y-76734200D01*
X93695200Y-75750000D02*
X92823400Y-75750000D01*
X94024600Y-79116700D02*
X92185100Y-79116700D01*
%TO.N,USART2_RX*%
X104273800Y-73234200D02*
X105444900Y-73234200D01*
X103376600Y-73234200D02*
X103275800Y-73234200D01*
X105444900Y-73234200D02*
X105944900Y-73734200D01*
X104273800Y-73234200D02*
X103376600Y-73234200D01*
X105944900Y-73734200D02*
X112773800Y-73734200D01*
%TO.N,MOTOR_PWM*%
X100031500Y-79062500D02*
X100951200Y-78142800D01*
X110668300Y-70731500D02*
X110773800Y-70837000D01*
X98450000Y-79062500D02*
X100031500Y-79062500D01*
X110247300Y-70731500D02*
X110668300Y-70731500D01*
X110773800Y-71734200D02*
X110773800Y-70837000D01*
X100031500Y-79062500D02*
X100500000Y-79531000D01*
X100500000Y-79531000D02*
X100500000Y-79587500D01*
%TO.N,VSENSE*%
X111087500Y-69500000D02*
X110635100Y-69500000D01*
X109747000Y-71707400D02*
X109773800Y-71734200D01*
X109773800Y-70361300D02*
X109747000Y-70388100D01*
X110635100Y-69500000D02*
X109773800Y-70361300D01*
X109773800Y-70361300D02*
X108912500Y-69500000D01*
X109747000Y-70388100D02*
X109747000Y-71707400D01*
%TO.N,/V_FB*%
X100650300Y-73450000D02*
X100687800Y-73412500D01*
X101912500Y-75500000D02*
X102000000Y-75412500D01*
X100687800Y-73412500D02*
X102000000Y-73412500D01*
X102000000Y-75412500D02*
X102000000Y-73412500D01*
X99750000Y-73450000D02*
X100650300Y-73450000D01*
%TO.N,SWDIO*%
X109588400Y-91019300D02*
X113746100Y-91019300D01*
X112472400Y-87337500D02*
X112472400Y-87337400D01*
X105773800Y-87204700D02*
X109588400Y-91019300D01*
X113746100Y-91019300D02*
X115072500Y-89692900D01*
X114012100Y-87337500D02*
X112472400Y-87337500D01*
X115072500Y-88397900D02*
X114012100Y-87337500D01*
X115072500Y-89692900D02*
X115072500Y-88397900D01*
X112472400Y-87337400D02*
X112270000Y-87135000D01*
X105773800Y-80234200D02*
X105773800Y-87204700D01*
%TO.N,SWCLK*%
X106273900Y-87126900D02*
X106273900Y-81131400D01*
X111000000Y-87135000D02*
X111000000Y-87355900D01*
X111923700Y-88279600D02*
X111923700Y-89639400D01*
X111923700Y-89639400D02*
X110982200Y-90580900D01*
X109727900Y-90580900D02*
X106273900Y-87126900D01*
X111000000Y-87355900D02*
X111923700Y-88279600D01*
X106273900Y-81131400D02*
X106273800Y-81131400D01*
X110982200Y-90580900D02*
X109727900Y-90580900D01*
X106273800Y-80234200D02*
X106273800Y-81131400D01*
%TO.N,SWO*%
X107273800Y-81131400D02*
X107273800Y-85497700D01*
X109622100Y-87135000D02*
X109730000Y-87135000D01*
X107273800Y-80234200D02*
X107273800Y-81131400D01*
X107273800Y-85497700D02*
X108093900Y-86317800D01*
X108804900Y-86317800D02*
X109622100Y-87135000D01*
X108093900Y-86317800D02*
X108804900Y-86317800D01*
%TO.N,Net-(D2-Pad1)*%
X117287500Y-71375000D02*
X117500000Y-71587500D01*
X115500000Y-71375000D02*
X117287500Y-71375000D01*
%TD*%
%TA.AperFunction,Conductor*%
%TO.N,GND*%
G36*
X117396021Y-77425402D02*
G01*
X117442514Y-77479058D01*
X117453900Y-77531400D01*
X117453900Y-78602784D01*
X117458375Y-78618023D01*
X117459765Y-78619228D01*
X117467448Y-78620899D01*
X117689069Y-78620899D01*
X117695890Y-78620529D01*
X117746752Y-78615005D01*
X117762004Y-78611379D01*
X117882454Y-78566224D01*
X117898049Y-78557686D01*
X117924018Y-78538223D01*
X117990525Y-78513375D01*
X118059907Y-78528428D01*
X118075148Y-78538223D01*
X118108895Y-78563515D01*
X118245284Y-78614645D01*
X118307466Y-78621400D01*
X119292734Y-78621400D01*
X119296129Y-78621031D01*
X119296133Y-78621031D01*
X119351893Y-78614974D01*
X119421776Y-78627503D01*
X119473791Y-78675824D01*
X119491500Y-78740237D01*
X119491500Y-90865500D01*
X119471498Y-90933621D01*
X119417842Y-90980114D01*
X119365500Y-90991500D01*
X114938639Y-90991500D01*
X114870518Y-90971498D01*
X114824025Y-90917842D01*
X114813921Y-90847568D01*
X114843415Y-90782988D01*
X114849544Y-90776405D01*
X115468734Y-90157215D01*
X115481125Y-90146348D01*
X115499937Y-90131913D01*
X115506487Y-90126887D01*
X115530974Y-90094975D01*
X115530978Y-90094971D01*
X115604024Y-89999776D01*
X115665338Y-89851751D01*
X115672381Y-89798250D01*
X115681000Y-89732785D01*
X115681000Y-89732780D01*
X115686250Y-89692900D01*
X115682078Y-89661207D01*
X115681000Y-89644764D01*
X115681000Y-88446036D01*
X115682078Y-88429590D01*
X115685172Y-88406088D01*
X115686250Y-88397900D01*
X115681000Y-88358020D01*
X115681000Y-88358015D01*
X115677794Y-88333663D01*
X115667391Y-88254641D01*
X115667390Y-88254639D01*
X115665338Y-88239050D01*
X115665338Y-88239049D01*
X115604024Y-88091024D01*
X115594031Y-88078000D01*
X115530983Y-87995836D01*
X115530977Y-87995828D01*
X115530974Y-87995825D01*
X115506487Y-87963913D01*
X115499932Y-87958883D01*
X115481121Y-87944448D01*
X115468730Y-87933581D01*
X114543767Y-87008618D01*
X114509741Y-86946306D01*
X114512497Y-86882266D01*
X114565656Y-86710537D01*
X114574688Y-86624608D01*
X114586372Y-86513438D01*
X114586372Y-86513437D01*
X114587016Y-86507310D01*
X114568496Y-86303804D01*
X114566756Y-86297893D01*
X114566755Y-86297886D01*
X114527871Y-86165770D01*
X114527825Y-86094774D01*
X114559649Y-86041100D01*
X115480634Y-85120115D01*
X115493025Y-85109248D01*
X115511837Y-85094813D01*
X115518387Y-85089787D01*
X115542874Y-85057875D01*
X115542878Y-85057871D01*
X115615924Y-84962676D01*
X115673187Y-84824431D01*
X115674079Y-84822278D01*
X115674079Y-84822277D01*
X115677238Y-84814651D01*
X115680305Y-84791351D01*
X115692900Y-84695685D01*
X115692900Y-84695680D01*
X115698150Y-84655800D01*
X115693978Y-84624107D01*
X115692900Y-84607664D01*
X115692900Y-81574916D01*
X115712902Y-81506795D01*
X115766558Y-81460302D01*
X115836832Y-81450198D01*
X115858568Y-81455323D01*
X115903769Y-81470316D01*
X115917132Y-81473181D01*
X116009770Y-81482672D01*
X116016185Y-81483000D01*
X116090385Y-81483000D01*
X116105624Y-81478525D01*
X116106829Y-81477135D01*
X116108500Y-81469452D01*
X116108500Y-81464885D01*
X116616500Y-81464885D01*
X116620975Y-81480124D01*
X116622365Y-81481329D01*
X116630048Y-81483000D01*
X116708766Y-81483000D01*
X116715282Y-81482663D01*
X116809132Y-81472925D01*
X116822528Y-81470032D01*
X116973953Y-81419512D01*
X116987115Y-81413347D01*
X117122492Y-81329574D01*
X117133890Y-81320540D01*
X117246363Y-81207871D01*
X117255375Y-81196460D01*
X117338912Y-81060937D01*
X117345056Y-81047759D01*
X117395315Y-80896234D01*
X117398181Y-80882868D01*
X117407672Y-80790230D01*
X117408000Y-80783815D01*
X117408000Y-80772115D01*
X117403525Y-80756876D01*
X117402135Y-80755671D01*
X117394452Y-80754000D01*
X116634615Y-80754000D01*
X116619376Y-80758475D01*
X116618171Y-80759865D01*
X116616500Y-80767548D01*
X116616500Y-81464885D01*
X116108500Y-81464885D01*
X116108500Y-80227885D01*
X116616500Y-80227885D01*
X116620975Y-80243124D01*
X116622365Y-80244329D01*
X116630048Y-80246000D01*
X117389885Y-80246000D01*
X117405124Y-80241525D01*
X117406329Y-80240135D01*
X117408000Y-80232452D01*
X117408000Y-80216234D01*
X117407663Y-80209718D01*
X117397925Y-80115868D01*
X117395032Y-80102472D01*
X117344512Y-79951047D01*
X117338347Y-79937885D01*
X117254574Y-79802508D01*
X117245540Y-79791110D01*
X117132871Y-79678637D01*
X117121460Y-79669625D01*
X116985937Y-79586088D01*
X116972759Y-79579944D01*
X116821234Y-79529685D01*
X116807868Y-79526819D01*
X116715230Y-79517328D01*
X116708815Y-79517000D01*
X116634615Y-79517000D01*
X116619376Y-79521475D01*
X116618171Y-79522865D01*
X116616500Y-79530548D01*
X116616500Y-80227885D01*
X116108500Y-80227885D01*
X116108500Y-79535115D01*
X116104025Y-79519876D01*
X116102635Y-79518671D01*
X116094952Y-79517000D01*
X116016234Y-79517000D01*
X116009718Y-79517337D01*
X115915868Y-79527075D01*
X115902472Y-79529968D01*
X115751047Y-79580488D01*
X115737885Y-79586653D01*
X115602508Y-79670426D01*
X115591106Y-79679464D01*
X115589433Y-79681139D01*
X115588007Y-79681919D01*
X115585373Y-79684007D01*
X115585016Y-79683556D01*
X115527151Y-79715219D01*
X115456331Y-79710216D01*
X115411246Y-79681299D01*
X115408185Y-79678244D01*
X115403003Y-79673071D01*
X115364162Y-79649129D01*
X115278822Y-79596524D01*
X115228529Y-79537482D01*
X115199638Y-79467734D01*
X115169024Y-79393825D01*
X115162691Y-79385571D01*
X115129794Y-79342700D01*
X115129793Y-79342699D01*
X115121453Y-79331829D01*
X115095977Y-79298628D01*
X115095974Y-79298625D01*
X115083025Y-79281749D01*
X115076516Y-79273266D01*
X115076513Y-79273263D01*
X115071487Y-79266713D01*
X115056538Y-79255242D01*
X115046121Y-79247248D01*
X115033730Y-79236381D01*
X114218394Y-78421045D01*
X114184368Y-78358733D01*
X114189433Y-78287918D01*
X114231980Y-78231082D01*
X114298500Y-78206271D01*
X114323933Y-78207028D01*
X114335115Y-78208500D01*
X114592468Y-78208500D01*
X114849884Y-78208499D01*
X114853969Y-78207961D01*
X114853973Y-78207961D01*
X114960655Y-78193917D01*
X114960656Y-78193917D01*
X114968850Y-78192838D01*
X114971230Y-78191852D01*
X115033590Y-78191852D01*
X115039474Y-78193429D01*
X115146066Y-78207462D01*
X115154275Y-78208000D01*
X115189385Y-78208000D01*
X115204624Y-78203525D01*
X115205829Y-78202135D01*
X115207500Y-78194452D01*
X115207500Y-78121140D01*
X115227502Y-78053019D01*
X115240981Y-78036294D01*
X115243987Y-78033987D01*
X115341524Y-77906875D01*
X115365091Y-77849979D01*
X115409639Y-77794698D01*
X115477003Y-77772277D01*
X115545794Y-77789835D01*
X115594172Y-77841797D01*
X115607500Y-77898197D01*
X115607500Y-78189884D01*
X115611975Y-78205123D01*
X115613365Y-78206328D01*
X115621048Y-78207999D01*
X115660723Y-78207999D01*
X115668935Y-78207461D01*
X115775533Y-78193428D01*
X115791348Y-78189190D01*
X115923993Y-78134247D01*
X115938172Y-78126061D01*
X116044696Y-78044321D01*
X116110916Y-78018720D01*
X116180465Y-78032984D01*
X116231262Y-78082585D01*
X116247401Y-78144283D01*
X116247401Y-78157569D01*
X116247771Y-78164390D01*
X116253295Y-78215252D01*
X116256921Y-78230504D01*
X116302076Y-78350954D01*
X116310614Y-78366549D01*
X116387115Y-78468624D01*
X116399676Y-78481185D01*
X116501751Y-78557686D01*
X116517346Y-78566224D01*
X116637794Y-78611378D01*
X116653049Y-78615005D01*
X116703914Y-78620531D01*
X116710728Y-78620900D01*
X116927785Y-78620900D01*
X116943024Y-78616425D01*
X116944229Y-78615035D01*
X116945900Y-78607352D01*
X116945900Y-77877015D01*
X116941425Y-77861776D01*
X116940035Y-77860571D01*
X116932352Y-77858900D01*
X116333400Y-77858900D01*
X116265279Y-77838898D01*
X116218786Y-77785242D01*
X116207400Y-77732900D01*
X116207400Y-77718115D01*
X116202925Y-77702876D01*
X116201535Y-77701671D01*
X116193852Y-77700000D01*
X115625614Y-77700000D01*
X115579997Y-77713394D01*
X115509001Y-77713394D01*
X115449275Y-77675010D01*
X115419782Y-77610429D01*
X115418500Y-77592500D01*
X115418500Y-77566851D01*
X115418499Y-77531401D01*
X115438500Y-77463281D01*
X115492155Y-77416787D01*
X115544499Y-77405400D01*
X117327900Y-77405400D01*
X117396021Y-77425402D01*
G37*
%TD.AperFunction*%
%TA.AperFunction,Conductor*%
G36*
X98911561Y-68028502D02*
G01*
X98958054Y-68082158D01*
X98968158Y-68152432D01*
X98938664Y-68217012D01*
X98932535Y-68223595D01*
X96644480Y-70511650D01*
X96638215Y-70517504D01*
X96594615Y-70555539D01*
X96590248Y-70561753D01*
X96557872Y-70607819D01*
X96553939Y-70613114D01*
X96514524Y-70663382D01*
X96511401Y-70670298D01*
X96510017Y-70672584D01*
X96501643Y-70687265D01*
X96500378Y-70689625D01*
X96496010Y-70695839D01*
X96493250Y-70702918D01*
X96493249Y-70702920D01*
X96485049Y-70723952D01*
X96441669Y-70780154D01*
X96411886Y-70796165D01*
X96403295Y-70799385D01*
X96380689Y-70816327D01*
X96314185Y-70841174D01*
X96305126Y-70841500D01*
X96278627Y-70841500D01*
X96270058Y-70841208D01*
X96219925Y-70837790D01*
X96219921Y-70837790D01*
X96212348Y-70837274D01*
X96149381Y-70848264D01*
X96142869Y-70849224D01*
X96079458Y-70856898D01*
X96072357Y-70859581D01*
X96069748Y-70860222D01*
X96053415Y-70864691D01*
X96050894Y-70865452D01*
X96043417Y-70866757D01*
X96036471Y-70869806D01*
X96036468Y-70869807D01*
X96011257Y-70880874D01*
X95960612Y-70891500D01*
X94601035Y-70891500D01*
X94532914Y-70871498D01*
X94525471Y-70866327D01*
X94520591Y-70862670D01*
X94513405Y-70857284D01*
X94377016Y-70806154D01*
X94314834Y-70799399D01*
X94217279Y-70799399D01*
X94149158Y-70779397D01*
X94102665Y-70725741D01*
X94092561Y-70655467D01*
X94122055Y-70590887D01*
X94156196Y-70563196D01*
X94158720Y-70561797D01*
X94219803Y-70546000D01*
X94756584Y-70546000D01*
X94771823Y-70541525D01*
X94773028Y-70540135D01*
X94774699Y-70532452D01*
X94774699Y-70463231D01*
X94774329Y-70456410D01*
X94768805Y-70405548D01*
X94765179Y-70390296D01*
X94720024Y-70269846D01*
X94711486Y-70254251D01*
X94638945Y-70157460D01*
X94614097Y-70090953D01*
X94621674Y-70037974D01*
X94621878Y-70037426D01*
X94624696Y-70031699D01*
X94676100Y-69834357D01*
X94681969Y-69722356D01*
X94686438Y-69637092D01*
X94686438Y-69637088D01*
X94686772Y-69630710D01*
X94656278Y-69429076D01*
X94621473Y-69334477D01*
X94588067Y-69243682D01*
X94588066Y-69243681D01*
X94585863Y-69237692D01*
X94478402Y-69064376D01*
X94338286Y-68916207D01*
X94266292Y-68865796D01*
X94176472Y-68802904D01*
X94176471Y-68802903D01*
X94171239Y-68799240D01*
X93984084Y-68718251D01*
X93933627Y-68707710D01*
X93789212Y-68677539D01*
X93789208Y-68677539D01*
X93784467Y-68676548D01*
X93779630Y-68676295D01*
X93779626Y-68676294D01*
X93779560Y-68676291D01*
X93777788Y-68676198D01*
X92510433Y-68676198D01*
X92437787Y-68683577D01*
X92364866Y-68690984D01*
X92364865Y-68690984D01*
X92358517Y-68691629D01*
X92163922Y-68752612D01*
X91985563Y-68851477D01*
X91830727Y-68984188D01*
X91705739Y-69145322D01*
X91615704Y-69328297D01*
X91614095Y-69334475D01*
X91614094Y-69334477D01*
X91570445Y-69502049D01*
X91564300Y-69525639D01*
X91563966Y-69532018D01*
X91557257Y-69660044D01*
X91553628Y-69729286D01*
X91584122Y-69930920D01*
X91586328Y-69936915D01*
X91586328Y-69936916D01*
X91633856Y-70066093D01*
X91654537Y-70122304D01*
X91732738Y-70248428D01*
X91758380Y-70289784D01*
X91761998Y-70295620D01*
X91766379Y-70300253D01*
X91766380Y-70300254D01*
X91791605Y-70326929D01*
X91902114Y-70443789D01*
X91907340Y-70447448D01*
X91912173Y-70451620D01*
X91910520Y-70453534D01*
X91947843Y-70500231D01*
X91955148Y-70570851D01*
X91936781Y-70613640D01*
X91937941Y-70614310D01*
X91854725Y-70758445D01*
X91849790Y-70766992D01*
X91827234Y-70836412D01*
X91799726Y-70921075D01*
X91795310Y-70934665D01*
X91794620Y-70941228D01*
X91794620Y-70941229D01*
X91784793Y-71034729D01*
X91776881Y-71110001D01*
X91795310Y-71285337D01*
X91849790Y-71453010D01*
X91937941Y-71605692D01*
X92055910Y-71736710D01*
X92147031Y-71802914D01*
X92174170Y-71822631D01*
X92198541Y-71840338D01*
X92204570Y-71843022D01*
X92204573Y-71843024D01*
X92353565Y-71909359D01*
X92353568Y-71909360D01*
X92359601Y-71912046D01*
X92515398Y-71945162D01*
X92577870Y-71978889D01*
X92612192Y-72041039D01*
X92615200Y-72068408D01*
X92615200Y-72450535D01*
X92615569Y-72453928D01*
X92615569Y-72453935D01*
X92619095Y-72486393D01*
X92619095Y-72513607D01*
X92615569Y-72546065D01*
X92615200Y-72549466D01*
X92615200Y-72593412D01*
X92595198Y-72661533D01*
X92537420Y-72709820D01*
X92524156Y-72715314D01*
X92524152Y-72715317D01*
X92516524Y-72718476D01*
X92509973Y-72723503D01*
X92509971Y-72723504D01*
X92440273Y-72776986D01*
X92421328Y-72791523D01*
X92421325Y-72791526D01*
X92389413Y-72816013D01*
X92384383Y-72822568D01*
X92369948Y-72841379D01*
X92359081Y-72853770D01*
X90510266Y-74702585D01*
X90497875Y-74713452D01*
X90472513Y-74732913D01*
X90448026Y-74764825D01*
X90448023Y-74764828D01*
X90448017Y-74764836D01*
X90409356Y-74815220D01*
X90374976Y-74860024D01*
X90313662Y-75008049D01*
X90312584Y-75016236D01*
X90312584Y-75016237D01*
X90311109Y-75027442D01*
X90307760Y-75052882D01*
X90298000Y-75127015D01*
X90298000Y-75127020D01*
X90292750Y-75166900D01*
X90293828Y-75175088D01*
X90296922Y-75198590D01*
X90298000Y-75215036D01*
X90298000Y-77548489D01*
X90277998Y-77616610D01*
X90224342Y-77663103D01*
X90154068Y-77673207D01*
X90089488Y-77643713D01*
X90080451Y-77635062D01*
X90010271Y-77560848D01*
X90005886Y-77556211D01*
X89909025Y-77488388D01*
X89844072Y-77442908D01*
X89844071Y-77442907D01*
X89838839Y-77439244D01*
X89651684Y-77358255D01*
X89601227Y-77347714D01*
X89456812Y-77317543D01*
X89456808Y-77317543D01*
X89452067Y-77316552D01*
X89447230Y-77316299D01*
X89447226Y-77316298D01*
X89447160Y-77316295D01*
X89445388Y-77316202D01*
X88482833Y-77316202D01*
X88410187Y-77323581D01*
X88337266Y-77330988D01*
X88337265Y-77330988D01*
X88330917Y-77331633D01*
X88136322Y-77392616D01*
X87957963Y-77491481D01*
X87803127Y-77624192D01*
X87678139Y-77785326D01*
X87588104Y-77968301D01*
X87586495Y-77974479D01*
X87586494Y-77974481D01*
X87566037Y-78053019D01*
X87536700Y-78165643D01*
X87534480Y-78208000D01*
X87526536Y-78359605D01*
X87526028Y-78369290D01*
X87556522Y-78570924D01*
X87558728Y-78576919D01*
X87558728Y-78576920D01*
X87618817Y-78740237D01*
X87626937Y-78762308D01*
X87698995Y-78878525D01*
X87723737Y-78918429D01*
X87734398Y-78935624D01*
X87874514Y-79083793D01*
X87879744Y-79087455D01*
X87879745Y-79087456D01*
X88036328Y-79197096D01*
X88041561Y-79200760D01*
X88228716Y-79281749D01*
X88234964Y-79283054D01*
X88234963Y-79283054D01*
X88423588Y-79322461D01*
X88423592Y-79322461D01*
X88428333Y-79323452D01*
X88433170Y-79323705D01*
X88433174Y-79323706D01*
X88433240Y-79323709D01*
X88435012Y-79323802D01*
X89183759Y-79323802D01*
X89251880Y-79343804D01*
X89298373Y-79397460D01*
X89308477Y-79467734D01*
X89278983Y-79532314D01*
X89272854Y-79538897D01*
X88187766Y-80623985D01*
X88175375Y-80634852D01*
X88150013Y-80654313D01*
X88125526Y-80686225D01*
X88125523Y-80686228D01*
X88125517Y-80686236D01*
X88061508Y-80769654D01*
X88052476Y-80781424D01*
X87991162Y-80929449D01*
X87991162Y-80929450D01*
X87989414Y-80942726D01*
X87978523Y-81025450D01*
X87975500Y-81048415D01*
X87975500Y-81048420D01*
X87970250Y-81088300D01*
X87973928Y-81116234D01*
X87974422Y-81119990D01*
X87975500Y-81136436D01*
X87975500Y-82811764D01*
X87974422Y-82828207D01*
X87970250Y-82859900D01*
X87975500Y-82899780D01*
X87975500Y-82899785D01*
X87977523Y-82915150D01*
X87991162Y-83018751D01*
X88052476Y-83166776D01*
X88057503Y-83173327D01*
X88057504Y-83173329D01*
X88125520Y-83261969D01*
X88125526Y-83261975D01*
X88150013Y-83293887D01*
X88156568Y-83298917D01*
X88175379Y-83313352D01*
X88187770Y-83324219D01*
X94412585Y-89549034D01*
X94423452Y-89561425D01*
X94442913Y-89586787D01*
X94449463Y-89591813D01*
X94474821Y-89611271D01*
X94474837Y-89611285D01*
X94524205Y-89649166D01*
X94570024Y-89684324D01*
X94610499Y-89701089D01*
X94710420Y-89742478D01*
X94710423Y-89742479D01*
X94718050Y-89745638D01*
X94876900Y-89766551D01*
X94908599Y-89762378D01*
X94925044Y-89761300D01*
X102827564Y-89761300D01*
X102844007Y-89762378D01*
X102875700Y-89766550D01*
X102883889Y-89765472D01*
X102915574Y-89761301D01*
X102915584Y-89761300D01*
X102915585Y-89761300D01*
X103015157Y-89748191D01*
X103026364Y-89746716D01*
X103026366Y-89746715D01*
X103034551Y-89745638D01*
X103182576Y-89684324D01*
X103223372Y-89653020D01*
X103277769Y-89611280D01*
X103277775Y-89611274D01*
X103303134Y-89591815D01*
X103309687Y-89586787D01*
X103314717Y-89580232D01*
X103329152Y-89561421D01*
X103340019Y-89549030D01*
X104056634Y-88832415D01*
X104069025Y-88821548D01*
X104087837Y-88807113D01*
X104094387Y-88802087D01*
X104118874Y-88770175D01*
X104118877Y-88770172D01*
X104191923Y-88674976D01*
X104191924Y-88674975D01*
X104253238Y-88526950D01*
X104268900Y-88407985D01*
X104268900Y-88407978D01*
X104274150Y-88368100D01*
X104269978Y-88336407D01*
X104268900Y-88319964D01*
X104268900Y-81373139D01*
X104288902Y-81305018D01*
X104305805Y-81284044D01*
X104897805Y-80692044D01*
X104960117Y-80658018D01*
X105030932Y-80663083D01*
X105087768Y-80705630D01*
X105112579Y-80772150D01*
X105112900Y-80781139D01*
X105112900Y-80879233D01*
X105113269Y-80882630D01*
X105117528Y-80921832D01*
X105119655Y-80941415D01*
X105122427Y-80948808D01*
X105122427Y-80948810D01*
X105157282Y-81041785D01*
X105165300Y-81086014D01*
X105165300Y-87156564D01*
X105164222Y-87173007D01*
X105160050Y-87204700D01*
X105165300Y-87244580D01*
X105165300Y-87244585D01*
X105178409Y-87344157D01*
X105180962Y-87363551D01*
X105242276Y-87511576D01*
X105247303Y-87518127D01*
X105247304Y-87518129D01*
X105315320Y-87606769D01*
X105315326Y-87606775D01*
X105339813Y-87638687D01*
X105346368Y-87643717D01*
X105365179Y-87658152D01*
X105377570Y-87669019D01*
X108484956Y-90776405D01*
X108518982Y-90838717D01*
X108513917Y-90909532D01*
X108471370Y-90966368D01*
X108404850Y-90991179D01*
X108395861Y-90991500D01*
X86634500Y-90991500D01*
X86566379Y-90971498D01*
X86519886Y-90917842D01*
X86508500Y-90865500D01*
X86508500Y-69729286D01*
X87526028Y-69729286D01*
X87556522Y-69930920D01*
X87558728Y-69936915D01*
X87558728Y-69936916D01*
X87606256Y-70066093D01*
X87626937Y-70122304D01*
X87705138Y-70248428D01*
X87730780Y-70289784D01*
X87734398Y-70295620D01*
X87738779Y-70300253D01*
X87738780Y-70300254D01*
X87846153Y-70413798D01*
X87874514Y-70443789D01*
X87879744Y-70447451D01*
X87879745Y-70447452D01*
X88036328Y-70557092D01*
X88041561Y-70560756D01*
X88228716Y-70641745D01*
X88234964Y-70643050D01*
X88234963Y-70643050D01*
X88423588Y-70682457D01*
X88423592Y-70682457D01*
X88428333Y-70683448D01*
X88433170Y-70683701D01*
X88433174Y-70683702D01*
X88433240Y-70683705D01*
X88435012Y-70683798D01*
X89397567Y-70683798D01*
X89470213Y-70676419D01*
X89543134Y-70669012D01*
X89543135Y-70669012D01*
X89549483Y-70668367D01*
X89744078Y-70607384D01*
X89922437Y-70508519D01*
X90077273Y-70375808D01*
X90202261Y-70214674D01*
X90280870Y-70054920D01*
X90289478Y-70037426D01*
X90292296Y-70031699D01*
X90304218Y-69985929D01*
X90342090Y-69840539D01*
X90342090Y-69840536D01*
X90343700Y-69834357D01*
X90349569Y-69722356D01*
X90354038Y-69637092D01*
X90354038Y-69637088D01*
X90354372Y-69630710D01*
X90323878Y-69429076D01*
X90289073Y-69334477D01*
X90255667Y-69243682D01*
X90255666Y-69243681D01*
X90253463Y-69237692D01*
X90146002Y-69064376D01*
X90005886Y-68916207D01*
X89933892Y-68865796D01*
X89844072Y-68802904D01*
X89844071Y-68802903D01*
X89838839Y-68799240D01*
X89651684Y-68718251D01*
X89601227Y-68707710D01*
X89456812Y-68677539D01*
X89456808Y-68677539D01*
X89452067Y-68676548D01*
X89447230Y-68676295D01*
X89447226Y-68676294D01*
X89447160Y-68676291D01*
X89445388Y-68676198D01*
X88482833Y-68676198D01*
X88410187Y-68683577D01*
X88337266Y-68690984D01*
X88337265Y-68690984D01*
X88330917Y-68691629D01*
X88136322Y-68752612D01*
X87957963Y-68851477D01*
X87803127Y-68984188D01*
X87678139Y-69145322D01*
X87588104Y-69328297D01*
X87586495Y-69334475D01*
X87586494Y-69334477D01*
X87542845Y-69502049D01*
X87536700Y-69525639D01*
X87536366Y-69532018D01*
X87529657Y-69660044D01*
X87526028Y-69729286D01*
X86508500Y-69729286D01*
X86508500Y-68134500D01*
X86528502Y-68066379D01*
X86582158Y-68019886D01*
X86634500Y-68008500D01*
X98843440Y-68008500D01*
X98911561Y-68028502D01*
G37*
%TD.AperFunction*%
%TA.AperFunction,Conductor*%
G36*
X103017111Y-78225902D02*
G01*
X103025690Y-78231935D01*
X103028741Y-78234276D01*
X103069725Y-78265724D01*
X103091120Y-78274586D01*
X103146401Y-78319134D01*
X103168902Y-78390995D01*
X103168902Y-78431270D01*
X103169272Y-78438094D01*
X103172549Y-78468270D01*
X103172549Y-78495481D01*
X103170136Y-78517698D01*
X103168401Y-78533666D01*
X103168401Y-78934734D01*
X103175156Y-78996916D01*
X103226286Y-79133305D01*
X103313640Y-79249861D01*
X103430196Y-79337215D01*
X103566585Y-79388345D01*
X103628767Y-79395100D01*
X104169461Y-79395100D01*
X104237582Y-79415102D01*
X104284075Y-79468758D01*
X104294179Y-79539032D01*
X104264685Y-79603612D01*
X104258556Y-79610195D01*
X103264166Y-80604585D01*
X103251775Y-80615452D01*
X103226413Y-80634913D01*
X103201926Y-80666825D01*
X103201923Y-80666828D01*
X103128876Y-80762024D01*
X103068819Y-80907015D01*
X103067562Y-80910050D01*
X103051900Y-81029015D01*
X103051900Y-81029020D01*
X103046650Y-81068900D01*
X103047728Y-81077088D01*
X103050822Y-81100590D01*
X103051900Y-81117036D01*
X103051900Y-86516602D01*
X103031898Y-86584723D01*
X102978242Y-86631216D01*
X102907968Y-86641320D01*
X102884567Y-86635630D01*
X102769273Y-86595593D01*
X102768284Y-86595352D01*
X102757992Y-86596820D01*
X102754000Y-86610385D01*
X102754000Y-88078000D01*
X102733998Y-88146121D01*
X102680342Y-88192614D01*
X102628000Y-88204000D01*
X102372000Y-88204000D01*
X102303879Y-88183998D01*
X102257386Y-88130342D01*
X102246000Y-88078000D01*
X102246000Y-86614598D01*
X102242027Y-86601067D01*
X102232601Y-86599712D01*
X102143463Y-86621194D01*
X102132168Y-86625083D01*
X101950618Y-86707629D01*
X101940276Y-86713576D01*
X101777603Y-86828968D01*
X101768575Y-86836761D01*
X101630658Y-86980831D01*
X101623259Y-86990200D01*
X101605582Y-87017577D01*
X101551828Y-87063955D01*
X101481532Y-87073909D01*
X101417015Y-87044278D01*
X101400644Y-87027063D01*
X101337208Y-86946306D01*
X101306396Y-86907080D01*
X101301865Y-86903148D01*
X101301862Y-86903145D01*
X101151167Y-86772379D01*
X101146637Y-86768448D01*
X101141451Y-86765448D01*
X101141447Y-86765445D01*
X100968742Y-86665533D01*
X100963546Y-86662527D01*
X100763729Y-86593139D01*
X100757794Y-86592278D01*
X100757792Y-86592278D01*
X100560336Y-86563648D01*
X100560333Y-86563648D01*
X100554396Y-86562787D01*
X100343101Y-86572567D01*
X100230466Y-86599712D01*
X100143299Y-86620719D01*
X100143297Y-86620720D01*
X100137466Y-86622125D01*
X100132008Y-86624607D01*
X100132004Y-86624608D01*
X100016959Y-86676916D01*
X99944913Y-86709674D01*
X99772389Y-86832054D01*
X99626119Y-86984850D01*
X99622866Y-86989888D01*
X99605254Y-87017163D01*
X99551499Y-87063540D01*
X99481203Y-87073493D01*
X99416686Y-87043861D01*
X99400317Y-87026647D01*
X99393193Y-87017577D01*
X99306396Y-86907080D01*
X99301865Y-86903148D01*
X99301862Y-86903145D01*
X99151167Y-86772379D01*
X99146637Y-86768448D01*
X99141451Y-86765448D01*
X99141447Y-86765445D01*
X98968742Y-86665533D01*
X98963546Y-86662527D01*
X98763729Y-86593139D01*
X98757794Y-86592278D01*
X98757792Y-86592278D01*
X98560336Y-86563648D01*
X98560333Y-86563648D01*
X98554396Y-86562787D01*
X98343101Y-86572567D01*
X98230466Y-86599712D01*
X98143299Y-86620719D01*
X98143297Y-86620720D01*
X98137466Y-86622125D01*
X98132008Y-86624607D01*
X98132004Y-86624608D01*
X98016959Y-86676916D01*
X97944913Y-86709674D01*
X97772389Y-86832054D01*
X97768247Y-86836381D01*
X97768241Y-86836386D01*
X97681194Y-86927317D01*
X97619639Y-86962694D01*
X97548730Y-86959175D01*
X97490979Y-86917879D01*
X97483032Y-86906491D01*
X97448478Y-86850652D01*
X97323303Y-86725695D01*
X97308256Y-86716420D01*
X97178968Y-86636725D01*
X97178966Y-86636724D01*
X97172738Y-86632885D01*
X97064005Y-86596820D01*
X97011389Y-86579368D01*
X97011387Y-86579368D01*
X97004861Y-86577203D01*
X96998025Y-86576503D01*
X96998022Y-86576502D01*
X96954969Y-86572091D01*
X96900400Y-86566500D01*
X96334500Y-86566500D01*
X96266379Y-86546498D01*
X96219886Y-86492842D01*
X96208500Y-86440500D01*
X96208500Y-84922032D01*
X96228502Y-84853911D01*
X96253215Y-84826621D01*
X96254031Y-84826116D01*
X96285879Y-84794213D01*
X96348159Y-84760134D01*
X96418979Y-84765137D01*
X96464067Y-84794057D01*
X96490041Y-84819985D01*
X96496997Y-84826929D01*
X96503227Y-84830769D01*
X96503228Y-84830770D01*
X96541500Y-84854361D01*
X96645080Y-84918209D01*
X96810191Y-84972974D01*
X96817027Y-84973674D01*
X96817030Y-84973675D01*
X96868526Y-84978951D01*
X96912928Y-84983500D01*
X97587072Y-84983500D01*
X97590318Y-84983163D01*
X97590322Y-84983163D01*
X97684235Y-84973419D01*
X97684239Y-84973418D01*
X97691093Y-84972707D01*
X97697629Y-84970526D01*
X97697631Y-84970526D01*
X97830395Y-84926232D01*
X97856107Y-84917654D01*
X98004031Y-84826116D01*
X98023647Y-84806466D01*
X98121758Y-84708184D01*
X98121762Y-84708179D01*
X98126929Y-84703003D01*
X98131443Y-84695680D01*
X98214369Y-84561150D01*
X98214370Y-84561148D01*
X98218209Y-84554920D01*
X98272974Y-84389809D01*
X98283500Y-84287072D01*
X98283500Y-83712928D01*
X98272707Y-83608907D01*
X98217654Y-83443893D01*
X98126116Y-83295969D01*
X98069915Y-83239866D01*
X98008184Y-83178242D01*
X98008179Y-83178238D01*
X98003003Y-83173071D01*
X97980413Y-83159146D01*
X97918384Y-83120911D01*
X97870891Y-83068139D01*
X97858500Y-83013651D01*
X97858500Y-82238600D01*
X97878502Y-82170479D01*
X97920361Y-82130147D01*
X98049980Y-82053491D01*
X98049983Y-82053489D01*
X98056807Y-82049453D01*
X98174453Y-81931807D01*
X98178489Y-81924983D01*
X98178491Y-81924980D01*
X98247003Y-81809132D01*
X98259145Y-81788601D01*
X98282339Y-81708766D01*
X99517000Y-81708766D01*
X99517337Y-81715282D01*
X99527075Y-81809132D01*
X99529968Y-81822528D01*
X99580488Y-81973953D01*
X99586653Y-81987115D01*
X99670426Y-82122492D01*
X99679460Y-82133890D01*
X99792129Y-82246363D01*
X99803540Y-82255375D01*
X99939063Y-82338912D01*
X99952241Y-82345056D01*
X100103766Y-82395315D01*
X100117132Y-82398181D01*
X100209770Y-82407672D01*
X100216185Y-82408000D01*
X100227885Y-82408000D01*
X100243124Y-82403525D01*
X100244329Y-82402135D01*
X100246000Y-82394452D01*
X100246000Y-82389885D01*
X100754000Y-82389885D01*
X100758475Y-82405124D01*
X100759865Y-82406329D01*
X100767548Y-82408000D01*
X100783766Y-82408000D01*
X100790282Y-82407663D01*
X100884132Y-82397925D01*
X100897528Y-82395032D01*
X101048953Y-82344512D01*
X101062115Y-82338347D01*
X101197492Y-82254574D01*
X101208890Y-82245540D01*
X101321363Y-82132871D01*
X101330375Y-82121460D01*
X101413912Y-81985937D01*
X101420056Y-81972759D01*
X101470315Y-81821234D01*
X101473181Y-81807868D01*
X101482672Y-81715230D01*
X101483000Y-81708815D01*
X101483000Y-81684615D01*
X101478525Y-81669376D01*
X101477135Y-81668171D01*
X101469452Y-81666500D01*
X100772115Y-81666500D01*
X100756876Y-81670975D01*
X100755671Y-81672365D01*
X100754000Y-81680048D01*
X100754000Y-82389885D01*
X100246000Y-82389885D01*
X100246000Y-81684615D01*
X100241525Y-81669376D01*
X100240135Y-81668171D01*
X100232452Y-81666500D01*
X99535115Y-81666500D01*
X99519876Y-81670975D01*
X99518671Y-81672365D01*
X99517000Y-81680048D01*
X99517000Y-81708766D01*
X98282339Y-81708766D01*
X98305562Y-81628831D01*
X98307084Y-81609500D01*
X98308307Y-81593958D01*
X98308307Y-81593950D01*
X98308500Y-81591502D01*
X98308500Y-80434500D01*
X98328502Y-80366379D01*
X98382158Y-80319886D01*
X98434500Y-80308500D01*
X98666502Y-80308500D01*
X98668950Y-80308307D01*
X98668958Y-80308307D01*
X98697421Y-80306067D01*
X98697426Y-80306066D01*
X98703831Y-80305562D01*
X98803769Y-80276528D01*
X98855988Y-80261357D01*
X98855990Y-80261356D01*
X98863601Y-80259145D01*
X98916459Y-80227885D01*
X98999980Y-80178491D01*
X98999983Y-80178489D01*
X99006807Y-80174453D01*
X99124453Y-80056807D01*
X99128489Y-80049983D01*
X99128491Y-80049980D01*
X99205108Y-79920427D01*
X99209145Y-79913601D01*
X99211356Y-79905991D01*
X99211358Y-79905986D01*
X99253233Y-79761848D01*
X99291446Y-79702012D01*
X99355942Y-79672334D01*
X99374230Y-79671000D01*
X99390500Y-79671000D01*
X99458621Y-79691002D01*
X99505114Y-79744658D01*
X99516500Y-79797000D01*
X99516500Y-79887072D01*
X99516837Y-79890318D01*
X99516837Y-79890322D01*
X99526061Y-79979218D01*
X99527293Y-79991093D01*
X99529474Y-79997629D01*
X99529474Y-79997631D01*
X99561569Y-80093832D01*
X99582346Y-80156107D01*
X99673884Y-80304031D01*
X99781141Y-80411101D01*
X99815220Y-80473382D01*
X99810217Y-80544202D01*
X99781296Y-80589291D01*
X99678637Y-80692129D01*
X99669625Y-80703540D01*
X99586088Y-80839063D01*
X99579944Y-80852241D01*
X99529685Y-81003766D01*
X99526819Y-81017132D01*
X99517328Y-81109770D01*
X99517000Y-81116185D01*
X99517000Y-81140385D01*
X99521475Y-81155624D01*
X99522865Y-81156829D01*
X99530548Y-81158500D01*
X101464885Y-81158500D01*
X101480124Y-81154025D01*
X101481329Y-81152635D01*
X101483000Y-81144952D01*
X101483000Y-81116234D01*
X101482663Y-81109718D01*
X101472925Y-81015868D01*
X101470032Y-81002472D01*
X101419512Y-80851047D01*
X101413347Y-80837885D01*
X101329574Y-80702508D01*
X101320540Y-80691110D01*
X101218860Y-80589607D01*
X101184781Y-80527324D01*
X101189784Y-80456504D01*
X101218705Y-80411416D01*
X101219022Y-80411099D01*
X101326929Y-80303003D01*
X101366951Y-80238076D01*
X101414369Y-80161150D01*
X101414370Y-80161148D01*
X101418209Y-80154920D01*
X101472974Y-79989809D01*
X101475813Y-79962105D01*
X101483172Y-79890271D01*
X101483500Y-79887072D01*
X101483500Y-79287928D01*
X101483163Y-79284678D01*
X101473419Y-79190765D01*
X101473418Y-79190761D01*
X101472707Y-79183907D01*
X101456115Y-79134173D01*
X101419972Y-79025841D01*
X101417654Y-79018893D01*
X101335792Y-78886605D01*
X101316955Y-78818154D01*
X101338117Y-78750384D01*
X101361106Y-78724492D01*
X101470779Y-78630823D01*
X101470782Y-78630819D01*
X101476555Y-78625889D01*
X101557884Y-78512709D01*
X101572192Y-78492798D01*
X101572193Y-78492797D01*
X101576624Y-78486630D01*
X101640585Y-78327520D01*
X101642488Y-78314149D01*
X101671887Y-78249525D01*
X101731558Y-78211055D01*
X101767231Y-78205900D01*
X102948990Y-78205900D01*
X103017111Y-78225902D01*
G37*
%TD.AperFunction*%
%TA.AperFunction,Conductor*%
G36*
X110834125Y-81252936D02*
G01*
X110849358Y-81262725D01*
X110874695Y-81281714D01*
X110878036Y-81282967D01*
X110926260Y-81331299D01*
X110926967Y-81333008D01*
X110932066Y-81337427D01*
X110939749Y-81339098D01*
X110970870Y-81339098D01*
X110977694Y-81338728D01*
X111007870Y-81335451D01*
X111035081Y-81335451D01*
X111069867Y-81339230D01*
X111069871Y-81339230D01*
X111073266Y-81339599D01*
X111190300Y-81339599D01*
X111258421Y-81359601D01*
X111304914Y-81413257D01*
X111316300Y-81465599D01*
X111316300Y-82292382D01*
X111296298Y-82360503D01*
X111242642Y-82406996D01*
X111172368Y-82417100D01*
X111131632Y-82403890D01*
X111130939Y-82403525D01*
X111097059Y-82385700D01*
X111059916Y-82366158D01*
X111059914Y-82366157D01*
X111055681Y-82363930D01*
X110848477Y-82292382D01*
X110810829Y-82279382D01*
X110810828Y-82279382D01*
X110806311Y-82277822D01*
X110604185Y-82240907D01*
X110550756Y-82231149D01*
X110550755Y-82231149D01*
X110546786Y-82230424D01*
X110462371Y-82226000D01*
X110297914Y-82226000D01*
X110295535Y-82226181D01*
X110295534Y-82226181D01*
X110106709Y-82240544D01*
X110106704Y-82240545D01*
X110101942Y-82240907D01*
X110097289Y-82241986D01*
X110097286Y-82241986D01*
X110039523Y-82255375D01*
X109844937Y-82300478D01*
X109599900Y-82398238D01*
X109372470Y-82531937D01*
X109368759Y-82534958D01*
X109368755Y-82534961D01*
X109358300Y-82543473D01*
X109167880Y-82698499D01*
X109164671Y-82702044D01*
X109164666Y-82702049D01*
X108994558Y-82889983D01*
X108990839Y-82894092D01*
X108845420Y-83114213D01*
X108843419Y-83118553D01*
X108843417Y-83118557D01*
X108742615Y-83337213D01*
X108734970Y-83353797D01*
X108662031Y-83607332D01*
X108661420Y-83612070D01*
X108661419Y-83612074D01*
X108628891Y-83864245D01*
X108628280Y-83868982D01*
X108634496Y-84132727D01*
X108635330Y-84137432D01*
X108663350Y-84295535D01*
X108655542Y-84366101D01*
X108610823Y-84421244D01*
X108543391Y-84443456D01*
X108525233Y-84442737D01*
X108522166Y-84442393D01*
X108522163Y-84442393D01*
X108518661Y-84442000D01*
X108408578Y-84442000D01*
X108405523Y-84442300D01*
X108405514Y-84442300D01*
X108335725Y-84449143D01*
X108256628Y-84456899D01*
X108250729Y-84458680D01*
X108250724Y-84458681D01*
X108134876Y-84493658D01*
X108061003Y-84515961D01*
X108056103Y-84518566D01*
X107985711Y-84526010D01*
X107922280Y-84494119D01*
X107886159Y-84432997D01*
X107882300Y-84402051D01*
X107882300Y-81462650D01*
X107902302Y-81394529D01*
X107955958Y-81348036D01*
X107994689Y-81337387D01*
X108010194Y-81335703D01*
X108037404Y-81335703D01*
X108073266Y-81339599D01*
X108474334Y-81339599D01*
X108510195Y-81335703D01*
X108537405Y-81335703D01*
X108573266Y-81339599D01*
X108974334Y-81339599D01*
X109010195Y-81335703D01*
X109037405Y-81335703D01*
X109073267Y-81339599D01*
X109474335Y-81339599D01*
X109477727Y-81339230D01*
X109477736Y-81339230D01*
X109510194Y-81335704D01*
X109537408Y-81335704D01*
X109569866Y-81339230D01*
X109569873Y-81339230D01*
X109573266Y-81339599D01*
X109974334Y-81339599D01*
X109977726Y-81339230D01*
X109977735Y-81339230D01*
X110010193Y-81335704D01*
X110037407Y-81335704D01*
X110069865Y-81339230D01*
X110069872Y-81339230D01*
X110073265Y-81339599D01*
X110474333Y-81339599D01*
X110482333Y-81338730D01*
X110494695Y-81337387D01*
X110512517Y-81335451D01*
X110539732Y-81335451D01*
X110569915Y-81338730D01*
X110576730Y-81339099D01*
X110603286Y-81339099D01*
X110618525Y-81334624D01*
X110640790Y-81308929D01*
X110641981Y-81309961D01*
X110647424Y-81299991D01*
X110670713Y-81282535D01*
X110672904Y-81281714D01*
X110688480Y-81270040D01*
X110698236Y-81262729D01*
X110764743Y-81237882D01*
X110834125Y-81252936D01*
G37*
%TD.AperFunction*%
%TA.AperFunction,Conductor*%
G36*
X97583621Y-78362702D02*
G01*
X97630114Y-78416358D01*
X97641500Y-78468700D01*
X97641500Y-79565500D01*
X97621498Y-79633621D01*
X97567842Y-79680114D01*
X97515500Y-79691500D01*
X97484000Y-79691500D01*
X97415879Y-79671498D01*
X97369386Y-79617842D01*
X97358000Y-79565500D01*
X97358000Y-79334615D01*
X97353525Y-79319376D01*
X97352135Y-79318171D01*
X97344452Y-79316500D01*
X96422000Y-79316500D01*
X96353879Y-79296498D01*
X96307386Y-79242842D01*
X96296000Y-79190500D01*
X96296000Y-78934500D01*
X96316002Y-78866379D01*
X96369658Y-78819886D01*
X96422000Y-78808500D01*
X97339884Y-78808500D01*
X97355123Y-78804025D01*
X97356328Y-78802635D01*
X97357999Y-78794952D01*
X97357999Y-78468700D01*
X97378001Y-78400579D01*
X97431657Y-78354086D01*
X97483999Y-78342700D01*
X97515500Y-78342700D01*
X97583621Y-78362702D01*
G37*
%TD.AperFunction*%
%TA.AperFunction,Conductor*%
G36*
X100333621Y-69325202D02*
G01*
X100380114Y-69378858D01*
X100391500Y-69431200D01*
X100391500Y-70464885D01*
X100395975Y-70480124D01*
X100397365Y-70481329D01*
X100405048Y-70483000D01*
X100483766Y-70483000D01*
X100490282Y-70482663D01*
X100584132Y-70472925D01*
X100597528Y-70470032D01*
X100748953Y-70419512D01*
X100762115Y-70413347D01*
X100897492Y-70329574D01*
X100908894Y-70320536D01*
X100910567Y-70318861D01*
X100911993Y-70318081D01*
X100914627Y-70315993D01*
X100914984Y-70316444D01*
X100972849Y-70284781D01*
X101043669Y-70289784D01*
X101088754Y-70318701D01*
X101091421Y-70321363D01*
X101096997Y-70326929D01*
X101103227Y-70330769D01*
X101103228Y-70330770D01*
X101233184Y-70410876D01*
X101245080Y-70418209D01*
X101370221Y-70459716D01*
X101428580Y-70500147D01*
X101455817Y-70565711D01*
X101443284Y-70635592D01*
X101396856Y-70686453D01*
X101307901Y-70741500D01*
X101295969Y-70748884D01*
X101290796Y-70754066D01*
X101178242Y-70866816D01*
X101178238Y-70866821D01*
X101173071Y-70871997D01*
X101169231Y-70878227D01*
X101169230Y-70878228D01*
X101167143Y-70881614D01*
X101165114Y-70883441D01*
X101164693Y-70883973D01*
X101164602Y-70883901D01*
X101114372Y-70929108D01*
X101059882Y-70941500D01*
X100817329Y-70941500D01*
X100749208Y-70921498D01*
X100725668Y-70899593D01*
X100724992Y-70900269D01*
X100718642Y-70893919D01*
X100713261Y-70886739D01*
X100596705Y-70799385D01*
X100460316Y-70748255D01*
X100398134Y-70741500D01*
X99101866Y-70741500D01*
X99039684Y-70748255D01*
X98903295Y-70799385D01*
X98786739Y-70886739D01*
X98699385Y-71003295D01*
X98648255Y-71139684D01*
X98641500Y-71201866D01*
X98641500Y-71898134D01*
X98648255Y-71960316D01*
X98699385Y-72096705D01*
X98786739Y-72213261D01*
X98903295Y-72300615D01*
X99039684Y-72351745D01*
X99101866Y-72358500D01*
X100398134Y-72358500D01*
X100460316Y-72351745D01*
X100596705Y-72300615D01*
X100713261Y-72213261D01*
X100718642Y-72206081D01*
X100724992Y-72199731D01*
X100726627Y-72201366D01*
X100773359Y-72166421D01*
X100817329Y-72158500D01*
X101013624Y-72158500D01*
X101081745Y-72178502D01*
X101120768Y-72218197D01*
X101168437Y-72295229D01*
X101173884Y-72304031D01*
X101179066Y-72309204D01*
X101280786Y-72410747D01*
X101314865Y-72473030D01*
X101309862Y-72543850D01*
X101280941Y-72588937D01*
X101178246Y-72691812D01*
X101178242Y-72691817D01*
X101173071Y-72696997D01*
X101169229Y-72703229D01*
X101169228Y-72703231D01*
X101144025Y-72744117D01*
X101091253Y-72791610D01*
X101036766Y-72804000D01*
X100778268Y-72804000D01*
X100710147Y-72783998D01*
X100702703Y-72778826D01*
X100605663Y-72706099D01*
X100596705Y-72699385D01*
X100460316Y-72648255D01*
X100398134Y-72641500D01*
X99101866Y-72641500D01*
X99039684Y-72648255D01*
X98903295Y-72699385D01*
X98786739Y-72786739D01*
X98699385Y-72903295D01*
X98648255Y-73039684D01*
X98641500Y-73101866D01*
X98641500Y-73798134D01*
X98648255Y-73860316D01*
X98699385Y-73996705D01*
X98786739Y-74113261D01*
X98903295Y-74200615D01*
X99039684Y-74251745D01*
X99101866Y-74258500D01*
X100398134Y-74258500D01*
X100460316Y-74251745D01*
X100596705Y-74200615D01*
X100713261Y-74113261D01*
X100730123Y-74090762D01*
X100786981Y-74048246D01*
X100798343Y-74044617D01*
X100800958Y-74043917D01*
X100809151Y-74042838D01*
X100816781Y-74039677D01*
X100816783Y-74039677D01*
X100838718Y-74030591D01*
X100886936Y-74021000D01*
X101036830Y-74021000D01*
X101104951Y-74041002D01*
X101143974Y-74080697D01*
X101173884Y-74129031D01*
X101179066Y-74134204D01*
X101291816Y-74246758D01*
X101291821Y-74246762D01*
X101296997Y-74251929D01*
X101303229Y-74255771D01*
X101303231Y-74255772D01*
X101331617Y-74273270D01*
X101379110Y-74326043D01*
X101391500Y-74380529D01*
X101391500Y-74482684D01*
X101371498Y-74550805D01*
X101331807Y-74589825D01*
X101195969Y-74673884D01*
X101088899Y-74781141D01*
X101026618Y-74815220D01*
X100955798Y-74810217D01*
X100910709Y-74781296D01*
X100807871Y-74678637D01*
X100796460Y-74669625D01*
X100660937Y-74586088D01*
X100647759Y-74579944D01*
X100496234Y-74529685D01*
X100482868Y-74526819D01*
X100390230Y-74517328D01*
X100383815Y-74517000D01*
X100359615Y-74517000D01*
X100344376Y-74521475D01*
X100343171Y-74522865D01*
X100341500Y-74530548D01*
X100341500Y-75541800D01*
X100321498Y-75609921D01*
X100267842Y-75656414D01*
X100215500Y-75667800D01*
X98492336Y-75667800D01*
X98475890Y-75666722D01*
X98452388Y-75663628D01*
X98444200Y-75662550D01*
X98436012Y-75663628D01*
X98404329Y-75667799D01*
X98404320Y-75667800D01*
X98404315Y-75667800D01*
X98285350Y-75683462D01*
X98277716Y-75686624D01*
X98269744Y-75688760D01*
X98269011Y-75686024D01*
X98212143Y-75692145D01*
X98148653Y-75660373D01*
X98112418Y-75599319D01*
X98108500Y-75568144D01*
X98108500Y-75227885D01*
X98616500Y-75227885D01*
X98620975Y-75243124D01*
X98622365Y-75244329D01*
X98630048Y-75246000D01*
X99815385Y-75246000D01*
X99830624Y-75241525D01*
X99831829Y-75240135D01*
X99833500Y-75232452D01*
X99833500Y-74535115D01*
X99829025Y-74519876D01*
X99827635Y-74518671D01*
X99819952Y-74517000D01*
X99791234Y-74517000D01*
X99784718Y-74517337D01*
X99690868Y-74527075D01*
X99677472Y-74529968D01*
X99526047Y-74580488D01*
X99512885Y-74586653D01*
X99377508Y-74670426D01*
X99366110Y-74679460D01*
X99339123Y-74706494D01*
X99276840Y-74740573D01*
X99206020Y-74735570D01*
X99160932Y-74706649D01*
X99132871Y-74678637D01*
X99121460Y-74669625D01*
X98985937Y-74586088D01*
X98972759Y-74579944D01*
X98821234Y-74529685D01*
X98807868Y-74526819D01*
X98715230Y-74517328D01*
X98708815Y-74517000D01*
X98634615Y-74517000D01*
X98619376Y-74521475D01*
X98618171Y-74522865D01*
X98616500Y-74530548D01*
X98616500Y-75227885D01*
X98108500Y-75227885D01*
X98108500Y-74535115D01*
X98104025Y-74519876D01*
X98102635Y-74518671D01*
X98094952Y-74517000D01*
X98016234Y-74517000D01*
X98009718Y-74517337D01*
X97915868Y-74527075D01*
X97902472Y-74529968D01*
X97751047Y-74580488D01*
X97737885Y-74586653D01*
X97602508Y-74670426D01*
X97591106Y-74679464D01*
X97589433Y-74681139D01*
X97588007Y-74681919D01*
X97585373Y-74684007D01*
X97585016Y-74683556D01*
X97527151Y-74715219D01*
X97456331Y-74710216D01*
X97411246Y-74681299D01*
X97408185Y-74678244D01*
X97403003Y-74673071D01*
X97349993Y-74640395D01*
X97261150Y-74585631D01*
X97261148Y-74585630D01*
X97254920Y-74581791D01*
X97089809Y-74527026D01*
X97082973Y-74526326D01*
X97082970Y-74526325D01*
X97073447Y-74525350D01*
X97071459Y-74525146D01*
X97005731Y-74498306D01*
X96964949Y-74440191D01*
X96958300Y-74399802D01*
X96958300Y-74384500D01*
X96978302Y-74316379D01*
X97031958Y-74269886D01*
X97084300Y-74258500D01*
X97898134Y-74258500D01*
X97960316Y-74251745D01*
X98096705Y-74200615D01*
X98213261Y-74113261D01*
X98300615Y-73996705D01*
X98351745Y-73860316D01*
X98358500Y-73798134D01*
X98358500Y-73101866D01*
X98351745Y-73039684D01*
X98343810Y-73018517D01*
X98338627Y-72947711D01*
X98343810Y-72930058D01*
X98348478Y-72917605D01*
X98352105Y-72902351D01*
X98357631Y-72851486D01*
X98358000Y-72844672D01*
X98358000Y-72772115D01*
X98353525Y-72756876D01*
X98352135Y-72755671D01*
X98344452Y-72754000D01*
X98211553Y-72754000D01*
X98143432Y-72733998D01*
X98135988Y-72728826D01*
X98105663Y-72706099D01*
X98096705Y-72699385D01*
X97960316Y-72648255D01*
X97898134Y-72641500D01*
X97122000Y-72641500D01*
X97053879Y-72621498D01*
X97007386Y-72567842D01*
X96996000Y-72515500D01*
X96996000Y-72484500D01*
X97016002Y-72416379D01*
X97069658Y-72369886D01*
X97122000Y-72358500D01*
X97898134Y-72358500D01*
X97960316Y-72351745D01*
X98096705Y-72300615D01*
X98135988Y-72271174D01*
X98202494Y-72246326D01*
X98211553Y-72246000D01*
X98339884Y-72246000D01*
X98355123Y-72241525D01*
X98356328Y-72240135D01*
X98357999Y-72232452D01*
X98357999Y-72155331D01*
X98357629Y-72148510D01*
X98352105Y-72097648D01*
X98348479Y-72082397D01*
X98343810Y-72069942D01*
X98338627Y-71999135D01*
X98343808Y-71981488D01*
X98351745Y-71960316D01*
X98358500Y-71898134D01*
X98358500Y-71201866D01*
X98351745Y-71139684D01*
X98300615Y-71003295D01*
X98295235Y-70996116D01*
X98294137Y-70994111D01*
X98278968Y-70924754D01*
X98303705Y-70858206D01*
X98315562Y-70844508D01*
X99024792Y-70135278D01*
X99087104Y-70101252D01*
X99157919Y-70106317D01*
X99214755Y-70148864D01*
X99221032Y-70158070D01*
X99245429Y-70197496D01*
X99254460Y-70208890D01*
X99367129Y-70321363D01*
X99378540Y-70330375D01*
X99514063Y-70413912D01*
X99527241Y-70420056D01*
X99678766Y-70470315D01*
X99692132Y-70473181D01*
X99784770Y-70482672D01*
X99791185Y-70483000D01*
X99865385Y-70483000D01*
X99880624Y-70478525D01*
X99881829Y-70477135D01*
X99883500Y-70469452D01*
X99883500Y-69431200D01*
X99903502Y-69363079D01*
X99957158Y-69316586D01*
X100009500Y-69305200D01*
X100265500Y-69305200D01*
X100333621Y-69325202D01*
G37*
%TD.AperFunction*%
%TA.AperFunction,Conductor*%
G36*
X119433621Y-68028502D02*
G01*
X119480114Y-68082158D01*
X119491500Y-68134500D01*
X119491500Y-74260268D01*
X119471498Y-74328389D01*
X119417842Y-74374882D01*
X119351893Y-74385531D01*
X119296088Y-74379469D01*
X119289272Y-74379100D01*
X119072215Y-74379100D01*
X119056976Y-74383575D01*
X119055771Y-74384965D01*
X119054100Y-74392648D01*
X119054100Y-75523100D01*
X119034098Y-75591221D01*
X118980442Y-75637714D01*
X118928100Y-75649100D01*
X118672100Y-75649100D01*
X118603979Y-75629098D01*
X118557486Y-75575442D01*
X118546100Y-75523100D01*
X118546100Y-74397216D01*
X118541625Y-74381977D01*
X118540235Y-74380772D01*
X118532552Y-74379101D01*
X118379378Y-74379101D01*
X118311257Y-74359099D01*
X118264764Y-74305443D01*
X118254660Y-74235169D01*
X118284154Y-74170589D01*
X118290205Y-74164083D01*
X118321363Y-74132871D01*
X118330375Y-74121460D01*
X118413912Y-73985937D01*
X118420056Y-73972759D01*
X118470315Y-73821234D01*
X118473181Y-73807868D01*
X118482672Y-73715230D01*
X118483000Y-73708815D01*
X118483000Y-73684615D01*
X118478525Y-73669376D01*
X118477135Y-73668171D01*
X118469452Y-73666500D01*
X116535115Y-73666500D01*
X116519876Y-73670975D01*
X116518671Y-73672365D01*
X116517000Y-73680048D01*
X116517000Y-73708766D01*
X116517337Y-73715282D01*
X116527075Y-73809132D01*
X116529968Y-73822528D01*
X116580488Y-73973953D01*
X116586653Y-73987115D01*
X116670426Y-74122492D01*
X116679460Y-74133890D01*
X116717312Y-74171676D01*
X116751391Y-74233958D01*
X116746388Y-74304779D01*
X116703891Y-74361651D01*
X116657439Y-74383432D01*
X116652940Y-74384502D01*
X116645084Y-74385355D01*
X116637689Y-74388127D01*
X116637686Y-74388128D01*
X116562058Y-74416480D01*
X116508695Y-74436485D01*
X116392139Y-74523839D01*
X116348781Y-74581692D01*
X116291924Y-74624206D01*
X116221105Y-74629232D01*
X116158812Y-74595173D01*
X116147994Y-74582831D01*
X116063653Y-74472917D01*
X116052080Y-74461344D01*
X115938176Y-74373941D01*
X115923993Y-74365753D01*
X115791350Y-74310810D01*
X115775532Y-74306572D01*
X115668934Y-74292538D01*
X115660725Y-74292000D01*
X115625615Y-74292000D01*
X115610376Y-74296475D01*
X115609171Y-74297865D01*
X115607500Y-74305548D01*
X115607500Y-74601802D01*
X115587498Y-74669923D01*
X115533842Y-74716416D01*
X115463568Y-74726520D01*
X115398988Y-74697026D01*
X115365091Y-74650020D01*
X115344684Y-74600752D01*
X115344683Y-74600750D01*
X115341524Y-74593124D01*
X115331411Y-74579944D01*
X115249010Y-74472559D01*
X115243987Y-74466013D01*
X115242882Y-74465165D01*
X115210379Y-74405642D01*
X115207500Y-74378859D01*
X115207500Y-74310116D01*
X115203025Y-74294877D01*
X115201635Y-74293672D01*
X115193952Y-74292001D01*
X115154277Y-74292001D01*
X115146065Y-74292539D01*
X115039475Y-74306571D01*
X115033591Y-74308148D01*
X114971230Y-74308148D01*
X114968850Y-74307162D01*
X114960658Y-74306083D01*
X114960656Y-74306083D01*
X114853972Y-74292038D01*
X114853971Y-74292038D01*
X114849885Y-74291500D01*
X114592532Y-74291500D01*
X114335116Y-74291501D01*
X114331031Y-74292039D01*
X114331027Y-74292039D01*
X114224337Y-74306084D01*
X114224335Y-74306084D01*
X114216150Y-74307162D01*
X114068124Y-74368476D01*
X114065801Y-74370258D01*
X113999203Y-74386415D01*
X113932111Y-74363194D01*
X113888224Y-74307387D01*
X113879199Y-74260558D01*
X113879199Y-74033667D01*
X113875303Y-73997805D01*
X113875303Y-73970595D01*
X113879199Y-73934733D01*
X113879199Y-73533665D01*
X113878830Y-73530265D01*
X113875304Y-73497807D01*
X113875304Y-73470593D01*
X113878830Y-73438135D01*
X113878830Y-73438126D01*
X113879199Y-73434734D01*
X113879199Y-73033666D01*
X113872444Y-72971484D01*
X113821314Y-72835095D01*
X113733960Y-72718539D01*
X113617404Y-72631185D01*
X113481015Y-72580055D01*
X113418833Y-72573300D01*
X112128765Y-72573300D01*
X112066843Y-72580027D01*
X111996962Y-72567499D01*
X111944946Y-72519179D01*
X111927311Y-72450407D01*
X111927973Y-72441156D01*
X111931239Y-72411099D01*
X111934700Y-72379235D01*
X111934700Y-71089167D01*
X111927945Y-71026985D01*
X111876815Y-70890596D01*
X111789461Y-70774040D01*
X111672905Y-70686686D01*
X111656359Y-70680483D01*
X111618449Y-70666271D01*
X111561684Y-70623629D01*
X111536985Y-70557067D01*
X111552193Y-70487718D01*
X111602479Y-70437600D01*
X111622803Y-70428765D01*
X111647538Y-70420513D01*
X111656107Y-70417654D01*
X111804031Y-70326116D01*
X111911101Y-70218859D01*
X111973382Y-70184780D01*
X112044202Y-70189783D01*
X112089291Y-70218704D01*
X112192129Y-70321363D01*
X112203540Y-70330375D01*
X112339063Y-70413912D01*
X112352241Y-70420056D01*
X112503766Y-70470315D01*
X112517132Y-70473181D01*
X112609770Y-70482672D01*
X112616185Y-70483000D01*
X112640385Y-70483000D01*
X112655624Y-70478525D01*
X112656829Y-70477135D01*
X112658500Y-70469452D01*
X112658500Y-70464885D01*
X113166500Y-70464885D01*
X113170975Y-70480124D01*
X113172365Y-70481329D01*
X113180048Y-70483000D01*
X113208766Y-70483000D01*
X113215282Y-70482663D01*
X113309132Y-70472925D01*
X113322528Y-70470032D01*
X113473953Y-70419512D01*
X113487115Y-70413347D01*
X113622492Y-70329574D01*
X113633890Y-70320540D01*
X113746363Y-70207871D01*
X113755375Y-70196460D01*
X113838912Y-70060937D01*
X113845056Y-70047759D01*
X113895315Y-69896234D01*
X113898181Y-69882868D01*
X113907672Y-69790230D01*
X113908000Y-69783815D01*
X113908000Y-69772115D01*
X113903525Y-69756876D01*
X113902135Y-69755671D01*
X113894452Y-69754000D01*
X113184615Y-69754000D01*
X113169376Y-69758475D01*
X113168171Y-69759865D01*
X113166500Y-69767548D01*
X113166500Y-70464885D01*
X112658500Y-70464885D01*
X112658500Y-69440200D01*
X112678502Y-69372079D01*
X112732158Y-69325586D01*
X112784500Y-69314200D01*
X114276461Y-69314200D01*
X114344582Y-69334202D01*
X114365556Y-69351105D01*
X114479595Y-69465144D01*
X114513621Y-69527456D01*
X114516500Y-69554239D01*
X114516500Y-69962072D01*
X114516837Y-69965318D01*
X114516837Y-69965322D01*
X114526257Y-70056107D01*
X114527293Y-70066093D01*
X114529474Y-70072629D01*
X114529474Y-70072631D01*
X114555526Y-70150718D01*
X114582346Y-70231107D01*
X114586202Y-70237338D01*
X114637933Y-70320934D01*
X114673884Y-70379031D01*
X114705787Y-70410879D01*
X114739866Y-70473159D01*
X114734863Y-70543979D01*
X114705943Y-70589067D01*
X114681413Y-70613640D01*
X114673071Y-70621997D01*
X114669231Y-70628227D01*
X114669230Y-70628228D01*
X114595358Y-70748071D01*
X114581791Y-70770080D01*
X114527026Y-70935191D01*
X114516500Y-71037928D01*
X114516500Y-71712072D01*
X114527293Y-71816093D01*
X114529474Y-71822629D01*
X114529474Y-71822631D01*
X114572789Y-71952460D01*
X114582346Y-71981107D01*
X114673884Y-72129031D01*
X114679066Y-72134204D01*
X114791816Y-72246758D01*
X114791821Y-72246762D01*
X114796997Y-72251929D01*
X114803227Y-72255769D01*
X114803228Y-72255770D01*
X114888772Y-72308500D01*
X114945080Y-72343209D01*
X115110191Y-72397974D01*
X115117027Y-72398674D01*
X115117030Y-72398675D01*
X115168526Y-72403951D01*
X115212928Y-72408500D01*
X115787072Y-72408500D01*
X115790318Y-72408163D01*
X115790322Y-72408163D01*
X115884235Y-72398419D01*
X115884239Y-72398418D01*
X115891093Y-72397707D01*
X115897629Y-72395526D01*
X115897631Y-72395526D01*
X116037173Y-72348971D01*
X116056107Y-72342654D01*
X116204031Y-72251116D01*
X116214993Y-72240135D01*
X116321758Y-72133184D01*
X116321762Y-72133179D01*
X116326929Y-72128003D01*
X116345103Y-72098520D01*
X116397875Y-72051026D01*
X116467946Y-72039602D01*
X116533070Y-72067876D01*
X116571886Y-72124757D01*
X116580026Y-72149156D01*
X116580029Y-72149163D01*
X116582346Y-72156107D01*
X116673884Y-72304031D01*
X116781141Y-72411101D01*
X116815220Y-72473382D01*
X116810217Y-72544202D01*
X116781296Y-72589291D01*
X116678637Y-72692129D01*
X116669625Y-72703540D01*
X116586088Y-72839063D01*
X116579944Y-72852241D01*
X116529685Y-73003766D01*
X116526819Y-73017132D01*
X116517328Y-73109770D01*
X116517000Y-73116185D01*
X116517000Y-73140385D01*
X116521475Y-73155624D01*
X116522865Y-73156829D01*
X116530548Y-73158500D01*
X118464885Y-73158500D01*
X118480124Y-73154025D01*
X118481329Y-73152635D01*
X118483000Y-73144952D01*
X118483000Y-73116234D01*
X118482663Y-73109718D01*
X118472925Y-73015868D01*
X118470032Y-73002472D01*
X118419512Y-72851047D01*
X118413347Y-72837885D01*
X118329574Y-72702508D01*
X118320540Y-72691110D01*
X118218860Y-72589607D01*
X118184781Y-72527324D01*
X118189784Y-72456504D01*
X118218705Y-72411416D01*
X118219022Y-72411099D01*
X118326929Y-72303003D01*
X118361599Y-72246758D01*
X118414369Y-72161150D01*
X118414370Y-72161148D01*
X118418209Y-72154920D01*
X118472974Y-71989809D01*
X118473828Y-71981481D01*
X118478951Y-71931474D01*
X118483500Y-71887072D01*
X118483500Y-71287928D01*
X118474925Y-71205283D01*
X118473419Y-71190765D01*
X118473418Y-71190761D01*
X118472707Y-71183907D01*
X118417654Y-71018893D01*
X118326116Y-70870969D01*
X118318664Y-70863530D01*
X118208184Y-70753242D01*
X118208179Y-70753238D01*
X118203003Y-70748071D01*
X118129755Y-70702920D01*
X118061150Y-70660631D01*
X118061148Y-70660630D01*
X118054920Y-70656791D01*
X117889809Y-70602026D01*
X117882973Y-70601326D01*
X117882970Y-70601325D01*
X117831474Y-70596049D01*
X117787072Y-70591500D01*
X117212928Y-70591500D01*
X117209682Y-70591837D01*
X117209678Y-70591837D01*
X117115765Y-70601581D01*
X117115761Y-70601582D01*
X117108907Y-70602293D01*
X117102371Y-70604474D01*
X117102369Y-70604474D01*
X116998250Y-70639211D01*
X116943893Y-70657346D01*
X116807305Y-70741869D01*
X116797973Y-70747644D01*
X116731670Y-70766500D01*
X116486376Y-70766500D01*
X116418255Y-70746498D01*
X116379232Y-70706803D01*
X116329969Y-70627195D01*
X116329968Y-70627194D01*
X116326116Y-70620969D01*
X116294213Y-70589121D01*
X116260134Y-70526841D01*
X116265137Y-70456021D01*
X116294057Y-70410933D01*
X116321757Y-70383184D01*
X116326929Y-70378003D01*
X116356044Y-70330770D01*
X116414369Y-70236150D01*
X116414370Y-70236148D01*
X116418209Y-70229920D01*
X116472974Y-70064809D01*
X116475724Y-70037974D01*
X116481056Y-69985925D01*
X116483500Y-69962072D01*
X116483500Y-69287928D01*
X116472707Y-69183907D01*
X116417654Y-69018893D01*
X116326116Y-68870969D01*
X116306590Y-68851477D01*
X116208184Y-68753242D01*
X116208179Y-68753238D01*
X116203003Y-68748071D01*
X116152509Y-68716946D01*
X116061150Y-68660631D01*
X116061148Y-68660630D01*
X116054920Y-68656791D01*
X115889809Y-68602026D01*
X115882973Y-68601326D01*
X115882970Y-68601325D01*
X115831474Y-68596049D01*
X115787072Y-68591500D01*
X115379239Y-68591500D01*
X115311118Y-68571498D01*
X115290144Y-68554595D01*
X115045015Y-68309466D01*
X115034148Y-68297075D01*
X115019713Y-68278263D01*
X115014687Y-68271713D01*
X114982775Y-68247226D01*
X114982772Y-68247223D01*
X114982767Y-68247219D01*
X114966141Y-68234461D01*
X114924274Y-68177123D01*
X114920053Y-68106252D01*
X114954818Y-68044349D01*
X115017531Y-68011069D01*
X115042846Y-68008500D01*
X119365500Y-68008500D01*
X119433621Y-68028502D01*
G37*
%TD.AperFunction*%
%TA.AperFunction,Conductor*%
G36*
X105055021Y-71465502D02*
G01*
X105101514Y-71519158D01*
X105112900Y-71571500D01*
X105112900Y-72379235D01*
X105116362Y-72411099D01*
X105119627Y-72441156D01*
X105107099Y-72511038D01*
X105058779Y-72563054D01*
X104990007Y-72580689D01*
X104980766Y-72580028D01*
X104918835Y-72573300D01*
X103628767Y-72573300D01*
X103625375Y-72573668D01*
X103625365Y-72573669D01*
X103592290Y-72577262D01*
X103535261Y-72569855D01*
X103531569Y-72567900D01*
X103471780Y-72552882D01*
X103372622Y-72527975D01*
X103372618Y-72527975D01*
X103365251Y-72526124D01*
X103357652Y-72526084D01*
X103357650Y-72526084D01*
X103286194Y-72525710D01*
X103193769Y-72525226D01*
X103186389Y-72526998D01*
X103186387Y-72526998D01*
X103034402Y-72563486D01*
X103034398Y-72563487D01*
X103027023Y-72565258D01*
X102947754Y-72606171D01*
X102889999Y-72635981D01*
X102820291Y-72649450D01*
X102754368Y-72623095D01*
X102743192Y-72613189D01*
X102719215Y-72589254D01*
X102685135Y-72526971D01*
X102690138Y-72456151D01*
X102719059Y-72411063D01*
X102821754Y-72308188D01*
X102821758Y-72308183D01*
X102826929Y-72303003D01*
X102861599Y-72246758D01*
X102914369Y-72161150D01*
X102914370Y-72161148D01*
X102918209Y-72154920D01*
X102972974Y-71989809D01*
X102973828Y-71981481D01*
X102978951Y-71931474D01*
X102983500Y-71887072D01*
X102983500Y-71571500D01*
X103003502Y-71503379D01*
X103057158Y-71456886D01*
X103109500Y-71445500D01*
X104986900Y-71445500D01*
X105055021Y-71465502D01*
G37*
%TD.AperFunction*%
%TD*%
M02*
